<svg width="180" height="180" viewBox="0 0 180 180" fill="none" xmlns="http://www.w3.org/2000/svg">
<circle cx="90.3099" cy="90.3099" r="72.931" fill="white" stroke="black" stroke-width="4"/>
<circle cx="90.3089" cy="90.3108" r="65.4124" fill="black"/>
<circle cx="90.3097" cy="90.3097" r="57.145" fill="black" stroke="#01FD5C" stroke-width="1.49733"/>
<path d="M72.2911 43.9805L60.9087 72.7619C60.8433 72.9273 60.6982 73.0441 60.5236 73.0776C44.6894 76.1173 30.8956 124.99 91.8382 119.746C145.618 115.119 134.612 77.8532 120.146 71.3484C120.031 71.2967 119.941 71.2067 119.889 71.0915L106.37 40.7635C106.215 40.4174 105.748 40.3602 105.515 40.6589L88.1003 62.9637C87.896 63.2255 87.4984 63.2204 87.3007 62.9536L73.1619 43.8662C72.9273 43.5495 72.4361 43.614 72.2911 43.9805Z" fill="#01FD5C" stroke="#1B1B1B" stroke-width="3.51637"/>
<circle cx="80.6454" cy="91.2382" r="8.79092" fill="white" stroke="black" stroke-width="3.51637"/>
<circle cx="98.2274" cy="91.2382" r="8.79092" fill="white" stroke="black" stroke-width="3.51637"/>
<circle cx="103.376" cy="89.8552" r="2.88845" fill="black"/>
<circle cx="89.5623" cy="105.679" r="2.88845" fill="black"/>
<circle cx="85.2918" cy="89.8552" r="2.88845" fill="black"/>
<mask id="path-10-outside-1_59_1101" maskUnits="userSpaceOnUse" x="53.0504" y="112.646" width="75.1754" height="25.256" fill="black">
<rect fill="white" x="53.0504" y="112.646" width="75.1754" height="25.256"/>
<path d="M73.411 128.78H63.3892L61.8477 135.085H57.0754L60.799 119.856C61.0445 118.852 61.5611 118.041 62.3485 117.423C63.1556 116.789 64.0762 116.472 65.1101 116.472H77.2555L76.2354 120.644H65.3785L64.4207 124.562H74.4424L73.411 128.78ZM83.1468 119.346H78.47L79.3712 115.661H84.048L83.1468 119.346ZM79.2986 135.085H74.6218L78.1527 120.644H82.8295L79.2986 135.085ZM86.4956 135.085H81.8188L84.5562 123.889C84.6733 123.41 84.8605 122.97 85.1178 122.568C85.391 122.166 85.7128 121.827 86.083 121.548C86.473 121.255 86.8936 121.031 87.345 120.876C87.7964 120.722 88.2766 120.644 88.7856 120.644H95.4191L94.4216 124.724H89.0289L86.4956 135.085ZM108.318 131.84C108.197 132.334 108.001 132.774 107.732 133.161C107.475 133.563 107.153 133.902 106.767 134.181C106.393 134.474 105.972 134.698 105.505 134.853C105.053 135.007 104.581 135.085 104.088 135.085H96.8104C95.7764 135.085 95.0168 134.776 94.5316 134.157C94.0586 133.555 93.9449 132.751 94.1905 131.747L94.5758 130.171H99.2526L99.026 131.098H103.822L104.224 129.452H98.0682C97.0343 129.452 96.3031 129.19 95.8748 128.664C95.4662 128.123 95.3847 127.351 95.6303 126.346L96.2084 123.982C96.4539 122.978 96.9606 122.174 97.7284 121.572C98.5158 120.953 99.4265 120.644 100.46 120.644H107.38C107.873 120.644 108.308 120.722 108.684 120.876C109.075 121.031 109.386 121.255 109.617 121.548C109.867 121.827 110.023 122.166 110.083 122.568C110.16 122.97 110.14 123.41 110.023 123.889L109.643 125.442H104.966L105.165 124.631H100.726L100.347 126.184H106.503C107.505 126.184 108.23 126.408 108.677 126.856C109.144 127.289 109.258 127.992 109.02 128.965L108.318 131.84ZM119.922 135.085H115.173C114.664 135.085 114.222 135.007 113.846 134.853C113.47 134.698 113.159 134.474 112.913 134.181C112.678 133.902 112.523 133.563 112.446 133.161C112.382 132.774 112.41 132.334 112.531 131.84L114.271 124.724H111.622L112.619 120.644H115.268L116.288 116.472H120.965L119.945 120.644H123.452L122.455 124.724H118.947L117.344 131.283H120.851L119.922 135.085Z"/>
</mask>
<path d="M73.411 128.78H63.3892L61.8477 135.085H57.0754L60.799 119.856C61.0445 118.852 61.5611 118.041 62.3485 117.423C63.1556 116.789 64.0762 116.472 65.1101 116.472H77.2555L76.2354 120.644H65.3785L64.4207 124.562H74.4424L73.411 128.78ZM83.1468 119.346H78.47L79.3712 115.661H84.048L83.1468 119.346ZM79.2986 135.085H74.6218L78.1527 120.644H82.8295L79.2986 135.085ZM86.4956 135.085H81.8188L84.5562 123.889C84.6733 123.41 84.8605 122.97 85.1178 122.568C85.391 122.166 85.7128 121.827 86.083 121.548C86.473 121.255 86.8936 121.031 87.345 120.876C87.7964 120.722 88.2766 120.644 88.7856 120.644H95.4191L94.4216 124.724H89.0289L86.4956 135.085ZM108.318 131.84C108.197 132.334 108.001 132.774 107.732 133.161C107.475 133.563 107.153 133.902 106.767 134.181C106.393 134.474 105.972 134.698 105.505 134.853C105.053 135.007 104.581 135.085 104.088 135.085H96.8104C95.7764 135.085 95.0168 134.776 94.5316 134.157C94.0586 133.555 93.9449 132.751 94.1905 131.747L94.5758 130.171H99.2526L99.026 131.098H103.822L104.224 129.452H98.0682C97.0343 129.452 96.3031 129.19 95.8748 128.664C95.4662 128.123 95.3847 127.351 95.6303 126.346L96.2084 123.982C96.4539 122.978 96.9606 122.174 97.7284 121.572C98.5158 120.953 99.4265 120.644 100.46 120.644H107.38C107.873 120.644 108.308 120.722 108.684 120.876C109.075 121.031 109.386 121.255 109.617 121.548C109.867 121.827 110.023 122.166 110.083 122.568C110.16 122.97 110.14 123.41 110.023 123.889L109.643 125.442H104.966L105.165 124.631H100.726L100.347 126.184H106.503C107.505 126.184 108.23 126.408 108.677 126.856C109.144 127.289 109.258 127.992 109.02 128.965L108.318 131.84ZM119.922 135.085H115.173C114.664 135.085 114.222 135.007 113.846 134.853C113.47 134.698 113.159 134.474 112.913 134.181C112.678 133.902 112.523 133.563 112.446 133.161C112.382 132.774 112.41 132.334 112.531 131.84L114.271 124.724H111.622L112.619 120.644H115.268L116.288 116.472H120.965L119.945 120.644H123.452L122.455 124.724H118.947L117.344 131.283H120.851L119.922 135.085Z" fill="black"/>
<path d="M73.411 128.78L72.7517 131.476H75.5272L76.1865 128.78H73.411ZM63.3892 128.78L64.0485 126.084H61.273L60.6137 128.78H63.3892ZM61.8477 135.085L61.1885 137.781H63.964L64.6232 135.085H61.8477ZM57.0754 135.085H54.2999L53.6407 137.781H56.4162L57.0754 135.085ZM62.3485 117.423L60.852 115.516H60.852L62.3485 117.423ZM77.2555 116.472H80.031L80.6902 113.776H77.9147L77.2555 116.472ZM76.2354 120.644L75.5761 123.34H78.3517L79.0109 120.644H76.2354ZM65.3785 120.644L66.0377 117.948H63.2622L62.603 120.644H65.3785ZM64.4207 124.562H61.6452L60.986 127.258H63.7615L64.4207 124.562ZM74.4424 124.562H77.2179L77.8772 121.865H75.1017L74.4424 124.562ZM73.411 128.78L74.0702 126.084H64.0485L63.3892 128.78L62.73 131.476H72.7517L73.411 128.78ZM63.3892 128.78H60.6137L59.0722 135.085H61.8477H64.6232L66.1648 128.78H63.3892ZM61.8477 135.085L62.5069 132.388H57.7347L57.0754 135.085L56.4162 137.781H61.1885L61.8477 135.085ZM57.0754 135.085H59.851L63.5745 119.856H60.799H58.0234L54.2999 135.085H57.0754ZM60.799 119.856H63.5745C63.6735 119.451 63.7988 119.365 63.8449 119.329L62.3485 117.423L60.852 115.516C59.3233 116.716 58.4156 118.253 58.0234 119.856H60.799ZM62.3485 117.423L63.8449 119.329C63.9274 119.264 64.0557 119.168 64.4509 119.168L65.1101 116.472L65.7694 113.776C64.0966 113.776 62.3838 114.314 60.852 115.516L62.3485 117.423ZM65.1101 116.472L64.4509 119.168H76.5963L77.2555 116.472L77.9147 113.776H65.7694L65.1101 116.472ZM77.2555 116.472H74.48L73.4599 120.644H76.2354H79.0109L80.031 116.472H77.2555ZM76.2354 120.644L76.8946 117.948H66.0377L65.3785 120.644L64.7193 123.34H75.5761L76.2354 120.644ZM65.3785 120.644H62.603L61.6452 124.562H64.4207H67.1962L68.154 120.644H65.3785ZM64.4207 124.562L63.7615 127.258H73.7832L74.4424 124.562L75.1017 121.865H65.0799L64.4207 124.562ZM74.4424 124.562H71.6669L70.6354 128.78H73.411H76.1865L77.2179 124.562H74.4424ZM83.1468 119.346L82.4876 122.043H85.2631L85.9223 119.346H83.1468ZM78.47 119.346H75.6945L75.0353 122.043H77.8108L78.47 119.346ZM79.3712 115.661L80.0304 112.965H77.2549L76.5956 115.661H79.3712ZM84.048 115.661H86.8235L87.4827 112.965H84.7072L84.048 115.661ZM79.2986 135.085L78.6394 137.781H81.4149L82.0742 135.085H79.2986ZM74.6218 135.085H71.8463L71.1871 137.781H73.9626L74.6218 135.085ZM78.1527 120.644L78.8119 117.948H76.0364L75.3771 120.644H78.1527ZM82.8295 120.644H85.605L86.2642 117.948H83.4887L82.8295 120.644ZM83.1468 119.346L83.8061 116.65H79.1293L78.47 119.346L77.8108 122.043H82.4876L83.1468 119.346ZM78.47 119.346H81.2455L82.1467 115.661H79.3712H76.5956L75.6945 119.346H78.47ZM79.3712 115.661L78.7119 118.357H83.3887L84.048 115.661L84.7072 112.965H80.0304L79.3712 115.661ZM84.048 115.661H81.2724L80.3713 119.346H83.1468H85.9223L86.8235 115.661H84.048ZM79.2986 135.085L79.9579 132.388H75.2811L74.6218 135.085L73.9626 137.781H78.6394L79.2986 135.085ZM74.6218 135.085H77.3974L80.9282 120.644H78.1527H75.3771L71.8463 135.085H74.6218ZM78.1527 120.644L77.4934 123.34H82.1702L82.8295 120.644L83.4887 117.948H78.8119L78.1527 120.644ZM82.8295 120.644H80.0539L76.5231 135.085H79.2986H82.0742L85.605 120.644H82.8295ZM86.4956 135.085L85.8364 137.781H88.6119L89.2711 135.085H86.4956ZM81.8188 135.085H79.0433L78.3841 137.781H81.1596L81.8188 135.085ZM85.1178 122.568L82.8185 121.518L82.7906 121.559L82.764 121.6L85.1178 122.568ZM86.083 121.548L87.5133 123.506L87.5167 123.503L86.083 121.548ZM87.345 120.876L87.7261 123.393V123.393L87.345 120.876ZM95.4191 120.644H98.1946L98.8538 117.948H96.0783L95.4191 120.644ZM94.4216 124.724L93.7624 127.42H96.5379L97.1971 124.724H94.4216ZM89.0289 124.724L89.6882 122.028H86.9127L86.2534 124.724H89.0289ZM86.4956 135.085L87.1548 132.388H82.478L81.8188 135.085L81.1596 137.781H85.8364L86.4956 135.085ZM81.8188 135.085H84.5943L87.3317 123.889H84.5562H81.7807L79.0433 135.085H81.8188ZM84.5562 123.889H87.3317C87.377 123.704 87.4333 123.596 87.4717 123.536L85.1178 122.568L82.764 121.6C82.2878 122.344 81.9696 123.117 81.7807 123.889H84.5562ZM85.1178 122.568L87.4171 123.619C87.4761 123.532 87.5095 123.508 87.5133 123.506L86.083 121.548L84.6528 119.591C83.9161 120.145 83.306 120.801 82.8185 121.518L85.1178 122.568ZM86.083 121.548L87.5167 123.503C87.5796 123.456 87.6421 123.421 87.7261 123.393L87.345 120.876L86.9639 118.36C86.1451 118.64 85.3663 119.054 84.6493 119.594L86.083 121.548ZM87.345 120.876L87.7261 123.393C87.7829 123.373 87.908 123.34 88.1264 123.34L88.7856 120.644L89.4449 117.948C88.6452 117.948 87.8099 118.07 86.9639 118.36L87.345 120.876ZM88.7856 120.644L88.1264 123.34H94.7598L95.4191 120.644L96.0783 117.948H89.4449L88.7856 120.644ZM95.4191 120.644H92.6435L91.6461 124.724H94.4216H97.1971L98.1946 120.644H95.4191ZM94.4216 124.724L95.0808 122.028H89.6882L89.0289 124.724L88.3697 127.42H93.7624L94.4216 124.724ZM89.0289 124.724H86.2534L83.7201 135.085H86.4956H89.2711L91.8045 124.724H89.0289ZM107.732 133.161L105.457 132.075L105.416 132.133L105.378 132.193L107.732 133.161ZM106.767 134.181L105.4 132.177L105.334 132.224L105.27 132.274L106.767 134.181ZM105.505 134.853L105.159 132.325L105.141 132.33L105.124 132.336L105.505 134.853ZM94.5316 134.157L96.9604 132.251V132.251L94.5316 134.157ZM94.5758 130.171L95.2351 127.475H92.4596L91.8003 130.171H94.5758ZM99.2526 130.171H102.028L102.687 127.475H99.9119L99.2526 130.171ZM99.0259 131.098H96.2504L95.5912 133.794H98.3667L99.0259 131.098ZM103.822 131.098L103.163 133.794H105.938L106.598 131.098H103.822ZM104.224 129.452H107L107.659 126.756H104.884L104.224 129.452ZM95.8748 128.664L93.4247 130.543L93.4458 130.571L93.468 130.598L95.8748 128.664ZM97.7284 121.572L96.2319 119.665V119.665L97.7284 121.572ZM108.684 120.876L107.072 123.393L107.087 123.399L107.101 123.404L108.684 120.876ZM109.617 121.548L107.188 123.455L107.228 123.505L107.27 123.552L109.617 121.548ZM110.083 122.568L107.256 123.536L107.263 123.578L107.27 123.619L110.083 122.568ZM109.643 125.442L108.984 128.138H111.759L112.419 125.442H109.643ZM104.966 125.442H102.191L101.532 128.138H104.307L104.966 125.442ZM105.165 124.631H107.94L108.599 121.935H105.824L105.165 124.631ZM100.726 124.631L101.386 121.935H98.6102L97.951 124.631H100.726ZM100.347 126.184H97.5712L96.912 128.88H99.6875L100.347 126.184ZM108.677 126.856L106.399 128.932L106.425 128.959L106.453 128.984L108.677 126.856ZM108.318 131.84H105.542C105.497 132.024 105.45 132.084 105.457 132.075L107.732 133.161L110.007 134.247C110.552 133.464 110.896 132.644 111.093 131.84H108.318ZM107.732 133.161L105.378 132.193C105.373 132.201 105.37 132.205 105.37 132.205C105.37 132.205 105.37 132.204 105.371 132.203C105.372 132.202 105.374 132.2 105.376 132.198C105.38 132.194 105.385 132.189 105.39 132.185C105.395 132.181 105.398 132.178 105.4 132.177L106.767 134.181L108.134 136.185C108.929 135.612 109.584 134.913 110.086 134.129L107.732 133.161ZM106.767 134.181L105.27 132.274C105.266 132.277 105.26 132.282 105.248 132.288C105.236 132.295 105.208 132.308 105.159 132.325L105.505 134.853L105.851 137.381C106.696 137.101 107.515 136.675 108.263 136.087L106.767 134.181ZM105.505 134.853L105.124 132.336C105.056 132.359 104.938 132.388 104.747 132.388L104.088 135.085L103.429 137.781C104.224 137.781 105.05 137.655 105.886 137.369L105.505 134.853ZM104.088 135.085L104.747 132.388H97.4696L96.8104 135.085L96.1511 137.781H103.429L104.088 135.085ZM96.8104 135.085L97.4696 132.388C97.0527 132.388 96.9888 132.287 96.9604 132.251L94.5316 134.157L92.1029 136.064C93.0448 137.264 94.5001 137.781 96.1511 137.781L96.8104 135.085ZM94.5316 134.157L96.9604 132.251C96.939 132.224 96.9281 132.2 96.9218 132.156C96.9144 132.104 96.909 131.98 96.966 131.747H94.1905H91.4149C91.0281 133.329 91.1627 134.866 92.1029 136.064L94.5316 134.157ZM94.1905 131.747H96.966L97.3514 130.171H94.5758H91.8003L91.4149 131.747H94.1905ZM94.5758 130.171L93.9166 132.867H98.5934L99.2526 130.171L99.9119 127.475H95.2351L94.5758 130.171ZM99.2526 130.171H96.4771L96.2504 131.098H99.0259H101.801L102.028 130.171H99.2526ZM99.0259 131.098L98.3667 133.794H103.163L103.822 131.098L104.481 128.402H99.6852L99.0259 131.098ZM103.822 131.098H106.598L107 129.452H104.224H101.449L101.047 131.098H103.822ZM104.224 129.452L104.884 126.756H98.7275L98.0682 129.452L97.409 132.148H103.565L104.224 129.452ZM98.0682 129.452L98.7275 126.756C98.4469 126.756 98.3101 126.72 98.262 126.703C98.2247 126.689 98.2503 126.692 98.2816 126.73L95.8748 128.664L93.468 130.598C94.4129 131.757 95.8996 132.148 97.409 132.148L98.0682 129.452ZM95.8748 128.664L98.325 126.786C98.3548 126.825 98.3514 126.851 98.3472 126.811C98.3418 126.76 98.3391 126.619 98.4058 126.346H95.6303H92.8548C92.4963 127.813 92.5232 129.35 93.4247 130.543L95.8748 128.664ZM95.6303 126.346H98.4058L98.9839 123.982H96.2084H93.4328L92.8548 126.346H95.6303ZM96.2084 123.982H98.9839C99.0408 123.749 99.1069 123.625 99.1399 123.573C99.1676 123.529 99.1901 123.505 99.2248 123.478L97.7284 121.572L96.2319 119.665C94.706 120.863 93.8197 122.4 93.4328 123.982H96.2084ZM97.7284 121.572L99.2248 123.478C99.2709 123.442 99.3844 123.34 99.8013 123.34L100.46 120.644L101.12 117.948C99.4686 117.948 97.7607 118.465 96.2319 119.665L97.7284 121.572ZM100.46 120.644L99.8013 123.34H106.721L107.38 120.644L108.039 117.948H101.12L100.46 120.644ZM107.38 120.644L106.721 123.34C106.912 123.34 107.016 123.37 107.072 123.393L108.684 120.876L110.295 118.36C109.6 118.074 108.835 117.948 108.039 117.948L107.38 120.644ZM108.684 120.876L107.101 123.404C107.142 123.421 107.164 123.434 107.173 123.441C107.182 123.447 107.186 123.451 107.188 123.455L109.617 121.548L112.046 119.642C111.584 119.054 110.975 118.628 110.266 118.348L108.684 120.876ZM109.617 121.548L107.27 123.552C107.269 123.551 107.267 123.548 107.264 123.544C107.261 123.54 107.259 123.535 107.257 123.531C107.256 123.529 107.255 123.527 107.254 123.526C107.254 123.524 107.254 123.524 107.254 123.524C107.254 123.524 107.255 123.528 107.256 123.536L110.083 122.568L112.911 121.6C112.792 120.816 112.479 120.117 111.964 119.544L109.617 121.548ZM110.083 122.568L107.27 123.619C107.278 123.657 107.285 123.736 107.247 123.889H110.023H112.798C112.995 123.085 113.043 122.283 112.896 121.518L110.083 122.568ZM110.023 123.889H107.247L106.868 125.442H109.643H112.419L112.798 123.889H110.023ZM109.643 125.442L110.302 122.746H105.626L104.966 125.442L104.307 128.138H108.984L109.643 125.442ZM104.966 125.442H107.742L107.94 124.631H105.165H102.389L102.191 125.442H104.966ZM105.165 124.631L105.824 121.935H101.386L100.726 124.631L100.067 127.327H104.505L105.165 124.631ZM100.726 124.631H97.951L97.5712 126.184H100.347H103.122L103.502 124.631H100.726ZM100.347 126.184L99.6875 128.88H105.844L106.503 126.184L107.162 123.488H101.006L100.347 126.184ZM106.503 126.184L105.844 128.88C106.447 128.88 106.481 129.015 106.399 128.932L108.677 126.856L110.955 124.78C109.978 123.801 108.563 123.488 107.162 123.488L106.503 126.184ZM108.677 126.856L106.453 128.984C106.405 128.94 106.364 128.886 106.334 128.828C106.305 128.77 106.293 128.723 106.29 128.7C106.283 128.659 106.304 128.725 106.245 128.965H109.02H111.796C112.155 127.497 112.11 125.848 110.901 124.728L108.677 126.856ZM109.02 128.965H106.245L105.542 131.84H108.318H111.093L111.796 128.965H109.02ZM119.922 135.085L119.262 137.781H122.038L122.697 135.085H119.922ZM113.846 134.853L115.458 132.336V132.336L113.846 134.853ZM112.913 134.181L115.302 132.226L115.3 132.223L112.913 134.181ZM112.446 133.161L109.624 134.162L109.629 134.187L109.633 134.211L112.446 133.161ZM114.271 124.724H117.046L117.705 122.028H114.93L114.271 124.724ZM111.622 124.724H108.846L108.187 127.42H110.963L111.622 124.724ZM112.619 120.644L113.279 117.948H110.503L109.844 120.644H112.619ZM115.268 120.644L114.609 123.34H117.384L118.044 120.644H115.268ZM116.288 116.472L116.947 113.776H114.172L113.513 116.472H116.288ZM120.965 116.472H123.741L124.4 113.776H121.624L120.965 116.472ZM119.945 120.644H117.169L116.51 123.34H119.286L119.945 120.644ZM123.452 120.644H126.228L126.887 117.948H124.112L123.452 120.644ZM122.455 124.724L121.796 127.42H124.571L125.231 124.724H122.455ZM118.947 124.724L119.607 122.028H116.831L116.172 124.724H118.947ZM117.344 131.283H114.568L113.909 133.979H116.684L117.344 131.283ZM120.851 131.283H123.627L124.286 128.587H121.51L120.851 131.283ZM119.922 135.085L120.581 132.388H115.832L115.173 135.085L114.514 137.781H119.262L119.922 135.085ZM115.173 135.085L115.832 132.388C115.614 132.388 115.505 132.356 115.458 132.336L113.846 134.853L112.234 137.369C112.939 137.659 113.714 137.781 114.514 137.781L115.173 135.085ZM113.846 134.853L115.458 132.336C115.388 132.308 115.342 132.273 115.302 132.226L112.913 134.181L110.523 136.135C110.976 136.675 111.553 137.089 112.234 137.369L113.846 134.853ZM112.913 134.181L115.3 132.223C115.298 132.22 115.276 132.197 115.259 132.11L112.446 133.161L109.633 134.211C109.77 134.928 110.059 135.584 110.525 136.138L112.913 134.181ZM112.446 133.161L115.268 132.159C115.266 132.146 115.254 132.054 115.306 131.84H112.531H109.755C109.566 132.614 109.498 133.403 109.624 134.162L112.446 133.161ZM112.531 131.84H115.306L117.046 124.724H114.271H111.495L109.755 131.84H112.531ZM114.271 124.724L114.93 122.028H112.281L111.622 124.724L110.963 127.42H113.611L114.271 124.724ZM111.622 124.724H114.398L115.395 120.644H112.619H109.844L108.846 124.724H111.622ZM112.619 120.644L111.96 123.34H114.609L115.268 120.644L115.927 117.948H113.279L112.619 120.644ZM115.268 120.644H118.044L119.064 116.472H116.288H113.513L112.493 120.644H115.268ZM116.288 116.472L115.629 119.168H120.306L120.965 116.472L121.624 113.776H116.947L116.288 116.472ZM120.965 116.472H118.189L117.169 120.644H119.945H122.72L123.741 116.472H120.965ZM119.945 120.644L119.286 123.34H122.793L123.452 120.644L124.112 117.948H120.604L119.945 120.644ZM123.452 120.644H120.677L119.679 124.724H122.455H125.231L126.228 120.644H123.452ZM122.455 124.724L123.114 122.028H119.607L118.947 124.724L118.288 127.42H121.796L122.455 124.724ZM118.947 124.724H116.172L114.568 131.283H117.344H120.119L121.723 124.724H118.947ZM117.344 131.283L116.684 133.979H120.192L120.851 131.283L121.51 128.587H118.003L117.344 131.283ZM120.851 131.283H118.076L117.146 135.085H119.922H122.697L123.627 131.283H120.851Z" fill="white" mask="url(#path-10-outside-1_59_1101)"/>
<mask id="path-12-outside-2_59_1101" maskUnits="userSpaceOnUse" x="43.2356" y="135.436" width="89.2254" height="21.3704" fill="black">
<rect fill="white" x="43.2356" y="135.436" width="89.2254" height="21.3704"/>
<path d="M61.9716 150.852C61.7713 151.672 61.3434 152.334 60.6881 152.838C60.0426 153.355 59.2982 153.613 58.4547 153.613H49.9483C49.1048 153.613 48.4802 153.355 48.0745 152.838C47.6787 152.334 47.581 151.672 47.7814 150.852L50.1439 141.19C50.3442 140.371 50.7656 139.709 51.408 139.205C52.0664 138.688 52.8173 138.43 53.6608 138.43H62.1672C63.0107 138.43 63.6288 138.688 64.0215 139.205C64.4303 139.709 64.5345 140.371 64.3341 141.19L63.6545 143.97H59.7614L60.2839 141.833H53.8798L51.8316 150.21H58.2357L58.8368 147.751H62.7298L61.9716 150.852ZM75.5976 150.928C75.4989 151.331 75.3382 151.697 75.1153 152.025C74.9054 152.352 74.6429 152.63 74.3279 152.857C74.0228 153.096 73.6796 153.279 73.2984 153.405C72.9271 153.544 72.5403 153.613 72.138 153.613H66.0064C65.5912 153.613 65.2318 153.544 64.9283 153.405C64.6217 153.279 64.368 153.096 64.167 152.857C63.9759 152.63 63.8491 152.352 63.7865 152.025C63.7368 151.697 63.7613 151.331 63.86 150.928L65.4365 144.48C65.5321 144.09 65.6848 143.73 65.8947 143.403C66.1176 143.075 66.38 142.797 66.6821 142.571C67.0002 142.331 67.3433 142.148 67.7116 142.022C68.0798 141.896 68.4715 141.833 68.8868 141.833H75.0184C75.4207 141.833 75.7751 141.896 76.0817 142.022C76.4012 142.148 76.655 142.331 76.843 142.571C77.047 142.797 77.1739 143.075 77.2235 143.403C77.2861 143.73 77.2697 144.09 77.1741 144.48L75.5976 150.928ZM71.9395 150.285L73.1925 145.161H69.0853L67.8324 150.285H71.9395ZM89.247 150.928C89.1484 151.331 88.9876 151.697 88.7647 152.025C88.5548 152.352 88.2924 152.63 87.9774 152.857C87.6722 153.096 87.3291 153.279 86.9479 153.405C86.5766 153.544 86.1898 153.613 85.7875 153.613H79.6559C79.2406 153.613 78.8813 153.544 78.5778 153.405C78.2712 153.279 78.0174 153.096 77.8164 152.857C77.6254 152.63 77.4985 152.352 77.4359 152.025C77.3863 151.697 77.4108 151.331 77.5094 150.928L79.7332 141.833H83.5484L81.4818 150.285H85.589L87.6556 141.833H91.4708L89.247 150.928ZM94.3547 153.613H90.5395L92.7725 144.48C92.8681 144.09 93.0208 143.73 93.2307 143.403C93.4536 143.075 93.7161 142.797 94.0181 142.571C94.3362 142.331 94.6794 142.148 95.0476 142.022C95.4158 141.896 95.8075 141.833 96.2228 141.833H101.634L100.82 145.161H96.4213L94.3547 153.613ZM112.156 150.966C112.058 151.369 111.899 151.728 111.679 152.044C111.469 152.371 111.206 152.649 110.891 152.876C110.586 153.115 110.243 153.298 109.862 153.424C109.494 153.55 109.108 153.613 108.706 153.613H102.769C101.926 153.613 101.306 153.361 100.91 152.857C100.524 152.365 100.432 151.71 100.632 150.89L100.946 149.604H104.762L104.577 150.361H108.489L108.817 149.018H103.795C102.952 149.018 102.355 148.804 102.006 148.375C101.673 147.934 101.606 147.304 101.806 146.485L102.278 144.556C102.478 143.737 102.892 143.081 103.518 142.589C104.16 142.085 104.903 141.833 105.747 141.833H111.392C111.794 141.833 112.148 141.896 112.455 142.022C112.775 142.148 113.028 142.331 113.216 142.571C113.42 142.797 113.547 143.075 113.597 143.403C113.66 143.73 113.643 144.09 113.548 144.48L113.238 145.747H109.423L109.584 145.085H105.964L105.654 146.352H110.676C111.494 146.352 112.085 146.535 112.45 146.901C112.831 147.254 112.924 147.827 112.73 148.621L112.156 150.966ZM125.539 150.89C125.339 151.71 124.919 152.365 124.28 152.857C123.65 153.361 122.914 153.613 122.07 153.613H116.133C115.718 153.613 115.357 153.55 115.051 153.424C114.744 153.298 114.49 153.115 114.289 152.876C114.098 152.649 113.971 152.371 113.909 152.044C113.856 151.728 113.879 151.369 113.978 150.966L115.564 144.48C115.659 144.09 115.812 143.73 116.022 143.403C116.245 143.075 116.507 142.797 116.809 142.571C117.127 142.331 117.47 142.148 117.839 142.022C118.207 141.896 118.599 141.833 119.014 141.833H125.145C125.989 141.833 126.602 142.085 126.985 142.589C127.384 143.081 127.483 143.737 127.283 144.556L126.793 146.56C126.592 147.38 126.211 148.01 125.649 148.451C125.103 148.88 124.408 149.094 123.565 149.094H118.251L117.941 150.361H121.853L122.025 149.661H125.84L125.539 150.89ZM123.01 146.428L123.338 145.085H119.231L118.903 146.428H123.01Z"/>
</mask>
<path d="M61.9716 150.852C61.7713 151.672 61.3434 152.334 60.6881 152.838C60.0426 153.355 59.2982 153.613 58.4547 153.613H49.9483C49.1048 153.613 48.4802 153.355 48.0745 152.838C47.6787 152.334 47.581 151.672 47.7814 150.852L50.1439 141.19C50.3442 140.371 50.7656 139.709 51.408 139.205C52.0664 138.688 52.8173 138.43 53.6608 138.43H62.1672C63.0107 138.43 63.6288 138.688 64.0215 139.205C64.4303 139.709 64.5345 140.371 64.3341 141.19L63.6545 143.97H59.7614L60.2839 141.833H53.8798L51.8316 150.21H58.2357L58.8368 147.751H62.7298L61.9716 150.852ZM75.5976 150.928C75.4989 151.331 75.3382 151.697 75.1153 152.025C74.9054 152.352 74.6429 152.63 74.3279 152.857C74.0228 153.096 73.6796 153.279 73.2984 153.405C72.9271 153.544 72.5403 153.613 72.138 153.613H66.0064C65.5912 153.613 65.2318 153.544 64.9283 153.405C64.6217 153.279 64.368 153.096 64.167 152.857C63.9759 152.63 63.8491 152.352 63.7865 152.025C63.7368 151.697 63.7613 151.331 63.86 150.928L65.4365 144.48C65.5321 144.09 65.6848 143.73 65.8947 143.403C66.1176 143.075 66.38 142.797 66.6821 142.571C67.0002 142.331 67.3433 142.148 67.7116 142.022C68.0798 141.896 68.4715 141.833 68.8868 141.833H75.0184C75.4207 141.833 75.7751 141.896 76.0817 142.022C76.4012 142.148 76.655 142.331 76.843 142.571C77.047 142.797 77.1739 143.075 77.2235 143.403C77.2861 143.73 77.2697 144.09 77.1741 144.48L75.5976 150.928ZM71.9395 150.285L73.1925 145.161H69.0853L67.8324 150.285H71.9395ZM89.247 150.928C89.1484 151.331 88.9876 151.697 88.7647 152.025C88.5548 152.352 88.2924 152.63 87.9774 152.857C87.6722 153.096 87.3291 153.279 86.9479 153.405C86.5766 153.544 86.1898 153.613 85.7875 153.613H79.6559C79.2406 153.613 78.8813 153.544 78.5778 153.405C78.2712 153.279 78.0174 153.096 77.8164 152.857C77.6254 152.63 77.4985 152.352 77.4359 152.025C77.3863 151.697 77.4108 151.331 77.5094 150.928L79.7332 141.833H83.5484L81.4818 150.285H85.589L87.6556 141.833H91.4708L89.247 150.928ZM94.3547 153.613H90.5395L92.7725 144.48C92.8681 144.09 93.0208 143.73 93.2307 143.403C93.4536 143.075 93.7161 142.797 94.0181 142.571C94.3362 142.331 94.6794 142.148 95.0476 142.022C95.4158 141.896 95.8075 141.833 96.2228 141.833H101.634L100.82 145.161H96.4213L94.3547 153.613ZM112.156 150.966C112.058 151.369 111.899 151.728 111.679 152.044C111.469 152.371 111.206 152.649 110.891 152.876C110.586 153.115 110.243 153.298 109.862 153.424C109.494 153.55 109.108 153.613 108.706 153.613H102.769C101.926 153.613 101.306 153.361 100.91 152.857C100.524 152.365 100.432 151.71 100.632 150.89L100.946 149.604H104.762L104.577 150.361H108.489L108.817 149.018H103.795C102.952 149.018 102.355 148.804 102.006 148.375C101.673 147.934 101.606 147.304 101.806 146.485L102.278 144.556C102.478 143.737 102.892 143.081 103.518 142.589C104.16 142.085 104.903 141.833 105.747 141.833H111.392C111.794 141.833 112.148 141.896 112.455 142.022C112.775 142.148 113.028 142.331 113.216 142.571C113.42 142.797 113.547 143.075 113.597 143.403C113.66 143.73 113.643 144.09 113.548 144.48L113.238 145.747H109.423L109.584 145.085H105.964L105.654 146.352H110.676C111.494 146.352 112.085 146.535 112.45 146.901C112.831 147.254 112.924 147.827 112.73 148.621L112.156 150.966ZM125.539 150.89C125.339 151.71 124.919 152.365 124.28 152.857C123.65 153.361 122.914 153.613 122.07 153.613H116.133C115.718 153.613 115.357 153.55 115.051 153.424C114.744 153.298 114.49 153.115 114.289 152.876C114.098 152.649 113.971 152.371 113.909 152.044C113.856 151.728 113.879 151.369 113.978 150.966L115.564 144.48C115.659 144.09 115.812 143.73 116.022 143.403C116.245 143.075 116.507 142.797 116.809 142.571C117.127 142.331 117.47 142.148 117.839 142.022C118.207 141.896 118.599 141.833 119.014 141.833H125.145C125.989 141.833 126.602 142.085 126.985 142.589C127.384 143.081 127.483 143.737 127.283 144.556L126.793 146.56C126.592 147.38 126.211 148.01 125.649 148.451C125.103 148.88 124.408 149.094 123.565 149.094H118.251L117.941 150.361H121.853L122.025 149.661H125.84L125.539 150.89ZM123.01 146.428L123.338 145.085H119.231L118.903 146.428H123.01Z" fill="black"/>
<path d="M60.6881 152.838L59.2217 150.908L59.1915 150.931L59.1618 150.955L60.6881 152.838ZM48.0745 152.838L45.6458 154.744H45.6458L48.0745 152.838ZM51.408 139.205L49.9115 137.298H49.9115L51.408 139.205ZM64.0215 139.205L61.5745 141.088L61.5926 141.111L61.6114 141.135L64.0215 139.205ZM63.6545 143.97L62.9953 146.666H65.7708L66.43 143.97H63.6545ZM59.7614 143.97H56.9859L56.3267 146.666H59.1022L59.7614 143.97ZM60.2839 141.833H63.0594L63.7186 139.137H60.9431L60.2839 141.833ZM53.8798 141.833L54.539 139.137H51.7635L51.1043 141.833H53.8798ZM51.8316 150.21H49.0561L48.3969 152.906H51.1724L51.8316 150.21ZM58.2357 150.21L57.5765 152.906H60.352L61.0112 150.21H58.2357ZM58.8368 147.751L59.496 145.055H56.7205L56.0613 147.751H58.8368ZM62.7298 147.751H65.5053L66.1646 145.055H63.3891L62.7298 147.751ZM61.9716 150.852H59.1961C59.1806 150.916 59.1659 150.955 59.1578 150.974C59.1499 150.993 59.1477 150.994 59.1548 150.983C59.1623 150.971 59.1746 150.955 59.1906 150.937C59.2066 150.92 59.2187 150.91 59.2217 150.908L60.6881 152.838L62.1544 154.768C63.5604 153.686 64.3953 152.291 64.7471 150.852H61.9716ZM60.6881 152.838L59.1618 150.955C59.1647 150.953 59.1772 150.943 59.1977 150.932C59.2183 150.92 59.2371 150.912 59.2502 150.908C59.2627 150.903 59.261 150.905 59.2411 150.909C59.2205 150.912 59.179 150.917 59.1139 150.917L58.4547 153.613L57.7954 156.309C59.2767 156.309 60.8296 155.829 62.2144 154.72L60.6881 152.838ZM58.4547 153.613L59.1139 150.917H50.6075L49.9483 153.613L49.2891 156.309H57.7954L58.4547 153.613ZM49.9483 153.613L50.6075 150.917C50.5425 150.917 50.5023 150.912 50.4813 150.908C50.4609 150.905 50.4569 150.902 50.4633 150.905C50.4702 150.907 50.4806 150.913 50.4911 150.921C50.5014 150.929 50.5051 150.934 50.5033 150.931L48.0745 152.838L45.6458 154.744C46.4979 155.83 47.8068 156.309 49.2891 156.309L49.9483 153.613ZM48.0745 152.838L50.5033 150.931C50.5064 150.935 50.5138 150.946 50.5209 150.963C50.528 150.98 50.5315 150.995 50.5328 151.003C50.5357 151.023 50.5245 150.985 50.5569 150.852H47.7814H45.0059C44.6589 152.271 44.7933 153.658 45.6458 154.744L48.0745 152.838ZM47.7814 150.852H50.5569L52.9194 141.19H50.1439H47.3684L45.0059 150.852H47.7814ZM50.1439 141.19H52.9194C52.9518 141.058 52.9817 141.019 52.9692 141.039C52.9635 141.048 52.9528 141.063 52.9374 141.08C52.9221 141.097 52.9095 141.107 52.9044 141.111L51.408 139.205L49.9115 137.298C48.5279 138.385 47.7153 139.771 47.3684 141.19H50.1439ZM51.408 139.205L52.9044 141.111C52.9075 141.109 52.9012 141.114 52.887 141.122C52.8727 141.13 52.8596 141.135 52.8514 141.138C52.8437 141.141 52.849 141.138 52.8711 141.134C52.8939 141.131 52.9366 141.126 53.0016 141.126L53.6608 138.43L54.3201 135.734C52.8378 135.734 51.2945 136.213 49.9115 137.298L51.408 139.205ZM53.6608 138.43L53.0016 141.126H61.508L62.1672 138.43L62.8264 135.734H54.3201L53.6608 138.43ZM62.1672 138.43L61.508 141.126C61.5731 141.126 61.6122 141.131 61.6311 141.134C61.6494 141.137 61.6502 141.139 61.6398 141.135C61.6289 141.13 61.614 141.122 61.599 141.111C61.5842 141.099 61.5763 141.09 61.5745 141.088L64.0215 139.205L66.4685 137.322C65.626 136.213 64.3077 135.734 62.8264 135.734L62.1672 138.43ZM64.0215 139.205L61.6114 141.135C61.6095 141.132 61.6022 141.122 61.5947 141.105C61.5871 141.088 61.5829 141.072 61.581 141.06C61.5793 141.049 61.581 141.05 61.5798 141.069C61.5785 141.088 61.5741 141.127 61.5586 141.19H64.3341H67.1096C67.4615 139.751 67.3086 138.357 66.4316 137.275L64.0215 139.205ZM64.3341 141.19H61.5586L60.879 143.97H63.6545H66.43L67.1096 141.19H64.3341ZM63.6545 143.97L64.3137 141.274H60.4207L59.7614 143.97L59.1022 146.666H62.9953L63.6545 143.97ZM59.7614 143.97H62.5369L63.0594 141.833H60.2839H57.5084L56.9859 143.97H59.7614ZM60.2839 141.833L60.9431 139.137H54.539L53.8798 141.833L53.2205 144.529H59.6246L60.2839 141.833ZM53.8798 141.833H51.1043L49.0561 150.21H51.8316H54.6071L56.6553 141.833H53.8798ZM51.8316 150.21L51.1724 152.906H57.5765L58.2357 150.21L58.895 147.513H52.4909L51.8316 150.21ZM58.2357 150.21H61.0112L61.6123 147.751H58.8368H56.0613L55.4602 150.21H58.2357ZM58.8368 147.751L58.1775 150.448H62.0706L62.7298 147.751L63.3891 145.055H59.496L58.8368 147.751ZM62.7298 147.751H59.9543L59.1961 150.852H61.9716H64.7471L65.5053 147.751H62.7298ZM75.1153 152.025L72.816 150.974L72.7881 151.015L72.7614 151.057L75.1153 152.025ZM74.3279 152.857L72.9612 150.853L72.8953 150.9L72.8315 150.95L74.3279 152.857ZM73.2984 153.405L72.9526 150.877L72.8881 150.898L72.8241 150.922L73.2984 153.405ZM64.9283 153.405L66.6169 150.922L66.5789 150.905L66.54 150.889L64.9283 153.405ZM64.167 152.857L66.5566 150.902L66.5544 150.899L64.167 152.857ZM63.7865 152.025L60.9593 152.993L60.9656 153.034L60.9734 153.075L63.7865 152.025ZM65.8947 143.403L63.5954 142.352L63.5675 142.393L63.5408 142.435L65.8947 143.403ZM66.6821 142.571L68.1124 144.528L68.1158 144.525L66.6821 142.571ZM67.7116 142.022L67.3305 139.506V139.506L67.7116 142.022ZM76.0817 142.022L74.47 144.539L74.4847 144.545L74.4995 144.55L76.0817 142.022ZM76.843 142.571L74.4143 144.477L74.4536 144.527L74.4963 144.575L76.843 142.571ZM77.2235 143.403L74.3964 144.37L74.4027 144.412L74.4105 144.453L77.2235 143.403ZM71.9395 150.285L71.2803 152.981H74.0558L74.715 150.285H71.9395ZM73.1925 145.161H75.968L76.6272 142.465H73.8517L73.1925 145.161ZM69.0853 145.161L69.7445 142.465H66.969L66.3098 145.161H69.0853ZM67.8324 150.285H65.0568L64.3976 152.981H67.1731L67.8324 150.285ZM75.5976 150.928H72.822C72.8105 150.975 72.8007 150.998 72.7989 151.002C72.7975 151.006 72.8022 150.994 72.816 150.974L75.1153 152.025L77.4146 153.075C77.8917 152.374 78.1979 151.644 78.3731 150.928H75.5976ZM75.1153 152.025L72.7614 151.057C72.7751 151.036 72.8004 151.001 72.8392 150.96C72.8783 150.918 72.9206 150.882 72.9612 150.853L74.3279 152.857L75.6946 154.861C76.4186 154.339 77.0144 153.703 77.4691 152.993L75.1153 152.025ZM74.3279 152.857L72.8315 150.95C72.8617 150.927 72.8924 150.907 72.9192 150.893C72.9454 150.879 72.9584 150.875 72.9526 150.877L73.2984 153.405L73.6442 155.933C74.4038 155.682 75.1446 155.297 75.8243 154.763L74.3279 152.857ZM73.2984 153.405L72.8241 150.922C72.8318 150.919 72.8385 150.917 72.8437 150.916C72.849 150.914 72.8516 150.914 72.8512 150.914C72.8509 150.914 72.8338 150.917 72.7973 150.917L72.138 153.613L71.4788 156.309C72.216 156.309 72.9894 156.181 73.7727 155.888L73.2984 153.405ZM72.138 153.613L72.7973 150.917H66.6657L66.0064 153.613L65.3472 156.309H71.4788L72.138 153.613ZM66.0064 153.613L66.6657 150.917C66.6172 150.917 66.5942 150.913 66.5903 150.912C66.5871 150.912 66.5981 150.913 66.6169 150.922L64.9283 153.405L63.2397 155.888C63.8895 156.185 64.6098 156.309 65.3472 156.309L66.0064 153.613ZM64.9283 153.405L66.54 150.889C66.5377 150.888 66.5377 150.888 66.5392 150.888C66.5407 150.889 66.5431 150.891 66.5459 150.893C66.5487 150.895 66.5513 150.897 66.5534 150.899C66.5544 150.9 66.5552 150.901 66.5558 150.901C66.5563 150.902 66.5566 150.902 66.5566 150.902L64.167 152.857L61.7774 154.811C62.185 155.297 62.7042 155.67 63.3167 155.921L64.9283 153.405ZM64.167 152.857L66.5544 150.899C66.5723 150.921 66.5851 150.942 66.5931 150.96C66.601 150.977 66.6013 150.984 66.5995 150.974L63.7865 152.025L60.9734 153.075C61.0962 153.718 61.3567 154.312 61.7796 154.814L64.167 152.857ZM63.7865 152.025L66.6136 151.057C66.6172 151.08 66.6059 151.049 66.6355 150.928H63.86H61.0844C60.9168 151.614 60.8565 152.314 60.9593 152.993L63.7865 152.025ZM63.86 150.928H66.6355L68.212 144.48H65.4365H62.661L61.0844 150.928H63.86ZM65.4365 144.48H68.212C68.2243 144.43 68.236 144.399 68.2426 144.384C68.2489 144.369 68.2516 144.366 68.2486 144.37L65.8947 143.403L63.5408 142.435C63.112 143.104 62.8284 143.796 62.661 144.48H65.4365ZM65.8947 143.403L68.194 144.453C68.2005 144.443 68.1968 144.45 68.1805 144.468C68.1639 144.485 68.1406 144.507 68.1124 144.528L66.6821 142.571L65.2518 140.613C64.5833 141.115 64.0326 141.709 63.5954 142.352L65.8947 143.403ZM66.6821 142.571L68.1158 144.525C68.1158 144.525 68.1154 144.525 68.1146 144.526C68.1137 144.527 68.1126 144.527 68.1111 144.528C68.108 144.53 68.1044 144.532 68.1006 144.535C68.0967 144.537 68.0936 144.538 68.0917 144.539C68.0898 144.54 68.09 144.539 68.0926 144.539L67.7116 142.022L67.3305 139.506C66.5949 139.758 65.8935 140.13 65.2484 140.616L66.6821 142.571ZM67.7116 142.022L68.0926 144.539C68.0663 144.548 68.1029 144.529 68.2276 144.529L68.8868 141.833L69.546 139.137C68.8401 139.137 68.0933 139.245 67.3305 139.506L67.7116 142.022ZM68.8868 141.833L68.2276 144.529H74.3591L75.0184 141.833L75.6776 139.137H69.546L68.8868 141.833ZM75.0184 141.833L74.3591 144.529C74.4108 144.529 74.4419 144.533 74.457 144.536C74.4716 144.539 74.4744 144.54 74.47 144.539L76.0817 142.022L77.6933 139.506C77.067 139.248 76.3822 139.137 75.6776 139.137L75.0184 141.833ZM76.0817 142.022L74.4995 144.55C74.5043 144.552 74.4932 144.548 74.4738 144.535C74.454 144.52 74.4329 144.501 74.4143 144.477L76.843 142.571L79.2717 140.664C78.8529 140.131 78.3006 139.745 77.6638 139.494L76.0817 142.022ZM76.843 142.571L74.4963 144.575C74.47 144.545 74.4455 144.509 74.4266 144.468C74.4078 144.427 74.3996 144.392 74.3964 144.37L77.2235 143.403L80.0507 142.435C79.9432 141.725 79.6587 141.088 79.1897 140.567L76.843 142.571ZM77.2235 143.403L74.4105 144.453C74.4092 144.446 74.4085 144.44 74.4082 144.435C74.4079 144.431 74.408 144.428 74.408 144.429C74.408 144.429 74.4073 144.445 74.3986 144.48H77.1741H79.9496C80.1247 143.764 80.1686 143.043 80.0365 142.352L77.2235 143.403ZM77.1741 144.48H74.3986L72.822 150.928H75.5976H78.3731L79.9496 144.48H77.1741ZM71.9395 150.285H74.715L75.968 145.161H73.1925H70.417L69.164 150.285H71.9395ZM73.1925 145.161L73.8517 142.465H69.7445L69.0853 145.161L68.426 147.857H72.5332L73.1925 145.161ZM69.0853 145.161H66.3098L65.0568 150.285H67.8324H70.6079L71.8608 145.161H69.0853ZM67.8324 150.285L67.1731 152.981H71.2803L71.9395 150.285L72.5988 147.589H68.4916L67.8324 150.285ZM88.7647 152.025L86.4654 150.974L86.4375 151.015L86.4109 151.057L88.7647 152.025ZM87.9774 152.857L86.6106 150.853L86.5448 150.9L86.4809 150.95L87.9774 152.857ZM86.9479 153.405L86.6021 150.877L86.5376 150.898L86.4735 150.922L86.9479 153.405ZM78.5778 153.405L80.2664 150.922L80.2283 150.905L80.1894 150.889L78.5778 153.405ZM77.8164 152.857L80.206 150.902L80.2039 150.899L77.8164 152.857ZM77.4359 152.025L74.6087 152.993L74.6151 153.034L74.6229 153.075L77.4359 152.025ZM79.7332 141.833L80.3925 139.137H77.617L76.9577 141.833H79.7332ZM83.5484 141.833H86.324L86.9832 139.137H84.2077L83.5484 141.833ZM81.4818 150.285H78.7063L78.0471 152.981H80.8226L81.4818 150.285ZM85.589 150.285L84.9298 152.981H87.7053L88.3645 150.285H85.589ZM87.6556 141.833L88.3149 139.137H85.5393L84.8801 141.833H87.6556ZM91.4708 141.833H94.2463L94.9056 139.137H92.1301L91.4708 141.833ZM89.247 150.928H86.4715C86.46 150.975 86.4502 150.998 86.4484 151.002C86.447 151.006 86.4517 150.994 86.4654 150.974L88.7647 152.025L91.064 153.075C91.5412 152.374 91.8474 151.644 92.0225 150.928H89.247ZM88.7647 152.025L86.4109 151.057C86.4246 151.036 86.4498 151.001 86.4886 150.96C86.5277 150.918 86.5701 150.882 86.6106 150.853L87.9774 152.857L89.3441 154.861C90.068 154.339 90.6639 153.703 91.1186 152.993L88.7647 152.025ZM87.9774 152.857L86.4809 150.95C86.5111 150.927 86.5418 150.907 86.5686 150.893C86.5948 150.879 86.6079 150.875 86.6021 150.877L86.9479 153.405L87.2937 155.933C88.0533 155.682 88.794 155.297 89.4738 154.763L87.9774 152.857ZM86.9479 153.405L86.4735 150.922C86.4812 150.919 86.4879 150.917 86.4932 150.916C86.4984 150.914 86.5011 150.914 86.5007 150.914C86.5003 150.914 86.4832 150.917 86.4467 150.917L85.7875 153.613L85.1283 156.309C85.8654 156.309 86.6389 156.181 87.4222 155.888L86.9479 153.405ZM85.7875 153.613L86.4467 150.917H80.3151L79.6559 153.613L78.9967 156.309H85.1283L85.7875 153.613ZM79.6559 153.613L80.3151 150.917C80.2666 150.917 80.2437 150.913 80.2398 150.912C80.2366 150.912 80.2476 150.913 80.2664 150.922L78.5778 153.405L76.8892 155.888C77.5389 156.185 78.2593 156.309 78.9967 156.309L79.6559 153.613ZM78.5778 153.405L80.1894 150.889C80.1872 150.888 80.1871 150.888 80.1886 150.888C80.1901 150.889 80.1925 150.891 80.1954 150.893C80.1982 150.895 80.2008 150.897 80.2029 150.899C80.2039 150.9 80.2047 150.901 80.2052 150.901C80.2058 150.902 80.206 150.902 80.206 150.902L77.8164 152.857L75.4269 154.811C75.8345 155.297 76.3536 155.67 76.9661 155.921L78.5778 153.405ZM77.8164 152.857L80.2039 150.899C80.2217 150.921 80.2345 150.942 80.2426 150.96C80.2504 150.977 80.2507 150.984 80.2489 150.974L77.4359 152.025L74.6229 153.075C74.7457 153.718 75.0061 154.312 75.429 154.814L77.8164 152.857ZM77.4359 152.025L80.2631 151.057C80.2666 151.08 80.2553 151.049 80.2849 150.928H77.5094H74.7339C74.5662 151.614 74.5059 152.314 74.6087 152.993L77.4359 152.025ZM77.5094 150.928H80.2849L82.5087 141.833H79.7332H76.9577L74.7339 150.928H77.5094ZM79.7332 141.833L79.074 144.529H82.8892L83.5484 141.833L84.2077 139.137H80.3925L79.7332 141.833ZM83.5484 141.833H80.7729L78.7063 150.285H81.4818H84.2573L86.324 141.833H83.5484ZM81.4818 150.285L80.8226 152.981H84.9298L85.589 150.285L86.2482 147.589H82.141L81.4818 150.285ZM85.589 150.285H88.3645L90.4311 141.833H87.6556H84.8801L82.8135 150.285H85.589ZM87.6556 141.833L86.9964 144.529H90.8116L91.4708 141.833L92.1301 139.137H88.3149L87.6556 141.833ZM91.4708 141.833H88.6953L86.4715 150.928H89.247H92.0225L94.2463 141.833H91.4708ZM94.3547 153.613L93.6954 156.309H96.4709L97.1302 153.613H94.3547ZM90.5395 153.613H87.7639L87.1047 156.309H89.8802L90.5395 153.613ZM93.2307 143.403L90.9314 142.352L90.9035 142.393L90.8769 142.435L93.2307 143.403ZM94.0181 142.571L95.4484 144.528L95.4518 144.525L94.0181 142.571ZM95.0476 142.022L95.4286 144.539V144.539L95.0476 142.022ZM101.634 141.833H104.41L105.069 139.137H102.293L101.634 141.833ZM100.82 145.161L100.161 147.857H102.937L103.596 145.161H100.82ZM96.4213 145.161L97.0805 142.465H94.305L93.6458 145.161H96.4213ZM94.3547 153.613L95.0139 150.917H91.1987L90.5395 153.613L89.8802 156.309H93.6954L94.3547 153.613ZM90.5395 153.613H93.315L95.548 144.48H92.7725H89.997L87.7639 153.613H90.5395ZM92.7725 144.48H95.548C95.5603 144.43 95.5721 144.399 95.5786 144.384C95.5849 144.369 95.5876 144.366 95.5846 144.37L93.2307 143.403L90.8769 142.435C90.448 143.104 90.1644 143.796 89.997 144.48H92.7725ZM93.2307 143.403L95.53 144.453C95.5365 144.443 95.5328 144.45 95.5166 144.468C95.4999 144.485 95.4766 144.507 95.4484 144.528L94.0181 142.571L92.5878 140.613C91.9194 141.115 91.3686 141.709 90.9314 142.352L93.2307 143.403ZM94.0181 142.571L95.4518 144.525C95.4518 144.525 95.4514 144.525 95.4506 144.526C95.4498 144.527 95.4486 144.527 95.4471 144.528C95.444 144.53 95.4404 144.532 95.4366 144.535C95.4327 144.537 95.4297 144.538 95.4277 144.539C95.4258 144.54 95.426 144.539 95.4286 144.539L95.0476 142.022L94.6665 139.506C93.9309 139.758 93.2295 140.13 92.5844 140.616L94.0181 142.571ZM95.0476 142.022L95.4286 144.539C95.4023 144.548 95.4389 144.529 95.5636 144.529L96.2228 141.833L96.882 139.137C96.1762 139.137 95.4293 139.245 94.6665 139.506L95.0476 142.022ZM96.2228 141.833L95.5636 144.529H100.975L101.634 141.833L102.293 139.137H96.882L96.2228 141.833ZM101.634 141.833H98.8587L98.045 145.161H100.82H103.596L104.41 141.833H101.634ZM100.82 145.161L101.48 142.465H97.0805L96.4213 145.161L95.7621 147.857H100.161L100.82 145.161ZM96.4213 145.161H93.6458L91.5792 153.613H94.3547H97.1302L99.1968 145.161H96.4213ZM111.679 152.044L109.404 150.958L109.363 151.016L109.325 151.076L111.679 152.044ZM110.891 152.876L109.525 150.872L109.459 150.919L109.395 150.969L110.891 152.876ZM109.862 153.424L109.516 150.896L109.498 150.902L109.481 150.908L109.862 153.424ZM100.91 152.857L103.339 150.95V150.95L100.91 152.857ZM100.946 149.604L101.606 146.908H98.83L98.1708 149.604H100.946ZM104.762 149.604H107.537L108.196 146.908H105.421L104.762 149.604ZM104.577 150.361H101.801L101.142 153.057H103.917L104.577 150.361ZM108.489 150.361L107.83 153.057H110.605L111.265 150.361H108.489ZM108.817 149.018H111.593L112.252 146.322H109.477L108.817 149.018ZM102.006 148.375L99.5558 150.254L99.577 150.282L99.5992 150.309L102.006 148.375ZM103.518 142.589L102.022 140.683H102.022L103.518 142.589ZM112.455 142.022L110.843 144.539L110.858 144.545L110.873 144.55L112.455 142.022ZM113.216 142.571L110.788 144.477L110.827 144.527L110.87 144.575L113.216 142.571ZM113.597 143.403L110.77 144.37L110.776 144.412L110.784 144.453L113.597 143.403ZM113.238 145.747L112.579 148.443H115.354L116.013 145.747H113.238ZM109.423 145.747H106.647L105.988 148.443H108.763L109.423 145.747ZM109.584 145.085H112.36L113.019 142.389H110.244L109.584 145.085ZM105.964 145.085L106.623 142.389H103.848L103.188 145.085H105.964ZM105.654 146.352H102.879L102.219 149.048H104.995L105.654 146.352ZM112.45 146.901L110.171 148.977L110.198 149.003L110.225 149.029L112.45 146.901ZM112.156 150.966H109.381C109.369 151.013 109.361 151.032 109.363 151.027C109.364 151.024 109.367 151.017 109.374 151.004C109.381 150.992 109.391 150.976 109.404 150.958L111.679 152.044L113.954 153.129C114.45 152.418 114.757 151.68 114.932 150.966H112.156ZM111.679 152.044L109.325 151.076C109.339 151.054 109.364 151.02 109.403 150.979C109.442 150.937 109.484 150.901 109.525 150.872L110.891 152.876L112.258 154.88C112.982 154.358 113.578 153.721 114.033 153.011L111.679 152.044ZM110.891 152.876L109.395 150.969C109.425 150.945 109.456 150.926 109.483 150.912C109.509 150.898 109.522 150.894 109.516 150.896L109.862 153.424L110.208 155.952C110.967 155.701 111.708 155.316 112.388 154.782L110.891 152.876ZM109.862 153.424L109.481 150.908C109.486 150.906 109.482 150.908 109.466 150.91C109.45 150.913 109.417 150.917 109.365 150.917L108.706 153.613L108.047 156.309C108.751 156.309 109.491 156.198 110.243 155.94L109.862 153.424ZM108.706 153.613L109.365 150.917H103.428L102.769 153.613L102.11 156.309H108.047L108.706 153.613ZM102.769 153.613L103.428 150.917C103.292 150.917 103.257 150.897 103.276 150.904C103.284 150.908 103.298 150.915 103.313 150.926C103.327 150.937 103.336 150.946 103.339 150.95L100.91 152.857L98.4815 154.763C99.334 155.849 100.649 156.309 102.11 156.309L102.769 153.613ZM100.91 152.857L103.339 150.95C103.347 150.961 103.358 150.978 103.367 150.999C103.376 151.021 103.38 151.039 103.382 151.05C103.385 151.071 103.373 151.031 103.407 150.89H100.632H97.8564C97.5148 152.287 97.6285 153.676 98.4815 154.763L100.91 152.857ZM100.632 150.89H103.407L103.722 149.604H100.946H98.1708L97.8564 150.89H100.632ZM100.946 149.604L100.287 152.301H104.102L104.762 149.604L105.421 146.908H101.606L100.946 149.604ZM104.762 149.604H101.986L101.801 150.361H104.577H107.352L107.537 149.604H104.762ZM104.577 150.361L103.917 153.057H107.83L108.489 150.361L109.148 147.665H105.236L104.577 150.361ZM108.489 150.361H111.265L111.593 149.018H108.817H106.042L105.714 150.361H108.489ZM108.817 149.018L109.477 146.322H104.455L103.795 149.018L103.136 151.714H108.158L108.817 149.018ZM103.795 149.018L104.455 146.322C104.269 146.322 104.214 146.298 104.233 146.305C104.244 146.309 104.272 146.321 104.308 146.345C104.344 146.369 104.38 146.402 104.413 146.442L102.006 148.375L99.5992 150.309C100.465 151.371 101.817 151.714 103.136 151.714L103.795 149.018ZM102.006 148.375L104.456 146.497C104.487 146.538 104.51 146.581 104.525 146.622C104.54 146.662 104.545 146.692 104.546 146.704C104.548 146.724 104.538 146.665 104.582 146.485H101.806H99.031C98.7177 147.766 98.7297 149.161 99.5558 150.254L102.006 148.375ZM101.806 146.485H104.582L105.054 144.556H102.278H99.5026L99.031 146.485H101.806ZM102.278 144.556H105.054C105.088 144.415 105.119 144.375 105.106 144.396C105.099 144.407 105.086 144.425 105.066 144.447C105.047 144.469 105.028 144.485 105.014 144.496L103.518 142.589L102.022 140.683C100.637 141.77 99.8441 143.159 99.5026 144.556H102.278ZM103.518 142.589L105.014 144.496C105.009 144.5 104.996 144.51 104.976 144.52C104.956 144.531 104.939 144.538 104.929 144.542C104.907 144.549 104.951 144.529 105.088 144.529L105.747 141.833L106.406 139.137C104.945 139.137 103.405 139.597 102.022 140.683L103.518 142.589ZM105.747 141.833L105.088 144.529H110.733L111.392 141.833L112.051 139.137H106.406L105.747 141.833ZM111.392 141.833L110.733 144.529C110.784 144.529 110.815 144.533 110.83 144.536C110.845 144.539 110.848 144.54 110.843 144.539L112.455 142.022L114.067 139.506C113.44 139.248 112.756 139.137 112.051 139.137L111.392 141.833ZM112.455 142.022L110.873 144.55C110.878 144.552 110.867 144.548 110.847 144.535C110.827 144.52 110.806 144.501 110.788 144.477L113.216 142.571L115.645 140.664C115.226 140.131 114.674 139.745 114.037 139.494L112.455 142.022ZM113.216 142.571L110.87 144.575C110.843 144.545 110.819 144.509 110.8 144.468C110.781 144.427 110.773 144.392 110.77 144.37L113.597 143.403L116.424 142.435C116.317 141.725 116.032 141.088 115.563 140.567L113.216 142.571ZM113.597 143.403L110.784 144.453C110.783 144.446 110.782 144.44 110.782 144.435C110.781 144.431 110.781 144.428 110.781 144.429C110.781 144.429 110.781 144.445 110.772 144.48H113.548H116.323C116.498 143.764 116.542 143.043 116.41 142.352L113.597 143.403ZM113.548 144.48H110.772L110.462 145.747H113.238H116.013L116.323 144.48H113.548ZM113.238 145.747L113.897 143.051H110.082L109.423 145.747L108.763 148.443H112.579L113.238 145.747ZM109.423 145.747H112.198L112.36 145.085H109.584H106.809L106.647 145.747H109.423ZM109.584 145.085L110.244 142.389H106.623L105.964 145.085L105.305 147.781H108.925L109.584 145.085ZM105.964 145.085H103.188L102.879 146.352H105.654H108.43L108.739 145.085H105.964ZM105.654 146.352L104.995 149.048H110.017L110.676 146.352L111.335 143.656H106.313L105.654 146.352ZM110.676 146.352L110.017 149.048C110.218 149.048 110.303 149.071 110.313 149.075C110.316 149.076 110.3 149.071 110.272 149.055C110.243 149.038 110.207 149.013 110.171 148.977L112.45 146.901L114.728 144.825C113.833 143.928 112.552 143.656 111.335 143.656L110.676 146.352ZM112.45 146.901L110.225 149.029C110.156 148.964 110.098 148.887 110.054 148.803C110.012 148.719 109.991 148.643 109.982 148.587C109.965 148.482 109.991 148.471 109.954 148.621H112.73H115.505C115.82 147.333 115.797 145.813 114.674 144.772L112.45 146.901ZM112.73 148.621H109.954L109.381 150.966H112.156H114.932L115.505 148.621H112.73ZM124.28 152.857L122.814 150.926L122.783 150.95L122.753 150.975L124.28 152.857ZM115.051 153.424L116.662 150.908L116.662 150.908L115.051 153.424ZM114.289 152.876L116.679 150.921L116.677 150.918L114.289 152.876ZM113.909 152.044L111.087 153.045L111.091 153.07L111.096 153.094L113.909 152.044ZM116.022 143.403L113.722 142.352L113.695 142.393L113.668 142.435L116.022 143.403ZM116.809 142.571L118.239 144.528L118.243 144.525L116.809 142.571ZM117.839 142.022L117.458 139.506V139.506L117.839 142.022ZM126.985 142.589L124.537 144.472L124.556 144.496L124.575 144.52L126.985 142.589ZM125.649 148.451L127.145 150.357L127.145 150.357L125.649 148.451ZM118.251 149.094L118.91 146.398H116.134L115.475 149.094H118.251ZM117.941 150.361H115.165L114.506 153.057H117.282L117.941 150.361ZM121.853 150.361L121.194 153.057H123.97L124.629 150.361H121.853ZM122.025 149.661L122.684 146.965H119.908L119.249 149.661H122.025ZM125.84 149.661H128.615L129.274 146.965H126.499L125.84 149.661ZM123.01 146.428L122.351 149.124H125.126L125.785 146.428H123.01ZM123.338 145.085H126.114L126.773 142.389H123.997L123.338 145.085ZM119.231 145.085L119.89 142.389H117.115L116.455 145.085H119.231ZM118.903 146.428H116.127L115.468 149.124H118.243L118.903 146.428ZM125.539 150.89H122.764C122.731 151.023 122.702 151.056 122.72 151.028C122.729 151.015 122.743 150.995 122.764 150.973C122.784 150.951 122.803 150.935 122.814 150.926L124.28 152.857L125.745 154.787C127.153 153.705 127.968 152.307 128.315 150.89H125.539ZM124.28 152.857L122.753 150.975C122.764 150.965 122.784 150.951 122.81 150.937C122.837 150.922 122.859 150.913 122.874 150.908C122.906 150.897 122.867 150.917 122.73 150.917L122.07 153.613L121.411 156.309C122.87 156.309 124.421 155.849 125.807 154.739L124.28 152.857ZM122.07 153.613L122.73 150.917H116.793L116.133 153.613L115.474 156.309H121.411L122.07 153.613ZM116.133 153.613L116.793 150.917C116.668 150.917 116.64 150.899 116.662 150.908L115.051 153.424L113.439 155.94C114.074 156.201 114.768 156.309 115.474 156.309L116.133 153.613ZM115.051 153.424L116.662 150.908C116.66 150.907 116.66 150.906 116.662 150.907C116.663 150.908 116.665 150.91 116.668 150.912C116.671 150.914 116.674 150.916 116.676 150.918C116.677 150.919 116.678 150.919 116.678 150.92C116.679 150.921 116.679 150.921 116.679 150.921L114.289 152.876L111.9 154.83C112.307 155.316 112.827 155.688 113.439 155.94L115.051 153.424ZM114.289 152.876L116.677 150.918C116.695 150.94 116.707 150.961 116.716 150.979C116.723 150.996 116.724 151.003 116.722 150.993L113.909 152.044L111.096 153.094C111.219 153.737 111.479 154.331 111.902 154.833L114.289 152.876ZM113.909 152.044L116.731 151.042C116.74 151.1 116.723 151.09 116.753 150.966H113.978H111.202C111.035 151.649 110.972 152.357 111.087 153.045L113.909 152.044ZM113.978 150.966H116.753L118.339 144.48H115.564H112.788L111.202 150.966H113.978ZM115.564 144.48H118.339C118.351 144.43 118.363 144.399 118.37 144.384C118.376 144.369 118.379 144.366 118.376 144.37L116.022 143.403L113.668 142.435C113.239 143.104 112.955 143.796 112.788 144.48H115.564ZM116.022 143.403L118.321 144.453C118.328 144.443 118.324 144.45 118.308 144.468C118.291 144.485 118.268 144.507 118.239 144.528L116.809 142.571L115.379 140.613C114.71 141.115 114.16 141.709 113.722 142.352L116.022 143.403ZM116.809 142.571L118.243 144.525C118.243 144.525 118.242 144.525 118.242 144.526C118.241 144.527 118.24 144.527 118.238 144.528C118.235 144.53 118.231 144.532 118.228 144.535C118.224 144.537 118.221 144.538 118.219 144.539C118.217 144.54 118.217 144.539 118.22 144.539L117.839 142.022L117.458 139.506C116.722 139.758 116.021 140.13 115.375 140.616L116.809 142.571ZM117.839 142.022L118.22 144.539C118.193 144.548 118.23 144.529 118.355 144.529L119.014 141.833L119.673 139.137C118.967 139.137 118.22 139.245 117.458 139.506L117.839 142.022ZM119.014 141.833L118.355 144.529H124.486L125.145 141.833L125.805 139.137H119.673L119.014 141.833ZM125.145 141.833L124.486 144.529C124.623 144.529 124.652 144.549 124.626 144.539C124.614 144.534 124.596 144.524 124.576 144.509C124.557 144.495 124.544 144.481 124.537 144.472L126.985 142.589L129.432 140.707C128.589 139.597 127.264 139.137 125.805 139.137L125.145 141.833ZM126.985 142.589L124.575 144.52C124.568 144.511 124.557 144.495 124.548 144.473C124.538 144.451 124.533 144.431 124.531 144.418C124.527 144.39 124.54 144.423 124.507 144.556H127.283H130.058C130.405 143.139 130.273 141.742 129.394 140.659L126.985 142.589ZM127.283 144.556H124.507L124.017 146.56H126.793H129.568L130.058 144.556H127.283ZM126.793 146.56H124.017C123.975 146.733 123.938 146.784 123.955 146.757C123.964 146.741 123.985 146.709 124.022 146.668C124.059 146.626 124.103 146.583 124.153 146.545L125.649 148.451L127.145 150.357C128.535 149.267 129.25 147.862 129.568 146.56H126.793ZM125.649 148.451L124.153 146.545C124.212 146.498 124.272 146.46 124.327 146.431C124.382 146.403 124.422 146.389 124.44 146.383C124.472 146.373 124.41 146.398 124.224 146.398L123.565 149.094L122.905 151.79C124.219 151.79 125.755 151.449 127.145 150.357L125.649 148.451ZM123.565 149.094L124.224 146.398H118.91L118.251 149.094L117.591 151.79H122.905L123.565 149.094ZM118.251 149.094H115.475L115.165 150.361H117.941H120.716L121.026 149.094H118.251ZM117.941 150.361L117.282 153.057H121.194L121.853 150.361L122.513 147.665H118.6L117.941 150.361ZM121.853 150.361H124.629L124.8 149.661H122.025H119.249L119.078 150.361H121.853ZM122.025 149.661L121.365 152.357H125.18L125.84 149.661L126.499 146.965H122.684L122.025 149.661ZM125.84 149.661H123.064L122.764 150.89H125.539H128.315L128.615 149.661H125.84ZM123.01 146.428H125.785L126.114 145.085H123.338H120.562L120.234 146.428H123.01ZM123.338 145.085L123.997 142.389H119.89L119.231 145.085L118.572 147.781H122.679L123.338 145.085ZM119.231 145.085H116.455L116.127 146.428H118.903H121.678L122.006 145.085H119.231ZM118.903 146.428L118.243 149.124H122.351L123.01 146.428L123.669 143.732H119.562L118.903 146.428Z" fill="white" mask="url(#path-12-outside-2_59_1101)"/>
</svg>
