<svg width="108" height="108" viewBox="0 0 108 108" fill="none" xmlns="http://www.w3.org/2000/svg">
<circle cx="54.1056" cy="54.1047" r="47.9406" fill="white" stroke="black" stroke-width="2.62937"/>
<circle cx="54.1057" cy="54.1057" r="42.9983" fill="black"/>
<circle cx="54.1057" cy="54.1067" r="37.5638" fill="black" stroke="#35FCFF" stroke-width="0.98426"/>
<path d="M62.6526 23.3824L55.7791 39.0325C55.5323 39.5944 55.0257 39.9996 54.4233 40.1169L20.6476 46.6943C19.7684 46.8655 19.1338 47.6356 19.1338 48.5313V70.8346C19.1338 71.8682 19.9717 72.7062 21.0053 72.7062H84.8041C85.8378 72.7062 86.6757 71.8682 86.6757 70.8346V40.7083C86.6757 40.5712 86.6606 40.4345 86.6308 40.3006L83.1015 24.4896C82.7125 22.7469 80.3365 22.4869 79.5797 24.1042L74.0766 35.8657C73.3719 37.3719 71.1996 37.2796 70.6251 35.7191L66.1225 23.4884C65.5406 21.9077 63.33 21.8402 62.6526 23.3824Z" fill="#35FCFF" stroke="black" stroke-width="2.99449"/>
<circle cx="61.543" cy="50.5792" r="5.61627" fill="white" stroke="black" stroke-width="2.24651"/>
<circle cx="72.7745" cy="50.5792" r="5.61627" fill="white" stroke="black" stroke-width="2.24651"/>
<circle cx="76.0651" cy="49.6969" r="1.84535" fill="black"/>
<circle cx="64.5114" cy="49.6969" r="1.84535" fill="black"/>
<mask id="path-9-outside-1_91_2458" maskUnits="userSpaceOnUse" x="29.7952" y="65.5833" width="50.2753" height="17.4849" fill="black">
<rect fill="white" x="29.7952" y="65.5833" width="50.2753" height="17.4849"/>
<path d="M43.0338 76.3792H36.4461L35.4328 80.5235H32.2958L34.7434 70.5133C34.9049 69.8531 35.2444 69.3198 35.762 68.9135C36.2926 68.4971 36.8977 68.2888 37.5774 68.2888H45.561L44.8904 71.0313H37.7538L37.1242 73.6062H43.7119L43.0338 76.3792ZM49.4336 70.1781H46.3594L46.9517 67.7556H50.026L49.4336 70.1781ZM46.904 80.5235H43.8298L46.1507 71.0313H49.225L46.904 80.5235ZM51.6349 80.5235H48.5607L50.36 73.1644C50.437 72.8495 50.5601 72.56 50.7292 72.2959C50.9088 72.0318 51.1203 71.8084 51.3637 71.6256C51.62 71.4326 51.8965 71.2853 52.1933 71.1837C52.49 71.0821 52.8056 71.0313 53.1402 71.0313H57.5007L56.845 73.7129H53.3002L51.6349 80.5235ZM65.9793 78.3904C65.8999 78.7154 65.7716 79.0049 65.5945 79.2589C65.4253 79.5229 65.2138 79.7464 64.96 79.9292C64.7141 80.1222 64.4376 80.2695 64.1304 80.3711C63.8337 80.4727 63.5233 80.5235 63.1991 80.5235H58.4152C57.7355 80.5235 57.2362 80.3203 56.9173 79.914C56.6064 79.5179 56.5316 78.9897 56.6931 78.3295L56.9464 77.2934H60.0206L59.8716 77.9028H63.0243L63.2888 76.8211H59.2421C58.5624 76.8211 58.0818 76.6484 57.8003 76.303C57.5317 75.9475 57.4781 75.4397 57.6395 74.7794L58.0195 73.2253C58.1809 72.5651 58.514 72.0369 59.0187 71.6408C59.5363 71.2345 60.1349 71.0313 60.8146 71.0313H65.3632C65.6874 71.0313 65.973 71.0821 66.22 71.1837C66.4775 71.2853 66.682 71.4326 66.8335 71.6256C66.9979 71.8084 67.1001 72.0318 67.1401 72.2959C67.1906 72.56 67.1773 72.8495 67.1003 73.1644L66.8507 74.1852H63.7765L63.9069 73.652H60.9894L60.7398 74.6728H64.7866C65.4453 74.6728 65.9217 74.8201 66.2157 75.1146C66.5226 75.399 66.5978 75.8612 66.4413 76.5011L65.9793 78.3904ZM73.6072 80.5235H70.4859C70.1513 80.5235 69.8605 80.4727 69.6135 80.3711C69.3664 80.2695 69.1619 80.1222 69 79.9292C68.846 79.7464 68.7438 79.5229 68.6934 79.2589C68.6509 79.0049 68.6694 78.7154 68.7489 78.3904L69.8926 73.7129H68.1515L68.8072 71.0313H70.5482L71.2188 68.2888H74.2931L73.6225 71.0313H75.9282L75.2725 73.7129H72.9668L71.9125 78.0247H74.2182L73.6072 80.5235Z"/>
</mask>
<path d="M43.0338 76.3792H36.4461L35.4328 80.5235H32.2958L34.7434 70.5133C34.9049 69.8531 35.2444 69.3198 35.762 68.9135C36.2926 68.4971 36.8977 68.2888 37.5774 68.2888H45.561L44.8904 71.0313H37.7538L37.1242 73.6062H43.7119L43.0338 76.3792ZM49.4336 70.1781H46.3594L46.9517 67.7556H50.026L49.4336 70.1781ZM46.904 80.5235H43.8298L46.1507 71.0313H49.225L46.904 80.5235ZM51.6349 80.5235H48.5607L50.36 73.1644C50.437 72.8495 50.5601 72.56 50.7292 72.2959C50.9088 72.0318 51.1203 71.8084 51.3637 71.6256C51.62 71.4326 51.8965 71.2853 52.1933 71.1837C52.49 71.0821 52.8056 71.0313 53.1402 71.0313H57.5007L56.845 73.7129H53.3002L51.6349 80.5235ZM65.9793 78.3904C65.8999 78.7154 65.7716 79.0049 65.5945 79.2589C65.4253 79.5229 65.2138 79.7464 64.96 79.9292C64.7141 80.1222 64.4376 80.2695 64.1304 80.3711C63.8337 80.4727 63.5233 80.5235 63.1991 80.5235H58.4152C57.7355 80.5235 57.2362 80.3203 56.9173 79.914C56.6064 79.5179 56.5316 78.9897 56.6931 78.3295L56.9464 77.2934H60.0206L59.8716 77.9028H63.0243L63.2888 76.8211H59.2421C58.5624 76.8211 58.0818 76.6484 57.8003 76.303C57.5317 75.9475 57.4781 75.4397 57.6395 74.7794L58.0195 73.2253C58.1809 72.5651 58.514 72.0369 59.0187 71.6408C59.5363 71.2345 60.1349 71.0313 60.8146 71.0313H65.3632C65.6874 71.0313 65.973 71.0821 66.22 71.1837C66.4775 71.2853 66.682 71.4326 66.8335 71.6256C66.9979 71.8084 67.1001 72.0318 67.1401 72.2959C67.1906 72.56 67.1773 72.8495 67.1003 73.1644L66.8507 74.1852H63.7765L63.9069 73.652H60.9894L60.7398 74.6728H64.7866C65.4453 74.6728 65.9217 74.8201 66.2157 75.1146C66.5226 75.399 66.5978 75.8612 66.4413 76.5011L65.9793 78.3904ZM73.6072 80.5235H70.4859C70.1513 80.5235 69.8605 80.4727 69.6135 80.3711C69.3664 80.2695 69.1619 80.1222 69 79.9292C68.846 79.7464 68.7438 79.5229 68.6934 79.2589C68.6509 79.0049 68.6694 78.7154 68.7489 78.3904L69.8926 73.7129H68.1515L68.8072 71.0313H70.5482L71.2188 68.2888H74.2931L73.6225 71.0313H75.9282L75.2725 73.7129H72.9668L71.9125 78.0247H74.2182L73.6072 80.5235Z" fill="black"/>
<path d="M43.0338 76.3792L42.6005 78.1515H44.4249L44.8583 76.3792H43.0338ZM36.4461 76.3792L36.8795 74.607H35.055L34.6217 76.3792H36.4461ZM35.4328 80.5235L34.9995 82.2957H36.8239L37.2573 80.5235H35.4328ZM32.2958 80.5235H30.4714L30.038 82.2957H31.8625L32.2958 80.5235ZM35.762 68.9135L34.7783 67.6604L34.7783 67.6604L35.762 68.9135ZM45.561 68.2888H47.3855L47.8188 66.5166H45.9943L45.561 68.2888ZM44.8904 71.0313L44.4571 72.8036H46.2815L46.7149 71.0313H44.8904ZM37.7538 71.0313L38.1871 69.2591H36.3626L35.9293 71.0313H37.7538ZM37.1242 73.6062H35.2997L34.8664 75.3785H36.6908L37.1242 73.6062ZM43.7119 73.6062H45.5363L45.9697 71.834H44.1452L43.7119 73.6062ZM43.0338 76.3792L43.4672 74.607H36.8795L36.4461 76.3792L36.0128 78.1515H42.6005L43.0338 76.3792ZM36.4461 76.3792H34.6217L33.6084 80.5235H35.4328H37.2573L38.2706 76.3792H36.4461ZM35.4328 80.5235L35.8662 78.7512H32.7292L32.2958 80.5235L31.8625 82.2957H34.9995L35.4328 80.5235ZM32.2958 80.5235H34.1203L36.5679 70.5133H34.7434H32.919L30.4714 80.5235H32.2958ZM34.7434 70.5133H36.5679C36.633 70.2471 36.7153 70.1905 36.7457 70.1667L35.762 68.9135L34.7783 67.6604C33.7734 68.4491 33.1768 69.459 32.919 70.5133H34.7434ZM35.762 68.9135L36.7457 70.1667C36.7999 70.1241 36.8842 70.0611 37.144 70.0611L37.5774 68.2888L38.0107 66.5166C36.9111 66.5166 35.7852 66.87 34.7783 67.6604L35.762 68.9135ZM37.5774 68.2888L37.144 70.0611H45.1277L45.561 68.2888L45.9943 66.5166H38.0107L37.5774 68.2888ZM45.561 68.2888H43.7365L43.066 71.0313H44.8904H46.7149L47.3855 68.2888H45.561ZM44.8904 71.0313L45.3238 69.2591H38.1871L37.7538 71.0313L37.3204 72.8036H44.4571L44.8904 71.0313ZM37.7538 71.0313H35.9293L35.2997 73.6062H37.1242H38.9486L39.5782 71.0313H37.7538ZM37.1242 73.6062L36.6908 75.3785H43.2785L43.7119 73.6062L44.1452 71.834H37.5575L37.1242 73.6062ZM43.7119 73.6062H41.8874L41.2094 76.3792H43.0338H44.8583L45.5363 73.6062H43.7119ZM49.4336 70.1781L49.0003 71.9504H50.8247L51.2581 70.1781H49.4336ZM46.3594 70.1781H44.5349L44.1016 71.9504H45.926L46.3594 70.1781ZM46.9517 67.7556L47.385 65.9833H45.5606L45.1273 67.7556H46.9517ZM50.026 67.7556H51.8504L52.2838 65.9833H50.4593L50.026 67.7556ZM46.904 80.5235L46.4707 82.2957H48.2952L48.7285 80.5235H46.904ZM43.8298 80.5235H42.0053L41.572 82.2957H43.3965L43.8298 80.5235ZM46.1507 71.0313L46.5841 69.2591H44.7596L44.3263 71.0313H46.1507ZM49.225 71.0313H51.0495L51.4828 69.2591H49.6583L49.225 71.0313ZM49.4336 70.1781L49.867 68.4059H46.7927L46.3594 70.1781L45.926 71.9504H49.0003L49.4336 70.1781ZM46.3594 70.1781H48.1838L48.7762 67.7556H46.9517H45.1273L44.5349 70.1781H46.3594ZM46.9517 67.7556L46.5184 69.5278H49.5926L50.026 67.7556L50.4593 65.9833H47.385L46.9517 67.7556ZM50.026 67.7556H48.2015L47.6092 70.1781H49.4336H51.2581L51.8504 67.7556H50.026ZM46.904 80.5235L47.3374 78.7512H44.2631L43.8298 80.5235L43.3965 82.2957H46.4707L46.904 80.5235ZM43.8298 80.5235H45.6542L47.9752 71.0313H46.1507H44.3263L42.0053 80.5235H43.8298ZM46.1507 71.0313L45.7174 72.8036H48.7917L49.225 71.0313L49.6583 69.2591H46.5841L46.1507 71.0313ZM49.225 71.0313H47.4005L45.0796 80.5235H46.904H48.7285L51.0495 71.0313H49.225ZM51.6349 80.5235L51.2016 82.2957H53.026L53.4594 80.5235H51.6349ZM48.5607 80.5235H46.7362L46.3029 82.2957H48.1273L48.5607 80.5235ZM50.7292 72.2959L49.2178 71.6054L49.1995 71.6324L49.1819 71.6597L50.7292 72.2959ZM51.3637 71.6256L52.3039 72.9121L52.3061 72.9104L51.3637 71.6256ZM52.1933 71.1837L52.4437 72.8378V72.8378L52.1933 71.1837ZM57.5007 71.0313H59.3251L59.7585 69.2591H57.934L57.5007 71.0313ZM56.845 73.7129L56.4116 75.4852H58.2361L58.6694 73.7129H56.845ZM53.3002 73.7129L53.7335 71.9407H51.9091L51.4757 73.7129H53.3002ZM51.6349 80.5235L52.0682 78.7512H48.994L48.5607 80.5235L48.1273 82.2957H51.2016L51.6349 80.5235ZM48.5607 80.5235H50.3851L52.1845 73.1644H50.36H48.5356L46.7362 80.5235H48.5607ZM50.36 73.1644H52.1845C52.2143 73.0426 52.2513 72.9716 52.2765 72.9321L50.7292 72.2959L49.1819 71.6597C48.8689 72.1485 48.6598 72.6565 48.5356 73.1644H50.36ZM50.7292 72.2959L52.2407 72.9865C52.2794 72.9295 52.3014 72.914 52.3039 72.9121L51.3637 71.6256L50.4235 70.339C49.9393 70.7028 49.5383 71.1342 49.2178 71.6054L50.7292 72.2959ZM51.3637 71.6256L52.3061 72.9104C52.3475 72.8793 52.3886 72.8567 52.4437 72.8378L52.1933 71.1837L51.9428 69.5296C51.4045 69.7138 50.8926 69.9858 50.4213 70.3407L51.3637 71.6256ZM52.1933 71.1837L52.4437 72.8378C52.4811 72.825 52.5633 72.8036 52.7069 72.8036L53.1402 71.0313L53.5736 69.2591C53.0479 69.2591 52.4988 69.3392 51.9428 69.5296L52.1933 71.1837ZM53.1402 71.0313L52.7069 72.8036H57.0673L57.5007 71.0313L57.934 69.2591H53.5736L53.1402 71.0313ZM57.5007 71.0313H55.6762L55.0205 73.7129H56.845H58.6694L59.3251 71.0313H57.5007ZM56.845 73.7129L57.2783 71.9407H53.7335L53.3002 73.7129L52.8668 75.4852H56.4116L56.845 73.7129ZM53.3002 73.7129H51.4757L49.8104 80.5235H51.6349H53.4594L55.1246 73.7129H53.3002ZM65.5945 79.2589L64.099 78.5451L64.0722 78.5835L64.0472 78.6227L65.5945 79.2589ZM64.96 79.9292L64.0616 78.6119L64.0183 78.6431L63.9763 78.6761L64.96 79.9292ZM64.1304 80.3711L63.9032 78.7092L63.8915 78.713L63.88 78.717L64.1304 80.3711ZM56.9173 79.914L58.5138 78.6608V78.6608L56.9173 79.914ZM56.9464 77.2934L57.3797 75.5211H55.5553L55.1219 77.2934H56.9464ZM60.0206 77.2934H61.8451L62.2784 75.5211H60.454L60.0206 77.2934ZM59.8716 77.9028H58.0472L57.6138 79.6751H59.4383L59.8716 77.9028ZM63.0243 77.9028L62.591 79.6751H64.4154L64.8488 77.9028H63.0243ZM63.2888 76.8211H65.1133L65.5466 75.0488H63.7221L63.2888 76.8211ZM57.8003 76.303L56.1897 77.5379L56.2036 77.5563L56.2182 77.5742L57.8003 76.303ZM59.0187 71.6408L58.035 70.3876V70.3876L59.0187 71.6408ZM66.22 71.1837L65.1606 72.8378L65.1703 72.8418L65.18 72.8456L66.22 71.1837ZM66.8335 71.6256L65.237 72.8787L65.2629 72.9117L65.2909 72.9429L66.8335 71.6256ZM67.1401 72.2959L65.2817 72.9321L65.2859 72.9595L65.291 72.9865L67.1401 72.2959ZM66.8507 74.1852L66.4174 75.9575H68.2418L68.6752 74.1852H66.8507ZM63.7765 74.1852H61.952L61.5187 75.9575H63.3431L63.7765 74.1852ZM63.9069 73.652H65.7313L66.1647 71.8797H64.3402L63.9069 73.652ZM60.9894 73.652L61.4228 71.8797H59.5983L59.165 73.652H60.9894ZM60.7398 74.6728H58.9154L58.482 76.445H60.3065L60.7398 74.6728ZM66.2157 75.1146L64.7179 76.4793L64.7354 76.4968L64.7535 76.5136L66.2157 75.1146ZM65.9793 78.3904H64.1549C64.1253 78.5114 64.0947 78.5514 64.099 78.5451L65.5945 79.2589L67.0899 79.9726C67.4485 79.4585 67.6744 78.9195 67.8038 78.3904H65.9793ZM65.5945 79.2589L64.0472 78.6227C64.0436 78.6282 64.0417 78.6306 64.0417 78.6306C64.0417 78.6307 64.042 78.6303 64.0427 78.6294C64.0434 78.6286 64.0444 78.6275 64.0457 78.6261C64.0483 78.6233 64.0515 78.6203 64.0547 78.6175C64.058 78.6146 64.0605 78.6127 64.0616 78.6119L64.96 79.9292L65.8584 81.2465C66.3811 80.8701 66.8117 80.4104 67.1418 79.8951L65.5945 79.2589ZM64.96 79.9292L63.9763 78.6761C63.9735 78.6783 63.9697 78.6811 63.9618 78.6853C63.9536 78.6896 63.9352 78.6986 63.9032 78.7092L64.1304 80.3711L64.3577 82.033C64.9137 81.8492 65.4515 81.5687 65.9437 81.1824L64.96 79.9292ZM64.1304 80.3711L63.88 78.717C63.8357 78.7321 63.7579 78.7512 63.6325 78.7512L63.1991 80.5235L62.7658 82.2957C63.2887 82.2957 63.8318 82.2132 64.3809 82.0252L64.1304 80.3711ZM63.1991 80.5235L63.6325 78.7512H58.8486L58.4152 80.5235L57.9819 82.2957H62.7658L63.1991 80.5235ZM58.4152 80.5235L58.8486 78.7512C58.5745 78.7512 58.5325 78.6846 58.5138 78.6608L56.9173 79.914L55.3208 81.1672C55.94 81.956 56.8966 82.2957 57.9819 82.2957L58.4152 80.5235ZM56.9173 79.914L58.5138 78.6608C58.4998 78.6429 58.4926 78.6274 58.4885 78.5985C58.4836 78.5641 58.4801 78.4826 58.5175 78.3295H56.6931H54.8686C54.6143 79.3694 54.7028 80.3798 55.3208 81.1672L56.9173 79.914ZM56.6931 78.3295H58.5175L58.7708 77.2934H56.9464H55.1219L54.8686 78.3295H56.6931ZM56.9464 77.2934L56.513 79.0656H59.5873L60.0206 77.2934L60.454 75.5211H57.3797L56.9464 77.2934ZM60.0206 77.2934H58.1962L58.0472 77.9028H59.8716H61.6961L61.8451 77.2934H60.0206ZM59.8716 77.9028L59.4383 79.6751H62.591L63.0243 77.9028L63.4576 76.1306H60.305L59.8716 77.9028ZM63.0243 77.9028H64.8488L65.1133 76.8211H63.2888H61.4644L61.1998 77.9028H63.0243ZM63.2888 76.8211L63.7221 75.0488H59.6754L59.2421 76.8211L58.8087 78.5933H62.8555L63.2888 76.8211ZM59.2421 76.8211L59.6754 75.0488C59.491 75.0488 59.4011 75.025 59.3694 75.0136C59.345 75.0049 59.3618 75.0066 59.3823 75.0318L57.8003 76.303L56.2182 77.5742C56.8393 78.3361 57.8165 78.5933 58.8087 78.5933L59.2421 76.8211ZM57.8003 76.303L59.4108 75.0682C59.4305 75.0941 59.4282 75.1109 59.4255 75.085C59.4219 75.0516 59.4202 74.9586 59.464 74.7794H57.6395H55.815C55.5794 75.7432 55.5971 76.7536 56.1897 77.5379L57.8003 76.303ZM57.6395 74.7794H59.464L59.844 73.2253H58.0195H56.195L55.815 74.7794H57.6395ZM58.0195 73.2253H59.844C59.8814 73.0722 59.9248 72.9907 59.9465 72.9563C59.9647 72.9274 59.9795 72.9119 60.0023 72.894L59.0187 71.6408L58.035 70.3876C57.0319 71.175 56.4493 72.1854 56.195 73.2253H58.0195ZM59.0187 71.6408L60.0023 72.894C60.0327 72.8702 60.1072 72.8036 60.3813 72.8036L60.8146 71.0313L61.2479 69.2591C60.1626 69.2591 59.0399 69.5988 58.035 70.3876L59.0187 71.6408ZM60.8146 71.0313L60.3813 72.8036H64.9299L65.3632 71.0313L65.7966 69.2591H61.2479L60.8146 71.0313ZM65.3632 71.0313L64.9299 72.8036C65.0553 72.8036 65.1238 72.8227 65.1606 72.8378L66.22 71.1837L67.2794 69.5296C66.8222 69.3416 66.3195 69.2591 65.7966 69.2591L65.3632 71.0313ZM66.22 71.1837L65.18 72.8456C65.2069 72.8562 65.2209 72.8651 65.227 72.8695C65.2328 72.8737 65.2353 72.8765 65.237 72.8787L66.8335 71.6256L68.43 70.3724C68.1268 69.9861 67.7261 69.7056 67.2601 69.5218L66.22 71.1837ZM66.8335 71.6256L65.2909 72.9429C65.2902 72.9421 65.2886 72.9402 65.2868 72.9373C65.2849 72.9345 65.2832 72.9315 65.282 72.9286C65.2813 72.9273 65.2809 72.9262 65.2806 72.9254C65.2803 72.9245 65.2802 72.9241 65.2802 72.9242C65.2802 72.9242 65.2809 72.9266 65.2817 72.9321L67.1401 72.2959L68.9985 71.6597C68.9205 71.1444 68.7147 70.6847 68.3761 70.3082L66.8335 71.6256ZM67.1401 72.2959L65.291 72.9865C65.2958 73.0115 65.3006 73.0634 65.2759 73.1644H67.1003H68.9248C69.0541 72.6357 69.0854 72.1085 68.9893 71.6054L67.1401 72.2959ZM67.1003 73.1644H65.2759L65.0263 74.1852H66.8507H68.6752L68.9248 73.1644H67.1003ZM66.8507 74.1852L67.2841 72.413H64.2098L63.7765 74.1852L63.3431 75.9575H66.4174L66.8507 74.1852ZM63.7765 74.1852H65.6009L65.7313 73.652H63.9069H62.0824L61.952 74.1852H63.7765ZM63.9069 73.652L64.3402 71.8797H61.4228L60.9894 73.652L60.5561 75.4242H63.4735L63.9069 73.652ZM60.9894 73.652H59.165L58.9154 74.6728H60.7398H62.5643L62.8139 73.652H60.9894ZM60.7398 74.6728L60.3065 76.445H64.3532L64.7866 74.6728L65.2199 72.9005H61.1732L60.7398 74.6728ZM64.7866 74.6728L64.3532 76.445C64.7497 76.445 64.7724 76.5339 64.7179 76.4793L66.2157 75.1146L67.7134 73.75C67.071 73.1062 66.141 72.9005 65.2199 72.9005L64.7866 74.6728ZM66.2157 75.1146L64.7535 76.5136C64.722 76.4844 64.6952 76.4489 64.6755 76.4106C64.6562 76.3728 64.6488 76.342 64.6463 76.3265C64.642 76.2998 64.6555 76.3431 64.6168 76.5011H66.4413H68.2658C68.5017 75.5361 68.4722 74.4519 67.6778 73.7157L66.2157 75.1146ZM66.4413 76.5011H64.6168L64.1549 78.3904H65.9793H67.8038L68.2658 76.5011H66.4413ZM73.6072 80.5235L73.1739 82.2957H74.9984L75.4317 80.5235H73.6072ZM69.6135 80.3711L70.6728 78.717V78.717L69.6135 80.3711ZM69 79.9292L70.5707 78.6444L70.5693 78.6427L69 79.9292ZM68.6934 79.2589L66.8384 79.9171L66.8412 79.9333L66.8442 79.9494L68.6934 79.2589ZM69.8926 73.7129H71.717L72.1504 71.9407H70.3259L69.8926 73.7129ZM68.1515 73.7129H66.3271L65.8937 75.4852H67.7182L68.1515 73.7129ZM68.8072 71.0313L69.2405 69.2591H67.4161L66.9827 71.0313H68.8072ZM70.5482 71.0313L70.1149 72.8036H71.9394L72.3727 71.0313H70.5482ZM71.2188 68.2888L71.6522 66.5166H69.8277L69.3944 68.2888H71.2188ZM74.2931 68.2888H76.1175L76.5509 66.5166H74.7264L74.2931 68.2888ZM73.6225 71.0313H71.798L71.3647 72.8036H73.1892L73.6225 71.0313ZM75.9282 71.0313H77.7526L78.186 69.2591H76.3615L75.9282 71.0313ZM75.2725 73.7129L74.8392 75.4852H76.6636L77.097 73.7129H75.2725ZM72.9668 73.7129L73.4002 71.9407H71.5757L71.1424 73.7129H72.9668ZM71.9125 78.0247H70.0881L69.6547 79.797H71.4792L71.9125 78.0247ZM74.2182 78.0247H76.0427L76.476 76.2525H74.6515L74.2182 78.0247ZM73.6072 80.5235L74.0406 78.7512H70.9193L70.4859 80.5235L70.0526 82.2957H73.1739L73.6072 80.5235ZM70.4859 80.5235L70.9193 78.7512C70.7757 78.7512 70.7039 78.7298 70.6728 78.717L69.6135 80.3711L68.5541 82.0252C69.017 82.2156 69.5269 82.2957 70.0526 82.2957L70.4859 80.5235ZM69.6135 80.3711L70.6728 78.717C70.6269 78.6981 70.5969 78.6755 70.5707 78.6444L69 79.9292L67.4292 81.2141C67.727 81.569 68.1059 81.841 68.5541 82.0252L69.6135 80.3711ZM69 79.9292L70.5693 78.6427C70.5677 78.6408 70.5533 78.6253 70.5425 78.5683L68.6934 79.2589L66.8442 79.9494C66.9343 80.4206 67.1243 80.852 67.4306 81.2158L69 79.9292ZM68.6934 79.2589L70.5483 78.6007C70.5467 78.5915 70.5388 78.5316 70.5733 78.3904H68.7489H66.9244C66.8 78.8993 66.755 79.4183 66.8384 79.9171L68.6934 79.2589ZM68.7489 78.3904H70.5733L71.717 73.7129H69.8926H68.0681L66.9244 78.3904H68.7489ZM69.8926 73.7129L70.3259 71.9407H68.5849L68.1515 73.7129L67.7182 75.4852H69.4592L69.8926 73.7129ZM68.1515 73.7129H69.976L70.6317 71.0313H68.8072H66.9827L66.3271 73.7129H68.1515ZM68.8072 71.0313L68.3739 72.8036H70.1149L70.5482 71.0313L70.9816 69.2591H69.2405L68.8072 71.0313ZM70.5482 71.0313H72.3727L73.0433 68.2888H71.2188H69.3944L68.7238 71.0313H70.5482ZM71.2188 68.2888L70.7855 70.0611H73.8597L74.2931 68.2888L74.7264 66.5166H71.6522L71.2188 68.2888ZM74.2931 68.2888H72.4686L71.798 71.0313H73.6225H75.447L76.1175 68.2888H74.2931ZM73.6225 71.0313L73.1892 72.8036H75.4948L75.9282 71.0313L76.3615 69.2591H74.0558L73.6225 71.0313ZM75.9282 71.0313H74.1037L73.4481 73.7129H75.2725H77.097L77.7526 71.0313H75.9282ZM75.2725 73.7129L75.7058 71.9407H73.4002L72.9668 73.7129L72.5335 75.4852H74.8392L75.2725 73.7129ZM72.9668 73.7129H71.1424L70.0881 78.0247H71.9125H73.737L74.7913 73.7129H72.9668ZM71.9125 78.0247L71.4792 79.797H73.7849L74.2182 78.0247L74.6515 76.2525H72.3459L71.9125 78.0247ZM74.2182 78.0247H72.3938L71.7828 80.5235H73.6072H75.4317L76.0427 78.0247H74.2182Z" fill="white" mask="url(#path-9-outside-1_91_2458)"/>
<mask id="path-11-outside-2_91_2458" maskUnits="userSpaceOnUse" x="22.5879" y="80.8984" width="59.3252" height="13.5994" fill="black">
<rect fill="white" x="22.5879" y="80.8984" width="59.3252" height="13.5994"/>
<path d="M35.521 90.8628C35.3893 91.4014 35.1081 91.8364 34.6773 92.1678C34.253 92.5076 33.7637 92.6774 33.2092 92.6774H27.6176C27.0632 92.6774 26.6526 92.5076 26.3859 92.1678C26.1258 91.8364 26.0615 91.4014 26.1932 90.8628L27.7462 84.5114C27.8779 83.9728 28.1549 83.5378 28.5771 83.2064C29.0099 82.8666 29.5036 82.6968 30.058 82.6968H35.6496C36.2041 82.6968 36.6104 82.8666 36.8685 83.2064C37.1372 83.5378 37.2057 83.9728 37.074 84.5114L36.6273 86.3385H34.0682L34.4116 84.934H30.2019L28.8556 90.4402H33.0653L33.4604 88.8244H36.0195L35.521 90.8628ZM44.4779 90.9125C44.4131 91.1776 44.3074 91.4179 44.1609 91.6334C44.0229 91.8488 43.8504 92.0311 43.6433 92.1803C43.4428 92.3377 43.2172 92.4578 42.9666 92.5407C42.7226 92.6319 42.4683 92.6774 42.2039 92.6774H38.1733C37.9003 92.6774 37.6641 92.6319 37.4646 92.5407C37.2631 92.4578 37.0963 92.3377 36.9642 92.1803C36.8386 92.0311 36.7552 91.8488 36.714 91.6334C36.6814 91.4179 36.6975 91.1776 36.7623 90.9125L37.7987 86.6741C37.8615 86.4172 37.9619 86.1811 38.0999 85.9657C38.2464 85.7502 38.4189 85.5679 38.6174 85.4188C38.8265 85.2613 39.0521 85.1412 39.2942 85.0583C39.5362 84.9755 39.7937 84.934 40.0667 84.934H44.0972C44.3617 84.934 44.5946 84.9755 44.7962 85.0583C45.0062 85.1412 45.173 85.2613 45.2966 85.4188C45.4308 85.5679 45.5141 85.7502 45.5468 85.9657C45.5879 86.1811 45.5771 86.4172 45.5143 86.6741L44.4779 90.9125ZM42.0734 90.4899L42.897 87.1216H40.1972L39.3736 90.4899H42.0734ZM53.4503 90.9125C53.3855 91.1776 53.2798 91.4179 53.1333 91.6334C52.9953 91.8488 52.8228 92.0311 52.6157 92.1803C52.4151 92.3377 52.1896 92.4578 51.939 92.5407C51.6949 92.6319 51.4407 92.6774 51.1762 92.6774H47.1457C46.8727 92.6774 46.6365 92.6319 46.437 92.5407C46.2354 92.4578 46.0686 92.3377 45.9365 92.1803C45.8109 92.0311 45.7275 91.8488 45.6864 91.6334C45.6538 91.4179 45.6699 91.1776 45.7347 90.9125L47.1965 84.934H49.7044L48.3459 90.4899H51.0457L52.4042 84.934H54.9121L53.4503 90.9125ZM56.8078 92.6774H54.2999L55.7678 86.6741C55.8306 86.4172 55.931 86.1811 56.069 85.9657C56.2155 85.7502 56.388 85.5679 56.5865 85.4188C56.7956 85.2613 57.0212 85.1412 57.2633 85.0583C57.5053 84.9755 57.7628 84.934 58.0358 84.934H61.5929L61.058 87.1216H58.1663L56.8078 92.6774ZM68.5096 90.9373C68.4447 91.2025 68.3401 91.4386 68.1956 91.6458C68.0576 91.8612 67.8851 92.0435 67.678 92.1927C67.4774 92.3501 67.2519 92.4703 67.0013 92.5531C66.7592 92.636 66.506 92.6774 66.2416 92.6774H62.339C61.7845 92.6774 61.3772 92.5117 61.117 92.1803C60.8634 91.8571 60.8024 91.4262 60.9341 90.8876L61.1407 90.0424H63.6486L63.5271 90.5396H66.0989L66.3147 89.6571H63.0135C62.459 89.6571 62.067 89.5163 61.8373 89.2345C61.6182 88.9445 61.5745 88.5302 61.7062 87.9916L62.0162 86.7238C62.1479 86.1852 62.4195 85.7544 62.8312 85.4312C63.2535 85.0997 63.7419 84.934 64.2963 84.934H68.007C68.2714 84.934 68.5044 84.9755 68.7059 85.0583C68.916 85.1412 69.0828 85.2613 69.2064 85.4188C69.3405 85.5679 69.4239 85.7502 69.4565 85.9657C69.4977 86.1811 69.4868 86.4172 69.424 86.6741L69.2204 87.5069H66.7125L66.8189 87.0719H64.439L64.2353 87.9046H67.5365C68.0739 87.9046 68.4626 88.0248 68.7024 88.2651C68.9527 88.4971 69.0141 88.8741 68.8864 89.3961L68.5096 90.9373ZM77.3067 90.8876C77.175 91.4262 76.899 91.8571 76.4788 92.1803C76.0651 92.5117 75.581 92.6774 75.0265 92.6774H71.1239C70.8509 92.6774 70.6137 92.636 70.4122 92.5531C70.2106 92.4703 70.0438 92.3501 69.9117 92.1927C69.7861 92.0435 69.7027 91.8612 69.6616 91.6458C69.6269 91.4386 69.642 91.2025 69.7068 90.9373L70.7493 86.6741C70.8121 86.4172 70.9125 86.1811 71.0504 85.9657C71.197 85.7502 71.3695 85.5679 71.568 85.4188C71.7771 85.2613 72.0027 85.1412 72.2448 85.0583C72.4868 84.9755 72.7443 84.934 73.0173 84.934H77.0478C77.6023 84.934 78.0053 85.0997 78.257 85.4312C78.5192 85.7544 78.5844 86.1852 78.4527 86.7238L78.1306 88.0413C77.9989 88.5799 77.7483 88.9942 77.3788 89.2843C77.0199 89.566 76.5632 89.7068 76.0088 89.7068H72.5156L72.312 90.5396H74.8839L74.9963 90.0797H77.5042L77.3067 90.8876ZM75.644 87.9543L75.8597 87.0719H73.1599L72.9441 87.9543H75.644Z"/>
</mask>
<path d="M35.521 90.8628C35.3893 91.4014 35.1081 91.8364 34.6773 92.1678C34.253 92.5076 33.7637 92.6774 33.2092 92.6774H27.6176C27.0632 92.6774 26.6526 92.5076 26.3859 92.1678C26.1258 91.8364 26.0615 91.4014 26.1932 90.8628L27.7462 84.5114C27.8779 83.9728 28.1549 83.5378 28.5771 83.2064C29.0099 82.8666 29.5036 82.6968 30.058 82.6968H35.6496C36.2041 82.6968 36.6104 82.8666 36.8685 83.2064C37.1372 83.5378 37.2057 83.9728 37.074 84.5114L36.6273 86.3385H34.0682L34.4116 84.934H30.2019L28.8556 90.4402H33.0653L33.4604 88.8244H36.0195L35.521 90.8628ZM44.4779 90.9125C44.4131 91.1776 44.3074 91.4179 44.1609 91.6334C44.0229 91.8488 43.8504 92.0311 43.6433 92.1803C43.4428 92.3377 43.2172 92.4578 42.9666 92.5407C42.7226 92.6319 42.4683 92.6774 42.2039 92.6774H38.1733C37.9003 92.6774 37.6641 92.6319 37.4646 92.5407C37.2631 92.4578 37.0963 92.3377 36.9642 92.1803C36.8386 92.0311 36.7552 91.8488 36.714 91.6334C36.6814 91.4179 36.6975 91.1776 36.7623 90.9125L37.7987 86.6741C37.8615 86.4172 37.9619 86.1811 38.0999 85.9657C38.2464 85.7502 38.4189 85.5679 38.6174 85.4188C38.8265 85.2613 39.0521 85.1412 39.2942 85.0583C39.5362 84.9755 39.7937 84.934 40.0667 84.934H44.0972C44.3617 84.934 44.5946 84.9755 44.7962 85.0583C45.0062 85.1412 45.173 85.2613 45.2966 85.4188C45.4308 85.5679 45.5141 85.7502 45.5468 85.9657C45.5879 86.1811 45.5771 86.4172 45.5143 86.6741L44.4779 90.9125ZM42.0734 90.4899L42.897 87.1216H40.1972L39.3736 90.4899H42.0734ZM53.4503 90.9125C53.3855 91.1776 53.2798 91.4179 53.1333 91.6334C52.9953 91.8488 52.8228 92.0311 52.6157 92.1803C52.4151 92.3377 52.1896 92.4578 51.939 92.5407C51.6949 92.6319 51.4407 92.6774 51.1762 92.6774H47.1457C46.8727 92.6774 46.6365 92.6319 46.437 92.5407C46.2354 92.4578 46.0686 92.3377 45.9365 92.1803C45.8109 92.0311 45.7275 91.8488 45.6864 91.6334C45.6538 91.4179 45.6699 91.1776 45.7347 90.9125L47.1965 84.934H49.7044L48.3459 90.4899H51.0457L52.4042 84.934H54.9121L53.4503 90.9125ZM56.8078 92.6774H54.2999L55.7678 86.6741C55.8306 86.4172 55.931 86.1811 56.069 85.9657C56.2155 85.7502 56.388 85.5679 56.5865 85.4188C56.7956 85.2613 57.0212 85.1412 57.2633 85.0583C57.5053 84.9755 57.7628 84.934 58.0358 84.934H61.5929L61.058 87.1216H58.1663L56.8078 92.6774ZM68.5096 90.9373C68.4447 91.2025 68.3401 91.4386 68.1956 91.6458C68.0576 91.8612 67.8851 92.0435 67.678 92.1927C67.4774 92.3501 67.2519 92.4703 67.0013 92.5531C66.7592 92.636 66.506 92.6774 66.2416 92.6774H62.339C61.7845 92.6774 61.3772 92.5117 61.117 92.1803C60.8634 91.8571 60.8024 91.4262 60.9341 90.8876L61.1407 90.0424H63.6486L63.5271 90.5396H66.0989L66.3147 89.6571H63.0135C62.459 89.6571 62.067 89.5163 61.8373 89.2345C61.6182 88.9445 61.5745 88.5302 61.7062 87.9916L62.0162 86.7238C62.1479 86.1852 62.4195 85.7544 62.8312 85.4312C63.2535 85.0997 63.7419 84.934 64.2963 84.934H68.007C68.2714 84.934 68.5044 84.9755 68.7059 85.0583C68.916 85.1412 69.0828 85.2613 69.2064 85.4188C69.3405 85.5679 69.4239 85.7502 69.4565 85.9657C69.4977 86.1811 69.4868 86.4172 69.424 86.6741L69.2204 87.5069H66.7125L66.8189 87.0719H64.439L64.2353 87.9046H67.5365C68.0739 87.9046 68.4626 88.0248 68.7024 88.2651C68.9527 88.4971 69.0141 88.8741 68.8864 89.3961L68.5096 90.9373ZM77.3067 90.8876C77.175 91.4262 76.899 91.8571 76.4788 92.1803C76.0651 92.5117 75.581 92.6774 75.0265 92.6774H71.1239C70.8509 92.6774 70.6137 92.636 70.4122 92.5531C70.2106 92.4703 70.0438 92.3501 69.9117 92.1927C69.7861 92.0435 69.7027 91.8612 69.6616 91.6458C69.6269 91.4386 69.642 91.2025 69.7068 90.9373L70.7493 86.6741C70.8121 86.4172 70.9125 86.1811 71.0504 85.9657C71.197 85.7502 71.3695 85.5679 71.568 85.4188C71.7771 85.2613 72.0027 85.1412 72.2448 85.0583C72.4868 84.9755 72.7443 84.934 73.0173 84.934H77.0478C77.6023 84.934 78.0053 85.0997 78.257 85.4312C78.5192 85.7544 78.5844 86.1852 78.4527 86.7238L78.1306 88.0413C77.9989 88.5799 77.7483 88.9942 77.3788 89.2843C77.0199 89.566 76.5632 89.7068 76.0088 89.7068H72.5156L72.312 90.5396H74.8839L74.9963 90.0797H77.5042L77.3067 90.8876ZM75.644 87.9543L75.8597 87.0719H73.1599L72.9441 87.9543H75.644Z" fill="black"/>
<path d="M34.6773 92.1678L33.7134 90.8993L33.6936 90.9146L33.674 90.9302L34.6773 92.1678ZM26.3859 92.1678L24.7894 93.421H24.7894L26.3859 92.1678ZM28.5771 83.2064L27.5935 81.9532H27.5935L28.5771 83.2064ZM36.8685 83.2064L35.26 84.444L35.2719 84.4596L35.2843 84.4749L36.8685 83.2064ZM36.6273 86.3385L36.1939 88.1108H38.0184L38.4517 86.3385H36.6273ZM34.0682 86.3385H32.2437L31.8104 88.1108H33.6349L34.0682 86.3385ZM34.4116 84.934H36.2361L36.6694 83.1618H34.845L34.4116 84.934ZM30.2019 84.934L30.6353 83.1618H28.8108L28.3775 84.934H30.2019ZM28.8556 90.4402H27.0312L26.5978 92.2124H28.4223L28.8556 90.4402ZM33.0653 90.4402L32.632 92.2124H34.4564L34.8898 90.4402H33.0653ZM33.4604 88.8244L33.8937 87.0521H32.0693L31.6359 88.8244H33.4604ZM36.0195 88.8244H37.8439L38.2773 87.0521H36.4528L36.0195 88.8244ZM35.521 90.8628H33.6966C33.6864 90.9043 33.6767 90.9301 33.6714 90.9427C33.6662 90.9549 33.6647 90.9557 33.6695 90.9484C33.6744 90.9407 33.6824 90.93 33.693 90.9186C33.7035 90.9073 33.7115 90.9008 33.7134 90.8993L34.6773 92.1678L35.6412 93.4364C36.5654 92.7253 37.1142 91.8086 37.3455 90.8628H35.521ZM34.6773 92.1678L33.674 90.9302C33.676 90.9287 33.6842 90.9225 33.6976 90.915C33.7112 90.9074 33.7236 90.9021 33.7321 90.8992C33.7404 90.8963 33.7392 90.8976 33.7262 90.8997C33.7127 90.9019 33.6853 90.9052 33.6425 90.9052L33.2092 92.6774L32.7759 94.4497C33.7496 94.4497 34.7704 94.1343 35.6806 93.4054L34.6773 92.1678ZM33.2092 92.6774L33.6425 90.9052H28.051L27.6176 92.6774L27.1843 94.4497H32.7759L33.2092 92.6774ZM27.6176 92.6774L28.051 90.9052C28.0082 90.9052 27.9818 90.9019 27.968 90.8995C27.9546 90.8971 27.9519 90.8954 27.9562 90.8971C27.9607 90.899 27.9675 90.9026 27.9744 90.9077C27.9812 90.9129 27.9837 90.9162 27.9824 90.9147L26.3859 92.1678L24.7894 93.421C25.3496 94.1346 26.2099 94.4497 27.1843 94.4497L27.6176 92.6774ZM26.3859 92.1678L27.9824 90.9147C27.9845 90.9173 27.9893 90.9243 27.994 90.9354C27.9987 90.9465 28.001 90.9562 28.0018 90.9621C28.0037 90.975 27.9964 90.9498 28.0177 90.8628H26.1932H24.3688C24.1407 91.7954 24.229 92.7071 24.7894 93.421L26.3859 92.1678ZM26.1932 90.8628H28.0177L29.5707 84.5114H27.7462H25.9217L24.3688 90.8628H26.1932ZM27.7462 84.5114H29.5707C29.5919 84.4244 29.6116 84.3992 29.6034 84.4121C29.5997 84.418 29.5926 84.4277 29.5825 84.4388C29.5724 84.4499 29.5641 84.4569 29.5608 84.4595L28.5771 83.2064L27.5935 81.9532C26.6839 82.6671 26.1498 83.5788 25.9217 84.5114H27.7462ZM28.5771 83.2064L29.5608 84.4595C29.5628 84.458 29.5587 84.4613 29.5494 84.4665C29.54 84.4716 29.5314 84.4752 29.526 84.4771C29.5209 84.4788 29.5244 84.4771 29.5389 84.4747C29.5539 84.4723 29.582 84.469 29.6247 84.469L30.058 82.6968L30.4914 80.9245C29.517 80.9245 28.5026 81.2396 27.5935 81.9532L28.5771 83.2064ZM30.058 82.6968L29.6247 84.469H35.2163L35.6496 82.6968L36.083 80.9245H30.4914L30.058 82.6968ZM35.6496 82.6968L35.2163 84.469C35.2591 84.469 35.2848 84.4723 35.2972 84.4745C35.3093 84.4766 35.3097 84.4779 35.3029 84.475C35.2958 84.472 35.286 84.4668 35.2761 84.4592C35.2664 84.4517 35.2612 84.4455 35.26 84.444L36.8685 83.2064L38.4771 81.9688C37.9232 81.2399 37.0567 80.9245 36.083 80.9245L35.6496 82.6968ZM36.8685 83.2064L35.2843 84.4749C35.283 84.4734 35.2783 84.4669 35.2733 84.4556C35.2683 84.4442 35.2655 84.4335 35.2643 84.4258C35.2632 84.4185 35.2643 84.4193 35.2635 84.4315C35.2627 84.4441 35.2597 84.4699 35.2496 84.5114H37.074H38.8985C39.1298 83.5656 39.0292 82.6489 38.4528 81.9378L36.8685 83.2064ZM37.074 84.5114H35.2496L34.8028 86.3385H36.6273H38.4517L38.8985 84.5114H37.074ZM36.6273 86.3385L37.0606 84.5663H34.5015L34.0682 86.3385L33.6349 88.1108H36.1939L36.6273 86.3385ZM34.0682 86.3385H35.8927L36.2361 84.934H34.4116H32.5872L32.2437 86.3385H34.0682ZM34.4116 84.934L34.845 83.1618H30.6353L30.2019 84.934L29.7686 86.7063H33.9783L34.4116 84.934ZM30.2019 84.934H28.3775L27.0312 90.4402H28.8556H30.6801L32.0264 84.934H30.2019ZM28.8556 90.4402L28.4223 92.2124H32.632L33.0653 90.4402L33.4986 88.6679H29.289L28.8556 90.4402ZM33.0653 90.4402H34.8898L35.2848 88.8244H33.4604H31.6359L31.2408 90.4402H33.0653ZM33.4604 88.8244L33.027 90.5966H35.5861L36.0195 88.8244L36.4528 87.0521H33.8937L33.4604 88.8244ZM36.0195 88.8244H34.195L33.6966 90.8628H35.521H37.3455L37.8439 88.8244H36.0195ZM44.1609 91.6334L42.6495 90.9428L42.6312 90.9698L42.6136 90.9972L44.1609 91.6334ZM43.6433 92.1803L42.7449 90.863L42.7017 90.8941L42.6597 90.9271L43.6433 92.1803ZM42.9666 92.5407L42.7393 90.8788L42.6969 90.8928L42.6548 90.9085L42.9666 92.5407ZM37.4646 92.5407L38.5746 90.9085L38.5496 90.8971L38.524 90.8866L37.4646 92.5407ZM36.9642 92.1803L38.5349 90.8954L38.5335 90.8937L36.9642 92.1803ZM36.714 91.6334L34.8556 92.2696L34.8598 92.2969L34.8649 92.3239L36.714 91.6334ZM38.0999 85.9656L36.5884 85.2751L36.5701 85.3021L36.5526 85.3294L38.0999 85.9656ZM38.6174 85.4188L39.5576 86.7053L39.5599 86.7036L38.6174 85.4188ZM39.2942 85.0583L39.0437 83.4042V83.4042L39.2942 85.0583ZM44.7962 85.0583L43.7368 86.7124L43.7464 86.7164L43.7561 86.7202L44.7962 85.0583ZM45.2966 85.4188L43.7001 86.6719L43.726 86.7049L43.754 86.7361L45.2966 85.4188ZM45.5468 85.9656L43.6884 86.6019L43.6925 86.6292L43.6976 86.6562L45.5468 85.9656ZM42.0734 90.4899L41.64 92.2621H43.4645L43.8978 90.4899H42.0734ZM42.897 87.1216H44.7214L45.1548 85.3493H43.3303L42.897 87.1216ZM40.1972 87.1216L40.6305 85.3493H38.806L38.3727 87.1216H40.1972ZM39.3736 90.4899H37.5491L37.1158 92.2621H38.9402L39.3736 90.4899ZM44.4779 90.9125H42.6535C42.6459 90.9434 42.6395 90.9587 42.6383 90.9613C42.6374 90.9635 42.6404 90.9562 42.6495 90.9428L44.1609 91.6334L45.6724 92.3239C45.986 91.8627 46.1873 91.3833 46.3024 90.9125H44.4779ZM44.1609 91.6334L42.6136 90.9972C42.6226 90.9831 42.6392 90.9602 42.6647 90.9333C42.6904 90.9061 42.7183 90.8822 42.7449 90.863L43.6433 92.1803L44.5417 93.4976C45.0176 93.1548 45.4093 92.7363 45.7082 92.2696L44.1609 91.6334ZM43.6433 92.1803L42.6597 90.9271C42.6795 90.9115 42.6997 90.8986 42.7173 90.8893C42.7346 90.8801 42.7431 90.8775 42.7393 90.8788L42.9666 92.5407L43.1939 94.2026C43.6932 94.0375 44.1802 93.7842 44.627 93.4334L43.6433 92.1803ZM42.9666 92.5407L42.6548 90.9085C42.6599 90.9066 42.6643 90.9053 42.6677 90.9043C42.6712 90.9034 42.6729 90.9031 42.6727 90.9031C42.6724 90.9031 42.6612 90.9052 42.6372 90.9052L42.2039 92.6774L41.7705 94.4497C42.2551 94.4497 42.7635 94.3652 43.2784 94.1729L42.9666 92.5407ZM42.2039 92.6774L42.6372 90.9052H38.6067L38.1733 92.6774L37.74 94.4497H41.7705L42.2039 92.6774ZM38.1733 92.6774L38.6067 90.9052C38.5748 90.9052 38.5597 90.9025 38.5571 90.902C38.555 90.9016 38.5623 90.9029 38.5746 90.9085L37.4646 92.5407L36.3546 94.1729C36.7817 94.368 37.2553 94.4497 37.74 94.4497L38.1733 92.6774ZM37.4646 92.5407L38.524 90.8866C38.5226 90.886 38.5225 90.8859 38.5235 90.8864C38.5245 90.887 38.526 90.8879 38.5279 90.8893C38.5298 90.8906 38.5315 90.892 38.5329 90.8933C38.5335 90.8939 38.534 90.8944 38.5344 90.8948C38.5348 90.8952 38.5349 90.8954 38.5349 90.8954L36.9642 92.1803L35.3934 93.4651C35.6613 93.7844 36.0026 94.0293 36.4052 94.1948L37.4646 92.5407ZM36.9642 92.1803L38.5335 90.8937C38.5453 90.9076 38.5537 90.9217 38.559 90.9333C38.5641 90.9446 38.5643 90.9491 38.5631 90.9428L36.714 91.6334L34.8649 92.3239C34.9456 92.7465 35.1168 93.1367 35.3948 93.4668L36.9642 92.1803ZM36.714 91.6334L38.5724 90.9972C38.5748 91.0126 38.5673 90.9921 38.5868 90.9125H36.7623H34.9379C34.8277 91.3632 34.788 91.8233 34.8556 92.2696L36.714 91.6334ZM36.7623 90.9125H38.5868L39.6231 86.6741H37.7987H35.9742L34.9379 90.9125H36.7623ZM37.7987 86.6741H39.6231C39.6312 86.6411 39.6389 86.6207 39.6432 86.6106C39.6474 86.6008 39.6491 86.5987 39.6471 86.6019L38.0999 85.9656L36.5526 85.3294C36.2707 85.7696 36.0842 86.2242 35.9742 86.6741H37.7987ZM38.0999 85.9656L39.6113 86.6562C39.6155 86.6499 39.6131 86.6544 39.6024 86.6657C39.5915 86.6773 39.5762 86.6914 39.5576 86.7053L38.6174 85.4188L37.6773 84.1322C37.2379 84.4623 36.8758 84.8525 36.5884 85.2751L38.0999 85.9656ZM38.6174 85.4188L39.5599 86.7036C39.5599 86.7036 39.5596 86.7038 39.5591 86.7042C39.5585 86.7046 39.5577 86.7051 39.5568 86.7057C39.5548 86.707 39.5524 86.7084 39.5499 86.7098C39.5473 86.7111 39.5453 86.7121 39.544 86.7126C39.5428 86.7131 39.5429 86.713 39.5446 86.7124L39.2942 85.0583L39.0437 83.4042C38.5601 83.5697 38.0991 83.8146 37.675 84.1339L38.6174 85.4188ZM39.2942 85.0583L39.5446 86.7124C39.5273 86.7184 39.5514 86.7063 39.6333 86.7063L40.0667 84.934L40.5 83.1618C40.036 83.1618 39.5451 83.2325 39.0437 83.4042L39.2942 85.0583ZM40.0667 84.934L39.6333 86.7063H43.6639L44.0972 84.934L44.5306 83.1618H40.5L40.0667 84.934ZM44.0972 84.934L43.6639 86.7063C43.6979 86.7063 43.7183 86.7089 43.7282 86.7107C43.7378 86.7124 43.7397 86.7136 43.7368 86.7124L44.7962 85.0583L45.8556 83.4042C45.4439 83.2349 44.9937 83.1618 44.5306 83.1618L44.0972 84.934ZM44.7962 85.0583L43.7561 86.7202C43.7593 86.7215 43.752 86.7189 43.7393 86.7098C43.7262 86.7004 43.7124 86.6875 43.7001 86.6719L45.2966 85.4188L46.8931 84.1656C46.6178 83.8149 46.2548 83.5615 45.8362 83.3964L44.7962 85.0583ZM45.2966 85.4188L43.754 86.7361C43.7368 86.7169 43.7206 86.6929 43.7082 86.6657C43.6959 86.6388 43.6905 86.6159 43.6884 86.6019L45.5468 85.9656L47.4052 85.3294C47.3345 84.8627 47.1475 84.4442 46.8392 84.1015L45.2966 85.4188ZM45.5468 85.9656L43.6976 86.6562C43.6968 86.6517 43.6963 86.6478 43.6961 86.6446C43.6959 86.6415 43.696 86.6399 43.696 86.6402C43.696 86.6404 43.6955 86.6508 43.6898 86.6741H45.5143H47.3387C47.4538 86.2034 47.4827 85.7296 47.3959 85.2751L45.5468 85.9656ZM45.5143 86.6741H43.6898L42.6535 90.9125H44.4779H46.3024L47.3387 86.6741H45.5143ZM42.0734 90.4899H43.8978L44.7214 87.1216H42.897H41.0725L40.2489 90.4899H42.0734ZM42.897 87.1216L43.3303 85.3493H40.6305L40.1972 87.1216L39.7638 88.8938H42.4636L42.897 87.1216ZM40.1972 87.1216H38.3727L37.5491 90.4899H39.3736H41.198L42.0216 87.1216H40.1972ZM39.3736 90.4899L38.9402 92.2621H41.64L42.0734 90.4899L42.5067 88.7176H39.8069L39.3736 90.4899ZM53.1333 91.6334L51.6219 90.9428L51.6035 90.9698L51.586 90.9972L53.1333 91.6334ZM52.6157 92.1803L51.7173 90.863L51.674 90.8941L51.632 90.9271L52.6157 92.1803ZM51.939 92.5407L51.7117 90.8788L51.6693 90.8928L51.6272 90.9085L51.939 92.5407ZM46.437 92.5407L47.5469 90.9085L47.522 90.8971L47.4964 90.8866L46.437 92.5407ZM45.9365 92.1803L47.5073 90.8954L47.5059 90.8937L45.9365 92.1803ZM45.6864 91.6334L43.828 92.2696L43.8321 92.2969L43.8373 92.3239L45.6864 91.6334ZM47.1965 84.934L47.6298 83.1618H45.8054L45.372 84.934H47.1965ZM49.7044 84.934H51.5289L51.9622 83.1618H50.1377L49.7044 84.934ZM48.3459 90.4899H46.5215L46.0881 92.2621H47.9126L48.3459 90.4899ZM51.0457 90.4899L50.6124 92.2621H52.4369L52.8702 90.4899H51.0457ZM52.4042 84.934L52.8376 83.1618H51.0131L50.5798 84.934H52.4042ZM54.9121 84.934H56.7366L57.1699 83.1618H55.3455L54.9121 84.934ZM53.4503 90.9125H51.6258C51.6183 90.9434 51.6118 90.9587 51.6107 90.9613C51.6097 90.9635 51.6128 90.9562 51.6219 90.9428L53.1333 91.6334L54.6447 92.3239C54.9584 91.8627 55.1596 91.3833 55.2748 90.9125H53.4503ZM53.1333 91.6334L51.586 90.9972C51.595 90.9831 51.6116 90.9602 51.6371 90.9333C51.6628 90.9061 51.6906 90.8822 51.7173 90.863L52.6157 92.1803L53.5141 93.4976C53.99 93.1548 54.3817 92.7363 54.6806 92.2696L53.1333 91.6334ZM52.6157 92.1803L51.632 90.9271C51.6519 90.9115 51.6721 90.8986 51.6897 90.8893C51.7069 90.8801 51.7155 90.8775 51.7117 90.8788L51.939 92.5407L52.1663 94.2026C52.6656 94.0375 53.1525 93.7842 53.5994 93.4334L52.6157 92.1803ZM51.939 92.5407L51.6272 90.9085C51.6322 90.9066 51.6366 90.9053 51.6401 90.9043C51.6435 90.9034 51.6453 90.9031 51.645 90.9031C51.6448 90.9031 51.6336 90.9052 51.6096 90.9052L51.1762 92.6774L50.7429 94.4497C51.2275 94.4497 51.7359 94.3652 52.2508 94.1729L51.939 92.5407ZM51.1762 92.6774L51.6096 90.9052H47.579L47.1457 92.6774L46.7123 94.4497H50.7429L51.1762 92.6774ZM47.1457 92.6774L47.579 90.9052C47.5471 90.9052 47.532 90.9025 47.5295 90.902C47.5274 90.9016 47.5346 90.9029 47.5469 90.9085L46.437 92.5407L45.327 94.1729C45.7541 94.368 46.2276 94.4497 46.7123 94.4497L47.1457 92.6774ZM46.437 92.5407L47.4964 90.8866C47.4949 90.886 47.4949 90.8859 47.4958 90.8864C47.4968 90.887 47.4984 90.8879 47.5003 90.8893C47.5021 90.8906 47.5038 90.892 47.5052 90.8933C47.5059 90.8939 47.5064 90.8944 47.5068 90.8948C47.5071 90.8952 47.5073 90.8954 47.5073 90.8954L45.9365 92.1803L44.3658 93.4651C44.6337 93.7844 44.975 94.0293 45.3776 94.1948L46.437 92.5407ZM45.9365 92.1803L47.5059 90.8937C47.5176 90.9076 47.526 90.9217 47.5313 90.9333C47.5365 90.9446 47.5367 90.9491 47.5355 90.9428L45.6864 91.6334L43.8373 92.3239C43.918 92.7465 44.0892 93.1367 44.3672 93.4668L45.9365 92.1803ZM45.6864 91.6334L47.5448 90.9972C47.5471 91.0126 47.5397 90.9921 47.5591 90.9125H45.7347H43.9102C43.8 91.3632 43.7604 91.8233 43.828 92.2696L45.6864 91.6334ZM45.7347 90.9125H47.5591L49.021 84.934H47.1965H45.372L43.9102 90.9125H45.7347ZM47.1965 84.934L46.7632 86.7063H49.2711L49.7044 84.934L50.1377 83.1618H47.6298L47.1965 84.934ZM49.7044 84.934H47.8799L46.5215 90.4899H48.3459H50.1704L51.5289 84.934H49.7044ZM48.3459 90.4899L47.9126 92.2621H50.6124L51.0457 90.4899L51.4791 88.7176H48.7793L48.3459 90.4899ZM51.0457 90.4899H52.8702L54.2287 84.934H52.4042H50.5798L49.2213 90.4899H51.0457ZM52.4042 84.934L51.9709 86.7063H54.4788L54.9121 84.934L55.3455 83.1618H52.8376L52.4042 84.934ZM54.9121 84.934H53.0877L51.6258 90.9125H53.4503H55.2748L56.7366 84.934H54.9121ZM56.8078 92.6774L56.3744 94.4497H58.1989L58.6322 92.6774H56.8078ZM54.2999 92.6774H52.4754L52.0421 94.4497H53.8665L54.2999 92.6774ZM56.069 85.9656L54.5575 85.2751L54.5392 85.3021L54.5217 85.3294L56.069 85.9656ZM56.5865 85.4188L57.5267 86.7053L57.529 86.7036L56.5865 85.4188ZM57.2633 85.0583L57.5137 86.7124V86.7124L57.2633 85.0583ZM61.5929 84.934H63.4174L63.8507 83.1618H62.0262L61.5929 84.934ZM61.058 87.1216L60.6247 88.8938H62.4491L62.8825 87.1216H61.058ZM58.1663 87.1216L58.5996 85.3493H56.7751L56.3418 87.1216H58.1663ZM56.8078 92.6774L57.2411 90.9052H54.7332L54.2999 92.6774L53.8665 94.4497H56.3744L56.8078 92.6774ZM54.2999 92.6774H56.1243L57.5922 86.6741H55.7678H53.9433L52.4754 92.6774H54.2999ZM55.7678 86.6741H57.5922C57.6003 86.6411 57.608 86.6207 57.6123 86.6106C57.6165 86.6008 57.6182 86.5987 57.6162 86.6019L56.069 85.9656L54.5217 85.3294C54.2398 85.7696 54.0533 86.2242 53.9433 86.6741H55.7678ZM56.069 85.9656L57.5804 86.6562C57.5846 86.6499 57.5822 86.6544 57.5715 86.6657C57.5606 86.6773 57.5453 86.6914 57.5267 86.7053L56.5865 85.4188L55.6464 84.1322C55.207 84.4623 54.8449 84.8525 54.5575 85.2751L56.069 85.9656ZM56.5865 85.4188L57.529 86.7036C57.529 86.7036 57.5287 86.7038 57.5282 86.7042C57.5276 86.7046 57.5269 86.7051 57.5259 86.7057C57.5239 86.707 57.5215 86.7084 57.519 86.7098C57.5164 86.7111 57.5144 86.7121 57.5131 86.7126C57.5119 86.7131 57.512 86.713 57.5137 86.7124L57.2633 85.0583L57.0128 83.4042C56.5292 83.5697 56.0682 83.8146 55.6441 84.1339L56.5865 85.4188ZM57.2633 85.0583L57.5137 86.7124C57.4964 86.7184 57.5205 86.7063 57.6024 86.7063L58.0358 84.934L58.4691 83.1618C58.0051 83.1618 57.5142 83.2325 57.0128 83.4042L57.2633 85.0583ZM58.0358 84.934L57.6024 86.7063H61.1596L61.5929 84.934L62.0262 83.1618H58.4691L58.0358 84.934ZM61.5929 84.934H59.7684L59.2336 87.1216H61.058H62.8825L63.4174 84.934H61.5929ZM61.058 87.1216L61.4914 85.3493H58.5996L58.1663 87.1216L57.7329 88.8938H60.6247L61.058 87.1216ZM58.1663 87.1216H56.3418L54.9833 92.6774H56.8078H58.6322L59.9907 87.1216H58.1663ZM68.1956 91.6458L66.7002 90.932L66.6734 90.9704L66.6483 91.0096L68.1956 91.6458ZM67.678 92.1927L66.7796 90.8754L66.7363 90.9066L66.6943 90.9395L67.678 92.1927ZM67.0013 92.5531L66.774 90.8912L66.7624 90.895L66.7508 90.899L67.0013 92.5531ZM61.117 92.1803L62.7135 90.9271V90.9271L61.117 92.1803ZM61.1407 90.0424L61.5741 88.2702H59.7496L59.3163 90.0424H61.1407ZM63.6486 90.0424H65.4731L65.9064 88.2702H64.082L63.6486 90.0424ZM63.5271 90.5396H61.7026L61.2693 92.3119H63.0937L63.5271 90.5396ZM66.0989 90.5396L65.6656 92.3119H67.4901L67.9234 90.5396H66.0989ZM66.3147 89.6571H68.1392L68.5725 87.8849H66.7481L66.3147 89.6571ZM61.8373 89.2345L60.2267 90.4694L60.2406 90.4878L60.2552 90.5057L61.8373 89.2345ZM62.8312 85.4312L61.8476 84.178L61.8476 84.178L62.8312 85.4312ZM68.7059 85.0583L67.6465 86.7124L67.6562 86.7164L67.6659 86.7202L68.7059 85.0583ZM69.2064 85.4188L67.6099 86.6719L67.6357 86.7049L67.6638 86.7361L69.2064 85.4188ZM69.4565 85.9656L67.5981 86.6019L67.6023 86.6292L67.6074 86.6562L69.4565 85.9656ZM69.2204 87.5069L68.7871 89.2791H70.6115L71.0449 87.5069H69.2204ZM66.7125 87.5069H64.8881L64.4547 89.2791H66.2792L66.7125 87.5069ZM66.8189 87.0719H68.6434L69.0767 85.2996H67.2522L66.8189 87.0719ZM64.439 87.0719L64.8723 85.2996H63.0478L62.6145 87.0719H64.439ZM64.2353 87.9046H62.4109L61.9775 89.6769H63.802L64.2353 87.9046ZM68.7024 88.2651L67.2046 89.6297L67.2221 89.6472L67.2402 89.664L68.7024 88.2651ZM68.5096 90.9373H66.6851C66.6775 90.9685 66.6718 90.9807 66.6732 90.9775C66.6739 90.9759 66.6762 90.9708 66.6808 90.9627C66.6853 90.9546 66.6917 90.9442 66.7002 90.932L68.1956 91.6458L69.691 92.3596C70.017 91.8922 70.2193 91.4065 70.334 90.9373H68.5096ZM68.1956 91.6458L66.6483 91.0096C66.6573 90.9956 66.6739 90.9727 66.6994 90.9457C66.7251 90.9186 66.753 90.8946 66.7796 90.8754L67.678 92.1927L68.5764 93.51C69.0523 93.1672 69.444 92.7487 69.7429 92.282L68.1956 91.6458ZM67.678 92.1927L66.6943 90.9395C66.7142 90.9239 66.7344 90.9111 66.752 90.9017C66.7692 90.8925 66.7778 90.89 66.774 90.8912L67.0013 92.5531L67.2286 94.2151C67.7279 94.0499 68.2149 93.7966 68.6617 93.4459L67.678 92.1927ZM67.0013 92.5531L66.7508 90.899C66.7543 90.8978 66.7518 90.8991 66.7414 90.9008C66.7306 90.9025 66.7089 90.9052 66.6749 90.9052L66.2416 92.6774L65.8082 94.4497C66.2714 94.4497 66.7573 94.3765 67.2518 94.2073L67.0013 92.5531ZM66.2416 92.6774L66.6749 90.9052H62.7723L62.339 92.6774L61.9056 94.4497H65.8082L66.2416 92.6774ZM62.339 92.6774L62.7723 90.9052C62.6827 90.9052 62.66 90.8921 62.6721 90.897C62.6776 90.8992 62.6865 90.9037 62.6962 90.9109C62.7058 90.9181 62.7115 90.9245 62.7135 90.9271L61.117 92.1803L59.5205 93.4334C60.0809 94.1474 60.9455 94.4497 61.9056 94.4497L62.339 92.6774ZM61.117 92.1803L62.7135 90.9271C62.719 90.934 62.726 90.945 62.7319 90.9593C62.7379 90.9736 62.7405 90.9856 62.7415 90.9925C62.7435 91.0067 62.736 90.9799 62.7585 90.8876H60.9341H59.1096C58.8851 91.8059 58.9598 92.7191 59.5205 93.4334L61.117 92.1803ZM60.9341 90.8876H62.7585L62.9652 90.0424H61.1407H59.3163L59.1096 90.8876H60.9341ZM61.1407 90.0424L60.7074 91.8147H63.2153L63.6486 90.0424L64.082 88.2702H61.5741L61.1407 90.0424ZM63.6486 90.0424H61.8242L61.7026 90.5396H63.5271H65.3515L65.4731 90.0424H63.6486ZM63.5271 90.5396L63.0937 92.3119H65.6656L66.0989 90.5396L66.5323 88.7674H63.9604L63.5271 90.5396ZM66.0989 90.5396H67.9234L68.1392 89.6571H66.3147H64.4903L64.2745 90.5396H66.0989ZM66.3147 89.6571L66.7481 87.8849H63.4468L63.0135 89.6571L62.5802 91.4294H65.8814L66.3147 89.6571ZM63.0135 89.6571L63.4468 87.8849C63.325 87.8849 63.2885 87.869 63.3012 87.8736C63.3085 87.8762 63.3268 87.8838 63.3503 87.8997C63.3741 87.9159 63.3982 87.9373 63.4194 87.9633L61.8373 89.2345L60.2552 90.5057C60.8244 91.204 61.7132 91.4294 62.5802 91.4294L63.0135 89.6571ZM61.8373 89.2345L63.4479 87.9997C63.4681 88.0265 63.4832 88.0549 63.4933 88.0819C63.5032 88.1085 63.5062 88.1281 63.507 88.1358C63.5084 88.1491 63.5017 88.11 63.5306 87.9916H61.7062H59.8817C59.6758 88.8338 59.6836 89.7506 60.2267 90.4694L61.8373 89.2345ZM61.7062 87.9916H63.5306L63.8406 86.7238H62.0162H60.1917L59.8817 87.9916H61.7062ZM62.0162 86.7238H63.8406C63.8632 86.6315 63.8839 86.6047 63.8748 86.619C63.8705 86.6258 63.862 86.6379 63.8491 86.6521C63.8361 86.6664 63.8238 86.6774 63.8149 86.6844L62.8312 85.4312L61.8476 84.178C60.9375 84.8924 60.4162 85.8055 60.1917 86.7238H62.0162ZM62.8312 85.4312L63.8149 86.6844C63.8116 86.687 63.8028 86.6934 63.7896 86.7005C63.7765 86.7077 63.7653 86.7122 63.7588 86.7145C63.7442 86.7194 63.7734 86.7063 63.863 86.7063L64.2963 84.934L64.7297 83.1618C63.7696 83.1618 62.7571 83.4641 61.8476 84.178L62.8312 85.4312ZM64.2963 84.934L63.863 86.7063H67.5736L68.007 84.934L68.4403 83.1618H64.7297L64.2963 84.934ZM68.007 84.934L67.5736 86.7063C67.6076 86.7063 67.628 86.7089 67.638 86.7107C67.6476 86.7124 67.6494 86.7136 67.6465 86.7124L68.7059 85.0583L69.7653 83.4042C69.3536 83.2349 68.9035 83.1618 68.4403 83.1618L68.007 84.934ZM68.7059 85.0583L67.6659 86.7202C67.6691 86.7215 67.6618 86.7189 67.649 86.7098C67.636 86.7004 67.6221 86.6875 67.6099 86.6719L69.2064 85.4188L70.8029 84.1656C70.5276 83.8149 70.1645 83.5615 69.746 83.3964L68.7059 85.0583ZM69.2064 85.4188L67.6638 86.7361C67.6465 86.7169 67.6304 86.6929 67.618 86.6657C67.6057 86.6388 67.6002 86.6159 67.5981 86.6019L69.4565 85.9656L71.3149 85.3294C71.2443 84.8627 71.0572 84.4442 70.749 84.1015L69.2064 85.4188ZM69.4565 85.9656L67.6074 86.6562C67.6066 86.6517 67.6061 86.6478 67.6059 86.6446C67.6057 86.6415 67.6058 86.6399 67.6057 86.6402C67.6057 86.6404 67.6053 86.6508 67.5996 86.6741H69.424H71.2485C71.3636 86.2034 71.3925 85.7296 71.3056 85.2751L69.4565 85.9656ZM69.424 86.6741H67.5996L67.396 87.5069H69.2204H71.0449L71.2485 86.6741H69.424ZM69.2204 87.5069L69.6538 85.7346H67.1459L66.7125 87.5069L66.2792 89.2791H68.7871L69.2204 87.5069ZM66.7125 87.5069H68.537L68.6434 87.0719H66.8189H64.9944L64.8881 87.5069H66.7125ZM66.8189 87.0719L67.2522 85.2996H64.8723L64.439 87.0719L64.0056 88.8441H66.3856L66.8189 87.0719ZM64.439 87.0719H62.6145L62.4109 87.9046H64.2353H66.0598L66.2634 87.0719H64.439ZM64.2353 87.9046L63.802 89.6769H67.1032L67.5365 87.9046L67.9699 86.1324H64.6687L64.2353 87.9046ZM67.5365 87.9046L67.1032 89.6769C67.2357 89.6769 67.2912 89.6921 67.2978 89.6941C67.3 89.6948 67.2893 89.6917 67.2708 89.6811C67.252 89.6703 67.2285 89.6536 67.2046 89.6297L68.7024 88.2651L70.2001 86.9004C69.6118 86.3109 68.7696 86.1324 67.9699 86.1324L67.5365 87.9046ZM68.7024 88.2651L67.2402 89.664C67.1946 89.6217 67.1562 89.5711 67.1278 89.5156C67.0997 89.4606 67.0862 89.4106 67.0802 89.3738C67.0689 89.3045 67.0862 89.2971 67.062 89.3961H68.8864H70.7109C70.918 88.549 70.9024 87.5499 70.1645 86.8661L68.7024 88.2651ZM68.8864 89.3961H67.062L66.6851 90.9373H68.5096H70.334L70.7109 89.3961H68.8864ZM76.4788 92.1803L75.5154 90.9113L75.495 90.927L75.475 90.9431L76.4788 92.1803ZM70.4122 92.5531L71.4716 90.899V90.899L70.4122 92.5531ZM69.9117 92.1927L71.4825 90.9078L71.4811 90.9061L69.9117 92.1927ZM69.6616 91.6458L67.8067 92.304L67.8094 92.3202L67.8125 92.3363L69.6616 91.6458ZM71.0504 85.9656L69.539 85.2751L69.5207 85.3021L69.5032 85.3294L71.0504 85.9656ZM71.568 85.4188L72.5082 86.7053L72.5105 86.7036L71.568 85.4188ZM72.2448 85.0583L71.9943 83.4042V83.4042L72.2448 85.0583ZM78.257 85.4312L76.6481 86.6684L76.6603 86.6845L76.673 86.7001L78.257 85.4312ZM77.3788 89.2843L78.3625 90.5374L78.3625 90.5374L77.3788 89.2843ZM72.5156 89.7068L72.949 87.9346H71.1245L70.6912 89.7068H72.5156ZM72.312 90.5396H70.4875L70.0542 92.3119H71.8787L72.312 90.5396ZM74.8839 90.5396L74.4505 92.3119H76.275L76.7083 90.5396H74.8839ZM74.9963 90.0797L75.4297 88.3075H73.6052L73.1719 90.0797H74.9963ZM77.5042 90.0797H79.3287L79.762 88.3075H77.9375L77.5042 90.0797ZM75.644 87.9543L75.2106 89.7266H77.0351L77.4684 87.9543H75.644ZM75.8597 87.0719H77.6842L78.1175 85.2996H76.2931L75.8597 87.0719ZM73.1599 87.0719L73.5932 85.2996H71.7688L71.3354 87.0719H73.1599ZM72.9441 87.9543H71.1197L70.6863 89.7266H72.5108L72.9441 87.9543ZM77.3067 90.8876H75.4822C75.4608 90.975 75.4419 90.9969 75.4536 90.9785C75.4592 90.9698 75.4688 90.9567 75.4823 90.9421C75.4957 90.9276 75.5079 90.9171 75.5154 90.9113L76.4788 92.1803L77.4422 93.4492C78.3675 92.7376 78.9033 91.8193 79.1311 90.8876H77.3067ZM76.4788 92.1803L75.475 90.9431C75.4824 90.9371 75.4954 90.9278 75.5128 90.9182C75.5302 90.9086 75.5452 90.9024 75.5549 90.899C75.5756 90.8919 75.5498 90.9052 75.4598 90.9052L75.0265 92.6774L74.5932 94.4497C75.5523 94.4497 76.5716 94.1473 77.4826 93.4175L76.4788 92.1803ZM75.0265 92.6774L75.4598 90.9052H71.5572L71.1239 92.6774L70.6906 94.4497H74.5932L75.0265 92.6774ZM71.1239 92.6774L71.5572 90.9052C71.4753 90.9052 71.4571 90.8931 71.4716 90.899L70.4122 92.5531L69.3528 94.2073C69.7702 94.3789 70.2266 94.4497 70.6906 94.4497L71.1239 92.6774ZM70.4122 92.5531L71.4716 90.899C71.4701 90.8984 71.4701 90.8983 71.471 90.8988C71.472 90.8994 71.4736 90.9003 71.4755 90.9017C71.4773 90.903 71.479 90.9044 71.4804 90.9057C71.4811 90.9063 71.4816 90.9069 71.482 90.9072C71.4823 90.9076 71.4825 90.9078 71.4825 90.9078L69.9117 92.1927L68.3409 93.4776C68.6089 93.7969 68.9502 94.0417 69.3528 94.2073L70.4122 92.5531ZM69.9117 92.1927L71.4811 90.9061C71.4928 90.9201 71.5012 90.9341 71.5065 90.9457C71.5117 90.957 71.5119 90.9615 71.5107 90.9553L69.6616 91.6458L67.8125 92.3363C67.8932 92.7589 68.0644 93.1492 68.3424 93.4793L69.9117 92.1927ZM69.6616 91.6458L71.5165 90.9876C71.5228 91.0252 71.5114 91.0186 71.5313 90.9373H69.7068H67.8824C67.7726 91.3863 67.7311 91.8521 67.8067 92.304L69.6616 91.6458ZM69.7068 90.9373H71.5313L72.5737 86.6741H70.7493H68.9248L67.8824 90.9373H69.7068ZM70.7493 86.6741H72.5737C72.5818 86.6411 72.5895 86.6207 72.5938 86.6106C72.5979 86.6008 72.5997 86.5987 72.5977 86.6019L71.0504 85.9656L69.5032 85.3294C69.2213 85.7696 69.0348 86.2242 68.9248 86.6741H70.7493ZM71.0504 85.9656L72.5619 86.6562C72.5661 86.6499 72.5637 86.6544 72.553 86.6657C72.5421 86.6773 72.5268 86.6914 72.5082 86.7053L71.568 85.4188L70.6279 84.1322C70.1884 84.4623 69.8264 84.8525 69.539 85.2751L71.0504 85.9656ZM71.568 85.4188L72.5105 86.7036C72.5105 86.7036 72.5102 86.7038 72.5097 86.7042C72.5091 86.7046 72.5083 86.7051 72.5074 86.7057C72.5053 86.707 72.503 86.7084 72.5005 86.7098C72.4979 86.7111 72.4959 86.7121 72.4946 86.7126C72.4934 86.7131 72.4935 86.713 72.4952 86.7124L72.2448 85.0583L71.9943 83.4042C71.5107 83.5697 71.0497 83.8146 70.6256 84.1339L71.568 85.4188ZM72.2448 85.0583L72.4952 86.7124C72.4779 86.7184 72.502 86.7063 72.5839 86.7063L73.0173 84.934L73.4506 83.1618C72.9866 83.1618 72.4957 83.2325 71.9943 83.4042L72.2448 85.0583ZM73.0173 84.934L72.5839 86.7063H76.6145L77.0478 84.934L77.4812 83.1618H73.4506L73.0173 84.934ZM77.0478 84.934L76.6145 86.7063C76.7045 86.7063 76.7238 86.7195 76.7066 86.7124C76.6984 86.7091 76.6865 86.7029 76.6738 86.6933C76.6611 86.6836 76.6527 86.6743 76.6481 86.6684L78.257 85.4312L79.8658 84.194C79.3117 83.4642 78.4403 83.1618 77.4812 83.1618L77.0478 84.934ZM78.257 85.4312L76.673 86.7001C76.6684 86.6943 76.6613 86.6839 76.655 86.6693C76.6486 86.6547 76.6455 86.6416 76.6441 86.6329C76.6414 86.6145 76.6496 86.6364 76.6283 86.7238H78.4527H80.2772C80.505 85.7922 80.4182 84.8738 79.8409 84.1623L78.257 85.4312ZM78.4527 86.7238H76.6283L76.3061 88.0413H78.1306H79.955L80.2772 86.7238H78.4527ZM78.1306 88.0413H76.3061C76.2783 88.1549 76.254 88.1888 76.265 88.1705C76.2711 88.1605 76.2851 88.1394 76.3091 88.1121C76.3335 88.0845 76.3627 88.0565 76.3952 88.0311L77.3788 89.2843L78.3625 90.5374C79.2757 89.8206 79.7458 88.8971 79.955 88.0413H78.1306ZM77.3788 89.2843L76.3952 88.0311C76.4339 88.0006 76.4735 87.9757 76.5101 87.9567C76.5462 87.938 76.5725 87.9287 76.5844 87.925C76.6053 87.9186 76.5645 87.9346 76.4421 87.9346L76.0088 89.7068L75.5754 91.4791C76.4387 91.4791 77.4483 91.255 78.3625 90.5374L77.3788 89.2843ZM76.0088 89.7068L76.4421 87.9346H72.949L72.5156 89.7068L72.0823 91.4791H75.5754L76.0088 89.7068ZM72.5156 89.7068H70.6912L70.4875 90.5396H72.312H74.1365L74.3401 89.7068H72.5156ZM72.312 90.5396L71.8787 92.3119H74.4505L74.8839 90.5396L75.3172 88.7674H72.7453L72.312 90.5396ZM74.8839 90.5396H76.7083L76.8208 90.0797H74.9963H73.1719L73.0594 90.5396H74.8839ZM74.9963 90.0797L74.563 91.852H77.0709L77.5042 90.0797L77.9375 88.3075H75.4297L74.9963 90.0797ZM77.5042 90.0797H75.6797L75.4822 90.8876H77.3067H79.1311L79.3287 90.0797H77.5042ZM75.644 87.9543H77.4684L77.6842 87.0719H75.8597H74.0353L73.8195 87.9543H75.644ZM75.8597 87.0719L76.2931 85.2996H73.5932L73.1599 87.0719L72.7266 88.8441H75.4264L75.8597 87.0719ZM73.1599 87.0719H71.3354L71.1197 87.9543H72.9441H74.7686L74.9844 87.0719H73.1599ZM72.9441 87.9543L72.5108 89.7266H75.2106L75.644 87.9543L76.0773 86.1821H73.3775L72.9441 87.9543Z" fill="white" mask="url(#path-11-outside-2_91_2458)"/>
</svg>
