<svg width="108" height="108" viewBox="0 0 108 108" fill="none" xmlns="http://www.w3.org/2000/svg">
<circle cx="54.1056" cy="54.1047" r="47.9406" fill="white" stroke="black" stroke-width="2.62937"/>
<circle cx="54.1057" cy="54.1057" r="42.9983" fill="black"/>
<circle cx="54.1048" cy="54.1048" r="37.5638" fill="black" stroke="#FF2877" stroke-width="0.98426"/>
<path d="M70.3341 25.041C54.6704 23.2828 49.2894 35.7631 48.5568 42.223L46.7477 55.7917C46.6352 56.6353 45.9911 57.3099 45.1536 57.4612L15.0048 62.9098C14.072 63.0784 13.3936 63.8904 13.3936 64.8383V68.7851C13.3936 69.8861 14.3002 70.771 15.4009 70.7444L85.7106 69.0387C86.7307 69.014 87.563 68.2185 87.5985 67.1987C88.101 52.7844 85.3504 26.7265 70.3341 25.041Z" fill="#FF2877" stroke="black" stroke-width="3.13566"/>
<circle cx="61.4434" cy="47.962" r="5.61627" fill="white" stroke="black" stroke-width="2.24651"/>
<circle cx="72.6749" cy="47.962" r="5.61627" fill="white" stroke="black" stroke-width="2.24651"/>
<circle cx="75.9655" cy="47.0797" r="1.84535" fill="black"/>
<circle cx="64.4118" cy="47.0797" r="1.84535" fill="black"/>
<mask id="path-9-outside-1_91_2431" maskUnits="userSpaceOnUse" x="29.7933" y="68.4544" width="50.2753" height="17.4849" fill="black">
<rect fill="white" x="29.7933" y="68.4544" width="50.2753" height="17.4849"/>
<path d="M43.0319 79.2503H36.4442L35.4309 83.3945H32.2939L34.7415 73.3844C34.9029 72.7242 35.2424 72.1909 35.76 71.7846C36.2906 71.3682 36.8957 71.1599 37.5754 71.1599H45.5591L44.8885 73.9024H37.7518L37.1222 76.4773H43.7099L43.0319 79.2503ZM49.4317 73.0492H46.3574L46.9498 70.6267H50.024L49.4317 73.0492ZM46.9021 83.3945H43.8278L46.1488 73.9024H49.223L46.9021 83.3945ZM51.633 83.3945H48.5587L50.3581 76.0355C50.4351 75.7206 50.5581 75.4311 50.7273 75.167C50.9069 74.9029 51.1184 74.6795 51.3618 74.4966C51.6181 74.3037 51.8946 74.1564 52.1913 74.0548C52.488 73.9532 52.8037 73.9024 53.1383 73.9024H57.4987L56.843 76.584H53.2982L51.633 83.3945ZM65.9774 81.2615C65.8979 81.5865 65.7696 81.876 65.5925 82.1299C65.4234 82.394 65.2119 82.6175 64.958 82.8003C64.7122 82.9933 64.4357 83.1406 64.1285 83.2422C63.8318 83.3438 63.5214 83.3945 63.1972 83.3945H58.4133C57.7336 83.3945 57.2343 83.1914 56.9154 82.7851C56.6044 82.389 56.5297 81.8608 56.6911 81.2005L56.9444 80.1645H60.0187L59.8697 80.7739H63.0224L63.2869 79.6922H59.2401C58.5604 79.6922 58.0798 79.5195 57.7983 79.1741C57.5297 78.8186 57.4761 78.3108 57.6376 77.6505L58.0175 76.0964C58.179 75.4362 58.512 74.908 59.0167 74.5119C59.5343 74.1056 60.133 73.9024 60.8126 73.9024H65.3613C65.6855 73.9024 65.971 73.9532 66.2181 74.0548C66.4756 74.1564 66.6801 74.3037 66.8316 74.4966C66.996 74.6795 67.0982 74.9029 67.1382 75.167C67.1886 75.4311 67.1754 75.7206 67.0984 76.0355L66.8488 77.0563H63.7745L63.9049 76.5231H60.9875L60.7379 77.5439H64.7846C65.4434 77.5439 65.9197 77.6912 66.2137 77.9857C66.5206 78.2701 66.5958 78.7323 66.4393 79.3722L65.9774 81.2615ZM73.6053 83.3945H70.484C70.1494 83.3945 69.8585 83.3438 69.6115 83.2422C69.3645 83.1406 69.16 82.9933 68.998 82.8003C68.8441 82.6175 68.7418 82.394 68.6914 82.1299C68.6489 81.876 68.6674 81.5865 68.7469 81.2615L69.8906 76.584H68.1496L68.8053 73.9024H70.5463L71.2169 71.1599H74.2911L73.6205 73.9024H75.9262L75.2706 76.584H72.9649L71.9106 80.8958H74.2163L73.6053 83.3945Z"/>
</mask>
<path d="M43.0319 79.2503H36.4442L35.4309 83.3945H32.2939L34.7415 73.3844C34.9029 72.7242 35.2424 72.1909 35.76 71.7846C36.2906 71.3682 36.8957 71.1599 37.5754 71.1599H45.5591L44.8885 73.9024H37.7518L37.1222 76.4773H43.7099L43.0319 79.2503ZM49.4317 73.0492H46.3574L46.9498 70.6267H50.024L49.4317 73.0492ZM46.9021 83.3945H43.8278L46.1488 73.9024H49.223L46.9021 83.3945ZM51.633 83.3945H48.5587L50.3581 76.0355C50.4351 75.7206 50.5581 75.4311 50.7273 75.167C50.9069 74.9029 51.1184 74.6795 51.3618 74.4966C51.6181 74.3037 51.8946 74.1564 52.1913 74.0548C52.488 73.9532 52.8037 73.9024 53.1383 73.9024H57.4987L56.843 76.584H53.2982L51.633 83.3945ZM65.9774 81.2615C65.8979 81.5865 65.7696 81.876 65.5925 82.1299C65.4234 82.394 65.2119 82.6175 64.958 82.8003C64.7122 82.9933 64.4357 83.1406 64.1285 83.2422C63.8318 83.3438 63.5214 83.3945 63.1972 83.3945H58.4133C57.7336 83.3945 57.2343 83.1914 56.9154 82.7851C56.6044 82.389 56.5297 81.8608 56.6911 81.2005L56.9444 80.1645H60.0187L59.8697 80.7739H63.0224L63.2869 79.6922H59.2401C58.5604 79.6922 58.0798 79.5195 57.7983 79.1741C57.5297 78.8186 57.4761 78.3108 57.6376 77.6505L58.0175 76.0964C58.179 75.4362 58.512 74.908 59.0167 74.5119C59.5343 74.1056 60.133 73.9024 60.8126 73.9024H65.3613C65.6855 73.9024 65.971 73.9532 66.2181 74.0548C66.4756 74.1564 66.6801 74.3037 66.8316 74.4966C66.996 74.6795 67.0982 74.9029 67.1382 75.167C67.1886 75.4311 67.1754 75.7206 67.0984 76.0355L66.8488 77.0563H63.7745L63.9049 76.5231H60.9875L60.7379 77.5439H64.7846C65.4434 77.5439 65.9197 77.6912 66.2137 77.9857C66.5206 78.2701 66.5958 78.7323 66.4393 79.3722L65.9774 81.2615ZM73.6053 83.3945H70.484C70.1494 83.3945 69.8585 83.3438 69.6115 83.2422C69.3645 83.1406 69.16 82.9933 68.998 82.8003C68.8441 82.6175 68.7418 82.394 68.6914 82.1299C68.6489 81.876 68.6674 81.5865 68.7469 81.2615L69.8906 76.584H68.1496L68.8053 73.9024H70.5463L71.2169 71.1599H74.2911L73.6205 73.9024H75.9262L75.2706 76.584H72.9649L71.9106 80.8958H74.2163L73.6053 83.3945Z" fill="black"/>
<path d="M43.0319 79.2503L42.5985 81.0226H44.423L44.8563 79.2503H43.0319ZM36.4442 79.2503L36.8775 77.4781H35.0531L34.6197 79.2503H36.4442ZM35.4309 83.3945L34.9975 85.1668H36.822L37.2553 83.3945H35.4309ZM32.2939 83.3945H30.4694L30.0361 85.1668H31.8605L32.2939 83.3945ZM35.76 71.7846L34.7764 70.5314L34.7764 70.5314L35.76 71.7846ZM45.5591 71.1599H47.3835L47.8169 69.3877H45.9924L45.5591 71.1599ZM44.8885 73.9024L44.4551 75.6747H46.2796L46.7129 73.9024H44.8885ZM37.7518 73.9024L38.1851 72.1302H36.3607L35.9273 73.9024H37.7518ZM37.1222 76.4773H35.2977L34.8644 78.2496H36.6889L37.1222 76.4773ZM43.7099 76.4773H45.5344L45.9677 74.7051H44.1432L43.7099 76.4773ZM43.0319 79.2503L43.4652 77.4781H36.8775L36.4442 79.2503L36.0108 81.0226H42.5985L43.0319 79.2503ZM36.4442 79.2503H34.6197L33.6064 83.3945H35.4309H37.2553L38.2686 79.2503H36.4442ZM35.4309 83.3945L35.8642 81.6223H32.7272L32.2939 83.3945L31.8605 85.1668H34.9975L35.4309 83.3945ZM32.2939 83.3945H34.1183L36.5659 73.3844H34.7415H32.917L30.4694 83.3945H32.2939ZM34.7415 73.3844H36.5659C36.631 73.1182 36.7134 73.0616 36.7437 73.0378L35.76 71.7846L34.7764 70.5314C33.7715 71.3202 33.1748 72.3301 32.917 73.3844H34.7415ZM35.76 71.7846L36.7437 73.0378C36.798 72.9952 36.8823 72.9322 37.1421 72.9322L37.5754 71.1599L38.0087 69.3877C36.9092 69.3877 35.7832 69.7411 34.7764 70.5314L35.76 71.7846ZM37.5754 71.1599L37.1421 72.9322H45.1257L45.5591 71.1599L45.9924 69.3877H38.0087L37.5754 71.1599ZM45.5591 71.1599H43.7346L43.064 73.9024H44.8885H46.7129L47.3835 71.1599H45.5591ZM44.8885 73.9024L45.3218 72.1302H38.1851L37.7518 73.9024L37.3185 75.6747H44.4551L44.8885 73.9024ZM37.7518 73.9024H35.9273L35.2977 76.4773H37.1222H38.9467L39.5763 73.9024H37.7518ZM37.1222 76.4773L36.6889 78.2496H43.2766L43.7099 76.4773L44.1432 74.7051H37.5555L37.1222 76.4773ZM43.7099 76.4773H41.8854L41.2074 79.2503H43.0319H44.8563L45.5344 76.4773H43.7099ZM49.4317 73.0492L48.9983 74.8215H50.8228L51.2561 73.0492H49.4317ZM46.3574 73.0492H44.533L44.0996 74.8215H45.9241L46.3574 73.0492ZM46.9498 70.6267L47.3831 68.8544H45.5586L45.1253 70.6267H46.9498ZM50.024 70.6267H51.8485L52.2818 68.8544H50.4574L50.024 70.6267ZM46.9021 83.3945L46.4688 85.1668H48.2932L48.7266 83.3945H46.9021ZM43.8278 83.3945H42.0034L41.57 85.1668H43.3945L43.8278 83.3945ZM46.1488 73.9024L46.5821 72.1302H44.7577L44.3243 73.9024H46.1488ZM49.223 73.9024H51.0475L51.4808 72.1302H49.6564L49.223 73.9024ZM49.4317 73.0492L49.865 71.277H46.7908L46.3574 73.0492L45.9241 74.8215H48.9983L49.4317 73.0492ZM46.3574 73.0492H48.1819L48.7742 70.6267H46.9498H45.1253L44.533 73.0492H46.3574ZM46.9498 70.6267L46.5164 72.3989H49.5907L50.024 70.6267L50.4574 68.8544H47.3831L46.9498 70.6267ZM50.024 70.6267H48.1996L47.6072 73.0492H49.4317H51.2561L51.8485 70.6267H50.024ZM46.9021 83.3945L47.3354 81.6223H44.2612L43.8278 83.3945L43.3945 85.1668H46.4688L46.9021 83.3945ZM43.8278 83.3945H45.6523L47.9732 73.9024H46.1488H44.3243L42.0034 83.3945H43.8278ZM46.1488 73.9024L45.7154 75.6747H48.7897L49.223 73.9024L49.6564 72.1302H46.5821L46.1488 73.9024ZM49.223 73.9024H47.3986L45.0776 83.3945H46.9021H48.7266L51.0475 73.9024H49.223ZM51.633 83.3945L51.1996 85.1668H53.0241L53.4574 83.3945H51.633ZM48.5587 83.3945H46.7342L46.3009 85.1668H48.1254L48.5587 83.3945ZM50.7273 75.167L49.2159 74.4765L49.1975 74.5035L49.18 74.5308L50.7273 75.167ZM51.3618 74.4966L52.3019 75.7832L52.3042 75.7815L51.3618 74.4966ZM52.1913 74.0548L52.4418 75.7089V75.7089L52.1913 74.0548ZM57.4987 73.9024H59.3232L59.7565 72.1302H57.932L57.4987 73.9024ZM56.843 76.584L56.4097 78.3562H58.2342L58.6675 76.584H56.843ZM53.2982 76.584L53.7316 74.8117H51.9071L51.4738 76.584H53.2982ZM51.633 83.3945L52.0663 81.6223H48.992L48.5587 83.3945L48.1254 85.1668H51.1996L51.633 83.3945ZM48.5587 83.3945H50.3832L52.1825 76.0355H50.3581H48.5336L46.7342 83.3945H48.5587ZM50.3581 76.0355H52.1825C52.2123 75.9137 52.2493 75.8427 52.2746 75.8032L50.7273 75.167L49.18 74.5308C48.867 75.0196 48.6578 75.5276 48.5336 76.0355H50.3581ZM50.7273 75.167L52.2387 75.8576C52.2774 75.8006 52.2994 75.7851 52.3019 75.7832L51.3618 74.4966L50.4216 73.2101C49.9373 73.5739 49.5363 74.0053 49.2159 74.4765L50.7273 75.167ZM51.3618 74.4966L52.3042 75.7815C52.3455 75.7504 52.3866 75.7278 52.4418 75.7089L52.1913 74.0548L51.9408 72.4007C51.4026 72.5849 50.8906 72.8569 50.4193 73.2118L51.3618 74.4966ZM52.1913 74.0548L52.4418 75.7089C52.4791 75.6961 52.5614 75.6747 52.7049 75.6747L53.1383 73.9024L53.5716 72.1302C53.046 72.1302 52.4969 72.2103 51.9408 72.4007L52.1913 74.0548ZM53.1383 73.9024L52.7049 75.6747H57.0654L57.4987 73.9024L57.932 72.1302H53.5716L53.1383 73.9024ZM57.4987 73.9024H55.6742L55.0186 76.584H56.843H58.6675L59.3232 73.9024H57.4987ZM56.843 76.584L57.2764 74.8117H53.7316L53.2982 76.584L52.8649 78.3562H56.4097L56.843 76.584ZM53.2982 76.584H51.4738L49.8085 83.3945H51.633H53.4574L55.1227 76.584H53.2982ZM65.5925 82.1299L64.0971 81.4162L64.0703 81.4546L64.0452 81.4937L65.5925 82.1299ZM64.958 82.8003L64.0596 81.483L64.0164 81.5142L63.9744 81.5472L64.958 82.8003ZM64.1285 83.2422L63.9012 81.5803L63.8896 81.5841L63.878 81.5881L64.1285 83.2422ZM56.9154 82.7851L58.5119 81.5319V81.5319L56.9154 82.7851ZM56.9444 80.1645L57.3778 78.3922H55.5533L55.12 80.1645H56.9444ZM60.0187 80.1645H61.8431L62.2765 78.3922H60.452L60.0187 80.1645ZM59.8697 80.7739H58.0452L57.6119 82.5462H59.4363L59.8697 80.7739ZM63.0224 80.7739L62.589 82.5462H64.4135L64.8468 80.7739H63.0224ZM63.2869 79.6922H65.1113L65.5447 77.9199H63.7202L63.2869 79.6922ZM57.7983 79.1741L56.1877 80.409L56.2016 80.4274L56.2162 80.4453L57.7983 79.1741ZM59.0167 74.5119L58.033 73.2587V73.2587L59.0167 74.5119ZM66.2181 74.0548L65.1587 75.7089L65.1683 75.7129L65.1781 75.7167L66.2181 74.0548ZM66.8316 74.4966L65.235 75.7498L65.2609 75.7828L65.289 75.8139L66.8316 74.4966ZM67.1382 75.167L65.2798 75.8032L65.2839 75.8306L65.2891 75.8576L67.1382 75.167ZM66.8488 77.0563L66.4154 78.8286H68.2399L68.6732 77.0563H66.8488ZM63.7745 77.0563H61.9501L61.5167 78.8286H63.3412L63.7745 77.0563ZM63.9049 76.5231H65.7294L66.1627 74.7508H64.3382L63.9049 76.5231ZM60.9875 76.5231L61.4208 74.7508H59.5964L59.163 76.5231H60.9875ZM60.7379 77.5439H58.9134L58.4801 79.3161H60.3045L60.7379 77.5439ZM66.2137 77.9857L64.716 79.3504L64.7334 79.3679L64.7515 79.3846L66.2137 77.9857ZM65.9774 81.2615H64.1529C64.1234 81.3825 64.0927 81.4225 64.0971 81.4162L65.5925 82.1299L67.0879 82.8437C67.4465 82.3296 67.6725 81.7906 67.8019 81.2615H65.9774ZM65.5925 82.1299L64.0452 81.4937C64.0417 81.4993 64.0398 81.5017 64.0397 81.5017C64.0397 81.5018 64.04 81.5014 64.0408 81.5005C64.0415 81.4997 64.0425 81.4986 64.0437 81.4972C64.0464 81.4944 64.0495 81.4914 64.0528 81.4886C64.0561 81.4857 64.0585 81.4838 64.0596 81.483L64.958 82.8003L65.8564 84.1176C66.3791 83.7412 66.8097 83.2815 67.1398 82.7661L65.5925 82.1299ZM64.958 82.8003L63.9744 81.5472C63.9716 81.5493 63.9677 81.5522 63.9598 81.5564C63.9516 81.5607 63.9333 81.5696 63.9012 81.5803L64.1285 83.2422L64.3558 84.9041C64.9117 84.7203 65.4496 84.4398 65.9417 84.0535L64.958 82.8003ZM64.1285 83.2422L63.878 81.5881C63.8337 81.6032 63.756 81.6223 63.6305 81.6223L63.1972 83.3945L62.7639 85.1668C63.2868 85.1668 63.8299 85.0843 64.379 84.8963L64.1285 83.2422ZM63.1972 83.3945L63.6305 81.6223H58.8466L58.4133 83.3945L57.9799 85.1668H62.7639L63.1972 83.3945ZM58.4133 83.3945L58.8466 81.6223C58.5726 81.6223 58.5306 81.5557 58.5119 81.5319L56.9154 82.7851L55.3189 84.0383C55.938 84.8271 56.8946 85.1668 57.9799 85.1668L58.4133 83.3945ZM56.9154 82.7851L58.5119 81.5319C58.4978 81.514 58.4906 81.4985 58.4865 81.4696C58.4817 81.4352 58.4781 81.3537 58.5156 81.2005H56.6911H54.8666C54.6124 82.2405 54.7008 83.2509 55.3189 84.0383L56.9154 82.7851ZM56.6911 81.2005H58.5156L58.7689 80.1645H56.9444H55.12L54.8666 81.2005H56.6911ZM56.9444 80.1645L56.5111 81.9367H59.5853L60.0187 80.1645L60.452 78.3922H57.3778L56.9444 80.1645ZM60.0187 80.1645H58.1942L58.0452 80.7739H59.8697H61.6941L61.8431 80.1645H60.0187ZM59.8697 80.7739L59.4363 82.5462H62.589L63.0224 80.7739L63.4557 79.0017H60.303L59.8697 80.7739ZM63.0224 80.7739H64.8468L65.1113 79.6922H63.2869H61.4624L61.1979 80.7739H63.0224ZM63.2869 79.6922L63.7202 77.9199H59.6735L59.2401 79.6922L58.8068 81.4644H62.8535L63.2869 79.6922ZM59.2401 79.6922L59.6735 77.9199C59.489 77.9199 59.3991 77.8961 59.3675 77.8847C59.343 77.8759 59.3598 77.8777 59.3804 77.9029L57.7983 79.1741L56.2162 80.4453C56.8373 81.2072 57.8146 81.4644 58.8068 81.4644L59.2401 79.6922ZM57.7983 79.1741L59.4089 77.9393C59.4285 77.9652 59.4262 77.982 59.4235 77.9561C59.42 77.9227 59.4182 77.8297 59.462 77.6505H57.6376H55.8131C55.5774 78.6143 55.5952 79.6247 56.1877 80.409L57.7983 79.1741ZM57.6376 77.6505H59.462L59.842 76.0964H58.0175H56.1931L55.8131 77.6505H57.6376ZM58.0175 76.0964H59.842C59.8795 75.9433 59.9229 75.8618 59.9446 75.8274C59.9628 75.7985 59.9776 75.783 60.0004 75.7651L59.0167 74.5119L58.033 73.2587C57.03 74.046 56.4474 75.0565 56.1931 76.0964H58.0175ZM59.0167 74.5119L60.0004 75.7651C60.0307 75.7413 60.1053 75.6747 60.3793 75.6747L60.8126 73.9024L61.246 72.1302C60.1607 72.1302 59.0379 72.4699 58.033 73.2587L59.0167 74.5119ZM60.8126 73.9024L60.3793 75.6747H64.928L65.3613 73.9024L65.7946 72.1302H61.246L60.8126 73.9024ZM65.3613 73.9024L64.928 75.6747C65.0534 75.6747 65.1218 75.6938 65.1587 75.7089L66.2181 74.0548L67.2775 72.4007C66.8203 72.2127 66.3175 72.1302 65.7946 72.1302L65.3613 73.9024ZM66.2181 74.0548L65.1781 75.7167C65.205 75.7273 65.2189 75.7362 65.225 75.7406C65.2308 75.7448 65.2333 75.7476 65.235 75.7498L66.8316 74.4966L68.4281 73.2435C68.1248 72.8572 67.7241 72.5767 67.2581 72.3929L66.2181 74.0548ZM66.8316 74.4966L65.289 75.8139C65.2882 75.8131 65.2867 75.8113 65.2848 75.8084C65.2829 75.8056 65.2813 75.8026 65.28 75.7997C65.2794 75.7984 65.2789 75.7973 65.2786 75.7965C65.2783 75.7956 65.2782 75.7952 65.2782 75.7952C65.2782 75.7953 65.2789 75.7977 65.2798 75.8032L67.1382 75.167L68.9966 74.5308C68.9185 74.0155 68.7127 73.5558 68.3742 73.1793L66.8316 74.4966ZM67.1382 75.167L65.2891 75.8576C65.2939 75.8826 65.2986 75.9345 65.2739 76.0355H67.0984H68.9228C69.0521 75.5068 69.0834 74.9796 68.9873 74.4765L67.1382 75.167ZM67.0984 76.0355H65.2739L65.0243 77.0563H66.8488H68.6732L68.9228 76.0355H67.0984ZM66.8488 77.0563L67.2821 75.2841H64.2078L63.7745 77.0563L63.3412 78.8286H66.4154L66.8488 77.0563ZM63.7745 77.0563H65.599L65.7294 76.5231H63.9049H62.0804L61.9501 77.0563H63.7745ZM63.9049 76.5231L64.3382 74.7508H61.4208L60.9875 76.5231L60.5542 78.2953H63.4716L63.9049 76.5231ZM60.9875 76.5231H59.163L58.9134 77.5439H60.7379H62.5623L62.812 76.5231H60.9875ZM60.7379 77.5439L60.3045 79.3161H64.3513L64.7846 77.5439L65.218 75.7716H61.1712L60.7379 77.5439ZM64.7846 77.5439L64.3513 79.3161C64.7477 79.3161 64.7705 79.405 64.716 79.3504L66.2137 77.9857L67.7114 76.621C67.069 75.9773 66.139 75.7716 65.218 75.7716L64.7846 77.5439ZM66.2137 77.9857L64.7515 79.3846C64.72 79.3555 64.6932 79.32 64.6736 79.2817C64.6543 79.2439 64.6469 79.2131 64.6444 79.1976C64.64 79.1709 64.6535 79.2142 64.6149 79.3722H66.4393H68.2638C68.4998 78.4072 68.4703 77.323 67.6759 76.5868L66.2137 77.9857ZM66.4393 79.3722H64.6149L64.1529 81.2615H65.9774H67.8019L68.2638 79.3722H66.4393ZM73.6053 83.3945L73.1719 85.1668H74.9964L75.4297 83.3945H73.6053ZM69.6115 83.2422L70.6709 81.5881V81.5881L69.6115 83.2422ZM68.998 82.8003L70.5688 81.5155L70.5674 81.5138L68.998 82.8003ZM68.6914 82.1299L66.8365 82.7881L66.8392 82.8044L66.8423 82.8205L68.6914 82.1299ZM69.8906 76.584H71.7151L72.1484 74.8117H70.3239L69.8906 76.584ZM68.1496 76.584H66.3251L65.8918 78.3562H67.7162L68.1496 76.584ZM68.8053 73.9024L69.2386 72.1302H67.4141L66.9808 73.9024H68.8053ZM70.5463 73.9024L70.1129 75.6747H71.9374L72.3707 73.9024H70.5463ZM71.2169 71.1599L71.6502 69.3877H69.8257L69.3924 71.1599H71.2169ZM74.2911 71.1599H76.1156L76.5489 69.3877H74.7245L74.2911 71.1599ZM73.6205 73.9024H71.7961L71.3627 75.6747H73.1872L73.6205 73.9024ZM75.9262 73.9024H77.7507L78.184 72.1302H76.3596L75.9262 73.9024ZM75.2706 76.584L74.8372 78.3562H76.6617L77.095 76.584H75.2706ZM72.9649 76.584L73.3982 74.8117H71.5737L71.1404 76.584H72.9649ZM71.9106 80.8958H70.0861L69.6528 82.6681H71.4772L71.9106 80.8958ZM74.2163 80.8958H76.0407L76.4741 79.1236H74.6496L74.2163 80.8958ZM73.6053 83.3945L74.0386 81.6223H70.9173L70.484 83.3945L70.0506 85.1668H73.1719L73.6053 83.3945ZM70.484 83.3945L70.9173 81.6223C70.7737 81.6223 70.702 81.6008 70.6709 81.5881L69.6115 83.2422L68.5521 84.8963C69.0151 85.0867 69.525 85.1668 70.0506 85.1668L70.484 83.3945ZM69.6115 83.2422L70.6709 81.5881C70.625 81.5692 70.5949 81.5466 70.5688 81.5155L68.998 82.8003L67.4273 84.0852C67.725 84.4401 68.104 84.7121 68.5521 84.8963L69.6115 83.2422ZM68.998 82.8003L70.5674 81.5138C70.5658 81.5119 70.5514 81.4964 70.5405 81.4394L68.6914 82.1299L66.8423 82.8205C66.9323 83.2917 67.1223 83.7231 67.4287 84.0869L68.998 82.8003ZM68.6914 82.1299L70.5463 81.4718C70.5448 81.4626 70.5368 81.4027 70.5714 81.2615H68.7469H66.9224C66.798 81.7704 66.7531 82.2894 66.8365 82.7881L68.6914 82.1299ZM68.7469 81.2615H70.5714L71.7151 76.584H69.8906H68.0661L66.9224 81.2615H68.7469ZM69.8906 76.584L70.3239 74.8117H68.5829L68.1496 76.584L67.7162 78.3562H69.4573L69.8906 76.584ZM68.1496 76.584H69.974L70.6297 73.9024H68.8053H66.9808L66.3251 76.584H68.1496ZM68.8053 73.9024L68.3719 75.6747H70.1129L70.5463 73.9024L70.9796 72.1302H69.2386L68.8053 73.9024ZM70.5463 73.9024H72.3707L73.0413 71.1599H71.2169H69.3924L68.7218 73.9024H70.5463ZM71.2169 71.1599L70.7835 72.9322H73.8578L74.2911 71.1599L74.7245 69.3877H71.6502L71.2169 71.1599ZM74.2911 71.1599H72.4667L71.7961 73.9024H73.6205H75.445L76.1156 71.1599H74.2911ZM73.6205 73.9024L73.1872 75.6747H75.4929L75.9262 73.9024L76.3596 72.1302H74.0539L73.6205 73.9024ZM75.9262 73.9024H74.1018L73.4461 76.584H75.2706H77.095L77.7507 73.9024H75.9262ZM75.2706 76.584L75.7039 74.8117H73.3982L72.9649 76.584L72.5315 78.3562H74.8372L75.2706 76.584ZM72.9649 76.584H71.1404L70.0861 80.8958H71.9106H73.735L74.7893 76.584H72.9649ZM71.9106 80.8958L71.4772 82.6681H73.7829L74.2163 80.8958L74.6496 79.1236H72.3439L71.9106 80.8958ZM74.2163 80.8958H72.3918L71.7808 83.3945H73.6053H75.4297L76.0407 80.8958H74.2163Z" fill="white" mask="url(#path-9-outside-1_91_2431)"/>
<mask id="path-11-outside-2_91_2431" maskUnits="userSpaceOnUse" x="22.5859" y="83.7676" width="59.3252" height="13.5994" fill="black">
<rect fill="white" x="22.5859" y="83.7676" width="59.3252" height="13.5994"/>
<path d="M35.5191 93.7319C35.3874 94.2705 35.1062 94.7055 34.6754 95.037C34.2511 95.3767 33.7617 95.5466 33.2073 95.5466H27.6157C27.0612 95.5466 26.6506 95.3767 26.384 95.037C26.1238 94.7055 26.0596 94.2705 26.1913 93.7319L27.7442 87.3806C27.8759 86.842 28.1529 86.407 28.5752 86.0755C29.008 85.7358 29.5016 85.5659 30.0561 85.5659H35.6477C36.2021 85.5659 36.6084 85.7358 36.8666 86.0755C37.1353 86.407 37.2038 86.842 37.0721 87.3806L36.6253 89.2077H34.0663L34.4097 87.8032H30.2L28.8537 93.3093H33.0633L33.4584 91.6935H36.0175L35.5191 93.7319ZM44.476 93.7816C44.4112 94.0468 44.3055 94.2871 44.159 94.5025C44.021 94.718 43.8485 94.9002 43.6414 95.0494C43.4408 95.2068 43.2152 95.327 42.9647 95.4098C42.7206 95.501 42.4663 95.5466 42.2019 95.5466H38.1714C37.8984 95.5466 37.6622 95.501 37.4627 95.4098C37.2611 95.327 37.0943 95.2068 36.9622 95.0494C36.8366 94.9002 36.7532 94.718 36.7121 94.5025C36.6794 94.2871 36.6955 94.0468 36.7604 93.7816L37.7967 89.5433C37.8595 89.2864 37.9599 89.0502 38.0979 88.8348C38.2444 88.6194 38.4169 88.4371 38.6155 88.2879C38.8246 88.1305 39.0502 88.0103 39.2922 87.9275C39.5343 87.8446 39.7918 87.8032 40.0647 87.8032H44.0953C44.3597 87.8032 44.5927 87.8446 44.7942 87.9275C45.0043 88.0103 45.1711 88.1305 45.2947 88.2879C45.4288 88.4371 45.5122 88.6194 45.5448 88.8348C45.586 89.0502 45.5751 89.2864 45.5123 89.5433L44.476 93.7816ZM42.0714 93.359L42.895 89.9907H40.1952L39.3716 93.359H42.0714ZM53.4483 93.7816C53.3835 94.0468 53.2778 94.2871 53.1313 94.5025C52.9934 94.718 52.8208 94.9002 52.6137 95.0494C52.4132 95.2068 52.1876 95.327 51.937 95.4098C51.693 95.501 51.4387 95.5466 51.1743 95.5466H47.1437C46.8707 95.5466 46.6345 95.501 46.435 95.4098C46.2335 95.327 46.0667 95.2068 45.9346 95.0494C45.809 94.9002 45.7256 94.718 45.6844 94.5025C45.6518 94.2871 45.6679 94.0468 45.7327 93.7816L47.1945 87.8032H49.7024L48.344 93.359H51.0438L52.4023 87.8032H54.9102L53.4483 93.7816ZM56.8058 95.5466H54.2979L55.7658 89.5433C55.8286 89.2864 55.929 89.0502 56.067 88.8348C56.2135 88.6194 56.386 88.4371 56.5846 88.2879C56.7937 88.1305 57.0193 88.0103 57.2613 87.9275C57.5034 87.8446 57.7609 87.8032 58.0338 87.8032H61.5909L61.0561 89.9907H58.1643L56.8058 95.5466ZM68.5076 93.8065C68.4428 94.0716 68.3381 94.3078 68.1936 94.5149C68.0557 94.7304 67.8831 94.9127 67.6761 95.0618C67.4755 95.2193 67.2499 95.3394 66.9993 95.4223C66.7573 95.5051 66.5041 95.5466 66.2396 95.5466H62.337C61.7826 95.5466 61.3752 95.3808 61.1151 95.0494C60.8614 94.7262 60.8004 94.2954 60.9321 93.7568L61.1388 92.9116H63.6467L63.5251 93.4087H66.097L66.3128 92.5263H63.0116C62.4571 92.5263 62.065 92.3854 61.8353 92.1037C61.6162 91.8137 61.5725 91.3994 61.7042 90.8608L62.0142 89.593C62.1459 89.0544 62.4176 88.6235 62.8293 88.3003C63.2515 87.9689 63.7399 87.8032 64.2944 87.8032H68.005C68.2695 87.8032 68.5024 87.8446 68.704 87.9275C68.914 88.0103 69.0808 88.1305 69.2044 88.2879C69.3386 88.4371 69.4219 88.6194 69.4546 88.8348C69.4957 89.0502 69.4849 89.2864 69.4221 89.5433L69.2185 90.376H66.7106L66.8169 89.941H64.437L64.2334 90.7737H67.5346C68.072 90.7737 68.4606 90.8939 68.7004 91.1342C68.9508 91.3662 69.0121 91.7432 68.8845 92.2653L68.5076 93.8065ZM77.3047 93.7568C77.173 94.2954 76.8971 94.7262 76.4768 95.0494C76.0631 95.3808 75.579 95.5466 75.0245 95.5466H71.122C70.849 95.5466 70.6117 95.5051 70.4102 95.4223C70.2087 95.3394 70.0419 95.2193 69.9098 95.0618C69.7842 94.9127 69.7008 94.7304 69.6596 94.5149C69.625 94.3078 69.6401 94.0716 69.7049 93.8065L70.7473 89.5433C70.8101 89.2864 70.9105 89.0502 71.0485 88.8348C71.195 88.6194 71.3675 88.4371 71.5661 88.2879C71.7752 88.1305 72.0008 88.0103 72.2428 87.9275C72.4848 87.8446 72.7424 87.8032 73.0153 87.8032H77.0459C77.6003 87.8032 78.0034 87.9689 78.255 88.3003C78.5172 88.6235 78.5825 89.0544 78.4508 89.593L78.1286 90.9105C77.9969 91.4491 77.7463 91.8634 77.3769 92.1534C77.018 92.4351 76.5613 92.576 76.0068 92.576H72.5137L72.31 93.4087H74.8819L74.9944 92.9489H77.5023L77.3047 93.7568ZM75.642 90.8235L75.8578 89.941H73.158L72.9422 90.8235H75.642Z"/>
</mask>
<path d="M35.5191 93.7319C35.3874 94.2705 35.1062 94.7055 34.6754 95.037C34.2511 95.3767 33.7617 95.5466 33.2073 95.5466H27.6157C27.0612 95.5466 26.6506 95.3767 26.384 95.037C26.1238 94.7055 26.0596 94.2705 26.1913 93.7319L27.7442 87.3806C27.8759 86.842 28.1529 86.407 28.5752 86.0755C29.008 85.7358 29.5016 85.5659 30.0561 85.5659H35.6477C36.2021 85.5659 36.6084 85.7358 36.8666 86.0755C37.1353 86.407 37.2038 86.842 37.0721 87.3806L36.6253 89.2077H34.0663L34.4097 87.8032H30.2L28.8537 93.3093H33.0633L33.4584 91.6935H36.0175L35.5191 93.7319ZM44.476 93.7816C44.4112 94.0468 44.3055 94.2871 44.159 94.5025C44.021 94.718 43.8485 94.9002 43.6414 95.0494C43.4408 95.2068 43.2152 95.327 42.9647 95.4098C42.7206 95.501 42.4663 95.5466 42.2019 95.5466H38.1714C37.8984 95.5466 37.6622 95.501 37.4627 95.4098C37.2611 95.327 37.0943 95.2068 36.9622 95.0494C36.8366 94.9002 36.7532 94.718 36.7121 94.5025C36.6794 94.2871 36.6955 94.0468 36.7604 93.7816L37.7967 89.5433C37.8595 89.2864 37.9599 89.0502 38.0979 88.8348C38.2444 88.6194 38.4169 88.4371 38.6155 88.2879C38.8246 88.1305 39.0502 88.0103 39.2922 87.9275C39.5343 87.8446 39.7918 87.8032 40.0647 87.8032H44.0953C44.3597 87.8032 44.5927 87.8446 44.7942 87.9275C45.0043 88.0103 45.1711 88.1305 45.2947 88.2879C45.4288 88.4371 45.5122 88.6194 45.5448 88.8348C45.586 89.0502 45.5751 89.2864 45.5123 89.5433L44.476 93.7816ZM42.0714 93.359L42.895 89.9907H40.1952L39.3716 93.359H42.0714ZM53.4483 93.7816C53.3835 94.0468 53.2778 94.2871 53.1313 94.5025C52.9934 94.718 52.8208 94.9002 52.6137 95.0494C52.4132 95.2068 52.1876 95.327 51.937 95.4098C51.693 95.501 51.4387 95.5466 51.1743 95.5466H47.1437C46.8707 95.5466 46.6345 95.501 46.435 95.4098C46.2335 95.327 46.0667 95.2068 45.9346 95.0494C45.809 94.9002 45.7256 94.718 45.6844 94.5025C45.6518 94.2871 45.6679 94.0468 45.7327 93.7816L47.1945 87.8032H49.7024L48.344 93.359H51.0438L52.4023 87.8032H54.9102L53.4483 93.7816ZM56.8058 95.5466H54.2979L55.7658 89.5433C55.8286 89.2864 55.929 89.0502 56.067 88.8348C56.2135 88.6194 56.386 88.4371 56.5846 88.2879C56.7937 88.1305 57.0193 88.0103 57.2613 87.9275C57.5034 87.8446 57.7609 87.8032 58.0338 87.8032H61.5909L61.0561 89.9907H58.1643L56.8058 95.5466ZM68.5076 93.8065C68.4428 94.0716 68.3381 94.3078 68.1936 94.5149C68.0557 94.7304 67.8831 94.9127 67.6761 95.0618C67.4755 95.2193 67.2499 95.3394 66.9993 95.4223C66.7573 95.5051 66.5041 95.5466 66.2396 95.5466H62.337C61.7826 95.5466 61.3752 95.3808 61.1151 95.0494C60.8614 94.7262 60.8004 94.2954 60.9321 93.7568L61.1388 92.9116H63.6467L63.5251 93.4087H66.097L66.3128 92.5263H63.0116C62.4571 92.5263 62.065 92.3854 61.8353 92.1037C61.6162 91.8137 61.5725 91.3994 61.7042 90.8608L62.0142 89.593C62.1459 89.0544 62.4176 88.6235 62.8293 88.3003C63.2515 87.9689 63.7399 87.8032 64.2944 87.8032H68.005C68.2695 87.8032 68.5024 87.8446 68.704 87.9275C68.914 88.0103 69.0808 88.1305 69.2044 88.2879C69.3386 88.4371 69.4219 88.6194 69.4546 88.8348C69.4957 89.0502 69.4849 89.2864 69.4221 89.5433L69.2185 90.376H66.7106L66.8169 89.941H64.437L64.2334 90.7737H67.5346C68.072 90.7737 68.4606 90.8939 68.7004 91.1342C68.9508 91.3662 69.0121 91.7432 68.8845 92.2653L68.5076 93.8065ZM77.3047 93.7568C77.173 94.2954 76.8971 94.7262 76.4768 95.0494C76.0631 95.3808 75.579 95.5466 75.0245 95.5466H71.122C70.849 95.5466 70.6117 95.5051 70.4102 95.4223C70.2087 95.3394 70.0419 95.2193 69.9098 95.0618C69.7842 94.9127 69.7008 94.7304 69.6596 94.5149C69.625 94.3078 69.6401 94.0716 69.7049 93.8065L70.7473 89.5433C70.8101 89.2864 70.9105 89.0502 71.0485 88.8348C71.195 88.6194 71.3675 88.4371 71.5661 88.2879C71.7752 88.1305 72.0008 88.0103 72.2428 87.9275C72.4848 87.8446 72.7424 87.8032 73.0153 87.8032H77.0459C77.6003 87.8032 78.0034 87.9689 78.255 88.3003C78.5172 88.6235 78.5825 89.0544 78.4508 89.593L78.1286 90.9105C77.9969 91.4491 77.7463 91.8634 77.3769 92.1534C77.018 92.4351 76.5613 92.576 76.0068 92.576H72.5137L72.31 93.4087H74.8819L74.9944 92.9489H77.5023L77.3047 93.7568ZM75.642 90.8235L75.8578 89.941H73.158L72.9422 90.8235H75.642Z" fill="black"/>
<path d="M34.6754 95.037L33.7115 93.7684L33.6916 93.7837L33.6721 93.7994L34.6754 95.037ZM26.384 95.037L24.7875 96.2901H24.7875L26.384 95.037ZM28.5752 86.0755L27.5915 84.8223H27.5915L28.5752 86.0755ZM36.8666 86.0755L35.258 87.3131L35.2699 87.3288L35.2823 87.344L36.8666 86.0755ZM36.6253 89.2077L36.192 90.9799H38.0164L38.4498 89.2077H36.6253ZM34.0663 89.2077H32.2418L31.8085 90.9799H33.6329L34.0663 89.2077ZM34.4097 87.8032H36.2341L36.6675 86.0309H34.843L34.4097 87.8032ZM30.2 87.8032L30.6333 86.0309H28.8089L28.3755 87.8032H30.2ZM28.8537 93.3093H27.0292L26.5959 95.0816H28.4203L28.8537 93.3093ZM33.0633 93.3093L32.63 95.0816H34.4545L34.8878 93.3093H33.0633ZM33.4584 91.6935L33.8918 89.9213H32.0673L31.634 91.6935H33.4584ZM36.0175 91.6935H37.842L38.2753 89.9213H36.4508L36.0175 91.6935ZM35.5191 93.7319H33.6946C33.6845 93.7735 33.6748 93.7992 33.6695 93.8118C33.6643 93.824 33.6628 93.8248 33.6675 93.8175C33.6725 93.8099 33.6805 93.7991 33.691 93.7877C33.7015 93.7765 33.7095 93.77 33.7115 93.7684L34.6754 95.037L35.6393 96.3055C36.5635 95.5944 37.1123 94.6778 37.3436 93.7319H35.5191ZM34.6754 95.037L33.6721 93.7994C33.674 93.7978 33.6822 93.7916 33.6957 93.7841C33.7092 93.7765 33.7216 93.7713 33.7302 93.7683C33.7384 93.7655 33.7373 93.7667 33.7242 93.7688C33.7107 93.771 33.6834 93.7743 33.6406 93.7743L33.2073 95.5466L32.7739 97.3188C33.7476 97.3188 34.7684 97.0035 35.6787 96.2746L34.6754 95.037ZM33.2073 95.5466L33.6406 93.7743H28.049L27.6157 95.5466L27.1823 97.3188H32.7739L33.2073 95.5466ZM27.6157 95.5466L28.049 93.7743C28.0063 93.7743 27.9798 93.771 27.966 93.7686C27.9526 93.7663 27.95 93.7645 27.9542 93.7663C27.9587 93.7681 27.9656 93.7717 27.9725 93.7769C27.9793 93.782 27.9817 93.7854 27.9805 93.7838L26.384 95.037L24.7875 96.2901C25.3476 97.0037 26.208 97.3188 27.1823 97.3188L27.6157 95.5466ZM26.384 95.037L27.9805 93.7838C27.9825 93.7864 27.9874 93.7935 27.9921 93.8045C27.9967 93.8156 27.999 93.8254 27.9999 93.8312C28.0018 93.8442 27.9944 93.8189 28.0157 93.7319H26.1913H24.3668C24.1388 94.6645 24.2271 95.5762 24.7875 96.2901L26.384 95.037ZM26.1913 93.7319H28.0157L29.5687 87.3806H27.7442H25.9198L24.3668 93.7319H26.1913ZM27.7442 87.3806H29.5687C29.59 87.2935 29.6097 87.2683 29.6014 87.2813C29.5977 87.2871 29.5907 87.2969 29.5806 87.308C29.5705 87.319 29.5622 87.326 29.5588 87.3287L28.5752 86.0755L27.5915 84.8223C26.682 85.5363 26.1478 86.4479 25.9198 87.3806H27.7442ZM28.5752 86.0755L29.5588 87.3287C29.5608 87.3271 29.5567 87.3305 29.5474 87.3356C29.538 87.3408 29.5294 87.3444 29.524 87.3462C29.5189 87.348 29.5224 87.3462 29.537 87.3439C29.5519 87.3414 29.58 87.3382 29.6227 87.3382L30.0561 85.5659L30.4894 83.7937C29.5151 83.7937 28.5006 84.1087 27.5915 84.8223L28.5752 86.0755ZM30.0561 85.5659L29.6227 87.3382H35.2143L35.6477 85.5659L36.081 83.7937H30.4894L30.0561 85.5659ZM35.6477 85.5659L35.2143 87.3382C35.2571 87.3382 35.2828 87.3414 35.2953 87.3436C35.3073 87.3458 35.3078 87.347 35.301 87.3442C35.2938 87.3412 35.284 87.3359 35.2742 87.3284C35.2644 87.3209 35.2592 87.3147 35.258 87.3131L36.8666 86.0755L38.4751 84.8379C37.9213 84.109 37.0547 83.7937 36.081 83.7937L35.6477 85.5659ZM36.8666 86.0755L35.2823 87.344C35.2811 87.3425 35.2763 87.336 35.2713 87.3247C35.2663 87.3134 35.2636 87.3026 35.2624 87.295C35.2612 87.2877 35.2623 87.2885 35.2615 87.3006C35.2607 87.3132 35.2578 87.339 35.2476 87.3806H37.0721H38.8965C39.1278 86.4347 39.0273 85.5181 38.4508 84.807L36.8666 86.0755ZM37.0721 87.3806H35.2476L34.8009 89.2077H36.6253H38.4498L38.8965 87.3806H37.0721ZM36.6253 89.2077L37.0587 87.4354H34.4996L34.0663 89.2077L33.6329 90.9799H36.192L36.6253 89.2077ZM34.0663 89.2077H35.8907L36.2341 87.8032H34.4097H32.5852L32.2418 89.2077H34.0663ZM34.4097 87.8032L34.843 86.0309H30.6333L30.2 87.8032L29.7667 89.5754H33.9763L34.4097 87.8032ZM30.2 87.8032H28.3755L27.0292 93.3093H28.8537H30.6781L32.0245 87.8032H30.2ZM28.8537 93.3093L28.4203 95.0816H32.63L33.0633 93.3093L33.4967 91.5371H29.287L28.8537 93.3093ZM33.0633 93.3093H34.8878L35.2829 91.6935H33.4584H31.634L31.2389 93.3093H33.0633ZM33.4584 91.6935L33.0251 93.4658H35.5842L36.0175 91.6935L36.4508 89.9213H33.8918L33.4584 91.6935ZM36.0175 91.6935H34.193L33.6946 93.7319H35.5191H37.3436L37.842 91.6935H36.0175ZM44.159 94.5025L42.6476 93.812L42.6292 93.839L42.6117 93.8663L44.159 94.5025ZM43.6414 95.0494L42.743 93.7321L42.6997 93.7633L42.6577 93.7962L43.6414 95.0494ZM42.9647 95.4098L42.7374 93.7479L42.695 93.7619L42.6529 93.7777L42.9647 95.4098ZM37.4627 95.4098L38.5726 93.7777L38.5476 93.7662L38.5221 93.7557L37.4627 95.4098ZM36.9622 95.0494L38.533 93.7645L38.5316 93.7628L36.9622 95.0494ZM36.7121 94.5025L34.8537 95.1387L34.8578 95.1661L34.863 95.1931L36.7121 94.5025ZM38.0979 88.8348L36.5865 88.1443L36.5681 88.1712L36.5506 88.1986L38.0979 88.8348ZM38.6155 88.2879L39.5557 89.5745L39.5579 89.5728L38.6155 88.2879ZM39.2922 87.9275L39.0417 86.2733V86.2733L39.2922 87.9275ZM44.7942 87.9275L43.7348 89.5816L43.7445 89.5855L43.7542 89.5894L44.7942 87.9275ZM45.2947 88.2879L43.6982 89.5411L43.724 89.574L43.7521 89.6052L45.2947 88.2879ZM45.5448 88.8348L43.6864 89.471L43.6905 89.4983L43.6957 89.5253L45.5448 88.8348ZM42.0714 93.359L41.6381 95.1313H43.4625L43.8959 93.359H42.0714ZM42.895 89.9907H44.7195L45.1528 88.2185H43.3284L42.895 89.9907ZM40.1952 89.9907L40.6285 88.2185H38.8041L38.3707 89.9907H40.1952ZM39.3716 93.359H37.5471L37.1138 95.1313H38.9383L39.3716 93.359ZM44.476 93.7816H42.6515C42.644 93.8126 42.6375 93.8279 42.6364 93.8305C42.6354 93.8326 42.6385 93.8253 42.6476 93.812L44.159 94.5025L45.6704 95.1931C45.9841 94.7318 46.1853 94.2525 46.3005 93.7816H44.476ZM44.159 94.5025L42.6117 93.8663C42.6207 93.8523 42.6373 93.8294 42.6628 93.8024C42.6885 93.7753 42.7163 93.7513 42.743 93.7321L43.6414 95.0494L44.5398 96.3667C45.0157 96.0239 45.4074 95.6054 45.7063 95.1387L44.159 94.5025ZM43.6414 95.0494L42.6577 93.7962C42.6776 93.7806 42.6978 93.7678 42.7154 93.7584C42.7326 93.7492 42.7412 93.7467 42.7374 93.7479L42.9647 95.4098L43.192 97.0718C43.6913 96.9067 44.1782 96.6533 44.6251 96.3026L43.6414 95.0494ZM42.9647 95.4098L42.6529 93.7777C42.6579 93.7758 42.6623 93.7744 42.6658 93.7734C42.6692 93.7725 42.671 93.7722 42.6707 93.7722C42.6705 93.7723 42.6592 93.7743 42.6352 93.7743L42.2019 95.5466L41.7686 97.3188C42.2531 97.3188 42.7616 97.2343 43.2765 97.042L42.9647 95.4098ZM42.2019 95.5466L42.6352 93.7743H38.6047L38.1714 95.5466L37.738 97.3188H41.7686L42.2019 95.5466ZM38.1714 95.5466L38.6047 93.7743C38.5728 93.7743 38.5577 93.7717 38.5552 93.7712C38.5531 93.7708 38.5603 93.772 38.5726 93.7777L37.4627 95.4098L36.3527 97.042C36.7798 97.2372 37.2533 97.3188 37.738 97.3188L38.1714 95.5466ZM37.4627 95.4098L38.5221 93.7557C38.5206 93.7551 38.5205 93.755 38.5215 93.7556C38.5225 93.7561 38.5241 93.7571 38.526 93.7584C38.5278 93.7597 38.5295 93.7611 38.5309 93.7624C38.5316 93.7631 38.5321 93.7636 38.5325 93.764C38.5328 93.7643 38.533 93.7645 38.533 93.7645L36.9622 95.0494L35.3914 96.3343C35.6594 96.6536 36.0006 96.8984 36.4033 97.064L37.4627 95.4098ZM36.9622 95.0494L38.5316 93.7628C38.5433 93.7768 38.5517 93.7909 38.557 93.8024C38.5622 93.8137 38.5624 93.8182 38.5612 93.812L36.7121 94.5025L34.863 95.1931C34.9437 95.6156 35.1149 96.0059 35.3929 96.336L36.9622 95.0494ZM36.7121 94.5025L38.5705 93.8663C38.5728 93.8817 38.5654 93.8612 38.5848 93.7816H36.7604H34.9359C34.8257 94.2323 34.7861 94.6924 34.8537 95.1387L36.7121 94.5025ZM36.7604 93.7816H38.5848L39.6212 89.5433H37.7967H35.9723L34.9359 93.7816H36.7604ZM37.7967 89.5433H39.6212C39.6292 89.5102 39.637 89.4898 39.6413 89.4797C39.6454 89.47 39.6472 89.4679 39.6452 89.471L38.0979 88.8348L36.5506 88.1986C36.2687 88.6387 36.0823 89.0933 35.9723 89.5433H37.7967ZM38.0979 88.8348L39.6093 89.5253C39.6136 89.5191 39.6112 89.5236 39.6005 89.5349C39.5895 89.5464 39.5742 89.5605 39.5557 89.5745L38.6155 88.2879L37.6753 87.0013C37.2359 87.3314 36.8738 87.7217 36.5865 88.1443L38.0979 88.8348ZM38.6155 88.2879L39.5579 89.5728C39.5579 89.5728 39.5577 89.573 39.5571 89.5733C39.5566 89.5737 39.5558 89.5743 39.5548 89.5749C39.5528 89.5762 39.5504 89.5776 39.5479 89.5789C39.5454 89.5802 39.5434 89.5812 39.5421 89.5817C39.5408 89.5823 39.5409 89.5822 39.5427 89.5816L39.2922 87.9275L39.0417 86.2733C38.5581 86.4389 38.0971 86.6837 37.6731 87.003L38.6155 88.2879ZM39.2922 87.9275L39.5427 89.5816C39.5254 89.5875 39.5495 89.5754 39.6314 89.5754L40.0647 87.8032L40.4981 86.0309C40.0341 86.0309 39.5431 86.1017 39.0417 86.2733L39.2922 87.9275ZM40.0647 87.8032L39.6314 89.5754H43.6619L44.0953 87.8032L44.5286 86.0309H40.4981L40.0647 87.8032ZM44.0953 87.8032L43.6619 89.5754C43.6959 89.5754 43.7163 89.5781 43.7263 89.5798C43.7359 89.5815 43.7377 89.5828 43.7348 89.5816L44.7942 87.9275L45.8536 86.2733C45.4419 86.1041 44.9918 86.0309 44.5286 86.0309L44.0953 87.8032ZM44.7942 87.9275L43.7542 89.5894C43.7574 89.5906 43.7501 89.5881 43.7373 89.5789C43.7243 89.5695 43.7104 89.5567 43.6982 89.5411L45.2947 88.2879L46.8912 87.0347C46.6159 86.684 46.2528 86.4306 45.8342 86.2655L44.7942 87.9275ZM45.2947 88.2879L43.7521 89.6052C43.7348 89.586 43.7187 89.562 43.7063 89.5349C43.694 89.5079 43.6885 89.485 43.6864 89.471L45.5448 88.8348L47.4032 88.1986C47.3325 87.7319 47.1455 87.3134 46.8373 86.9706L45.2947 88.2879ZM45.5448 88.8348L43.6957 89.5253C43.6948 89.5209 43.6944 89.5169 43.6942 89.5138C43.694 89.5107 43.6941 89.5091 43.694 89.5093C43.694 89.5095 43.6936 89.5199 43.6879 89.5433H45.5123H47.3368C47.4519 89.0725 47.4807 88.5987 47.3939 88.1443L45.5448 88.8348ZM45.5123 89.5433H43.6879L42.6515 93.7816H44.476H46.3005L47.3368 89.5433H45.5123ZM42.0714 93.359H43.8959L44.7195 89.9907H42.895H41.0706L40.247 93.359H42.0714ZM42.895 89.9907L43.3284 88.2185H40.6285L40.1952 89.9907L39.7619 91.763H42.4617L42.895 89.9907ZM40.1952 89.9907H38.3707L37.5471 93.359H39.3716H41.1961L42.0197 89.9907H40.1952ZM39.3716 93.359L38.9383 95.1313H41.6381L42.0714 93.359L42.5048 91.5868H39.8049L39.3716 93.359ZM53.1313 94.5025L51.6199 93.812L51.6016 93.839L51.584 93.8663L53.1313 94.5025ZM52.6137 95.0494L51.7153 93.7321L51.6721 93.7633L51.6301 93.7962L52.6137 95.0494ZM51.937 95.4098L51.7097 93.7479L51.6673 93.7619L51.6252 93.7777L51.937 95.4098ZM46.435 95.4098L47.545 93.7777L47.52 93.7662L47.4944 93.7557L46.435 95.4098ZM45.9346 95.0494L47.5053 93.7645L47.5039 93.7628L45.9346 95.0494ZM45.6844 94.5025L43.826 95.1387L43.8302 95.1661L43.8353 95.1931L45.6844 94.5025ZM47.1945 87.8032L47.6279 86.0309H45.8034L45.3701 87.8032H47.1945ZM49.7024 87.8032H51.5269L51.9602 86.0309H50.1358L49.7024 87.8032ZM48.344 93.359H46.5195L46.0862 95.1313H47.9106L48.344 93.359ZM51.0438 93.359L50.6104 95.1313H52.4349L52.8682 93.359H51.0438ZM52.4023 87.8032L52.8356 86.0309H51.0111L50.5778 87.8032H52.4023ZM54.9102 87.8032H56.7346L57.168 86.0309H55.3435L54.9102 87.8032ZM53.4483 93.7816H51.6239C51.6163 93.8126 51.6099 93.8279 51.6087 93.8305C51.6078 93.8326 51.6109 93.8253 51.6199 93.812L53.1313 94.5025L54.6428 95.1931C54.9564 94.7318 55.1577 94.2525 55.2728 93.7816H53.4483ZM53.1313 94.5025L51.584 93.8663C51.593 93.8523 51.6096 93.8294 51.6351 93.8024C51.6608 93.7753 51.6887 93.7513 51.7153 93.7321L52.6137 95.0494L53.5122 96.3667C53.988 96.0239 54.3797 95.6054 54.6786 95.1387L53.1313 94.5025ZM52.6137 95.0494L51.6301 93.7962C51.6499 93.7806 51.6701 93.7678 51.6877 93.7584C51.705 93.7492 51.7135 93.7467 51.7097 93.7479L51.937 95.4098L52.1643 97.0718C52.6636 96.9067 53.1506 96.6533 53.5974 96.3026L52.6137 95.0494ZM51.937 95.4098L51.6252 93.7777C51.6303 93.7758 51.6347 93.7744 51.6381 93.7734C51.6416 93.7725 51.6433 93.7722 51.6431 93.7722C51.6428 93.7723 51.6316 93.7743 51.6076 93.7743L51.1743 95.5466L50.7409 97.3188C51.2255 97.3188 51.7339 97.2343 52.2488 97.042L51.937 95.4098ZM51.1743 95.5466L51.6076 93.7743H47.5771L47.1437 95.5466L46.7104 97.3188H50.7409L51.1743 95.5466ZM47.1437 95.5466L47.5771 93.7743C47.5452 93.7743 47.5301 93.7717 47.5275 93.7712C47.5254 93.7708 47.5327 93.772 47.545 93.7777L46.435 95.4098L45.325 97.042C45.7521 97.2372 46.2257 97.3188 46.7104 97.3188L47.1437 95.5466ZM46.435 95.4098L47.4944 93.7557C47.493 93.7551 47.4929 93.755 47.4939 93.7556C47.4949 93.7561 47.4965 93.7571 47.4983 93.7584C47.5002 93.7597 47.5019 93.7611 47.5033 93.7624C47.5039 93.7631 47.5044 93.7636 47.5048 93.764C47.5052 93.7643 47.5053 93.7645 47.5053 93.7645L45.9346 95.0494L44.3638 96.3343C44.6317 96.6536 44.973 96.8984 45.3756 97.064L46.435 95.4098ZM45.9346 95.0494L47.5039 93.7628C47.5157 93.7768 47.5241 93.7909 47.5294 93.8024C47.5345 93.8137 47.5347 93.8182 47.5335 93.812L45.6844 94.5025L43.8353 95.1931C43.916 95.6156 44.0872 96.0059 44.3652 96.336L45.9346 95.0494ZM45.6844 94.5025L47.5428 93.8663C47.5452 93.8817 47.5377 93.8612 47.5572 93.7816H45.7327H43.9083C43.7981 94.2323 43.7584 94.6924 43.826 95.1387L45.6844 94.5025ZM45.7327 93.7816H47.5572L49.019 87.8032H47.1945H45.3701L43.9083 93.7816H45.7327ZM47.1945 87.8032L46.7612 89.5754H49.2691L49.7024 87.8032L50.1358 86.0309H47.6279L47.1945 87.8032ZM49.7024 87.8032H47.878L46.5195 93.359H48.344H50.1684L51.5269 87.8032H49.7024ZM48.344 93.359L47.9106 95.1313H50.6104L51.0438 93.359L51.4771 91.5868H48.7773L48.344 93.359ZM51.0438 93.359H52.8682L54.2267 87.8032H52.4023H50.5778L49.2193 93.359H51.0438ZM52.4023 87.8032L51.9689 89.5754H54.4768L54.9102 87.8032L55.3435 86.0309H52.8356L52.4023 87.8032ZM54.9102 87.8032H53.0857L51.6239 93.7816H53.4483H55.2728L56.7346 87.8032H54.9102ZM56.8058 95.5466L56.3725 97.3188H58.1969L58.6303 95.5466H56.8058ZM54.2979 95.5466H52.4735L52.0401 97.3188H53.8646L54.2979 95.5466ZM56.067 88.8348L54.5556 88.1443L54.5372 88.1712L54.5197 88.1986L56.067 88.8348ZM56.5846 88.2879L57.5248 89.5745L57.527 89.5728L56.5846 88.2879ZM57.2613 87.9275L57.5118 89.5816V89.5816L57.2613 87.9275ZM61.5909 87.8032H63.4154L63.8487 86.0309H62.0243L61.5909 87.8032ZM61.0561 89.9907L60.6227 91.763H62.4472L62.8805 89.9907H61.0561ZM58.1643 89.9907L58.5976 88.2185H56.7732L56.3398 89.9907H58.1643ZM56.8058 95.5466L57.2392 93.7743H54.7313L54.2979 95.5466L53.8646 97.3188H56.3725L56.8058 95.5466ZM54.2979 95.5466H56.1224L57.5903 89.5433H55.7658H53.9414L52.4735 95.5466H54.2979ZM55.7658 89.5433H57.5903C57.5984 89.5102 57.6061 89.4898 57.6104 89.4797C57.6145 89.47 57.6163 89.4679 57.6143 89.471L56.067 88.8348L54.5197 88.1986C54.2378 88.6387 54.0514 89.0933 53.9414 89.5433H55.7658ZM56.067 88.8348L57.5784 89.5253C57.5827 89.5191 57.5803 89.5236 57.5696 89.5349C57.5586 89.5464 57.5433 89.5605 57.5248 89.5745L56.5846 88.2879L55.6444 87.0013C55.205 87.3314 54.8429 87.7217 54.5556 88.1443L56.067 88.8348ZM56.5846 88.2879L57.527 89.5728C57.527 89.5728 57.5268 89.573 57.5262 89.5733C57.5257 89.5737 57.5249 89.5743 57.5239 89.5749C57.5219 89.5762 57.5195 89.5776 57.517 89.5789C57.5145 89.5802 57.5125 89.5812 57.5112 89.5817C57.5099 89.5823 57.51 89.5822 57.5118 89.5816L57.2613 87.9275L57.0108 86.2733C56.5272 86.4389 56.0662 86.6837 55.6422 87.003L56.5846 88.2879ZM57.2613 87.9275L57.5118 89.5816C57.4945 89.5875 57.5186 89.5754 57.6005 89.5754L58.0338 87.8032L58.4672 86.0309C58.0032 86.0309 57.5122 86.1017 57.0108 86.2733L57.2613 87.9275ZM58.0338 87.8032L57.6005 89.5754H61.1576L61.5909 87.8032L62.0243 86.0309H58.4672L58.0338 87.8032ZM61.5909 87.8032H59.7665L59.2316 89.9907H61.0561H62.8805L63.4154 87.8032H61.5909ZM61.0561 89.9907L61.4894 88.2185H58.5976L58.1643 89.9907L57.731 91.763H60.6227L61.0561 89.9907ZM58.1643 89.9907H56.3398L54.9814 95.5466H56.8058H58.6303L59.9888 89.9907H58.1643ZM68.1936 94.5149L66.6982 93.8012L66.6714 93.8396L66.6464 93.8787L68.1936 94.5149ZM67.6761 95.0618L66.7777 93.7445L66.7344 93.7757L66.6924 93.8087L67.6761 95.0618ZM66.9993 95.4223L66.772 93.7604L66.7604 93.7642L66.7489 93.7682L66.9993 95.4223ZM61.1151 95.0494L62.7116 93.7962V93.7962L61.1151 95.0494ZM61.1388 92.9116L61.5721 91.1393H59.7477L59.3143 92.9116H61.1388ZM63.6467 92.9116H65.4711L65.9045 91.1393H64.08L63.6467 92.9116ZM63.5251 93.4087H61.7007L61.2673 95.181H63.0918L63.5251 93.4087ZM66.097 93.4087L65.6636 95.181H67.4881L67.9214 93.4087H66.097ZM66.3128 92.5263H68.1372L68.5706 90.754H66.7461L66.3128 92.5263ZM61.8353 92.1037L60.2248 93.3386L60.2387 93.357L60.2533 93.3749L61.8353 92.1037ZM62.8293 88.3003L61.8456 87.0472L61.8456 87.0472L62.8293 88.3003ZM68.704 87.9275L67.6446 89.5816L67.6542 89.5855L67.664 89.5894L68.704 87.9275ZM69.2044 88.2879L67.6079 89.5411L67.6338 89.574L67.6618 89.6052L69.2044 88.2879ZM69.4546 88.8348L67.5962 89.471L67.6003 89.4983L67.6055 89.5253L69.4546 88.8348ZM69.2185 90.376L68.7851 92.1483H70.6096L71.0429 90.376H69.2185ZM66.7106 90.376H64.8861L64.4528 92.1483H66.2772L66.7106 90.376ZM66.8169 89.941H68.6414L69.0747 88.1687H67.2503L66.8169 89.941ZM64.437 89.941L64.8703 88.1687H63.0459L62.6125 89.941H64.437ZM64.2334 90.7737H62.4089L61.9756 92.546H63.8L64.2334 90.7737ZM68.7004 91.1342L67.2027 92.4989L67.2201 92.5163L67.2382 92.5331L68.7004 91.1342ZM68.5076 93.8065H66.6832C66.6755 93.8377 66.6698 93.8498 66.6712 93.8466C66.6719 93.845 66.6743 93.8399 66.6788 93.8318C66.6834 93.8237 66.6898 93.8133 66.6982 93.8012L68.1936 94.5149L69.6891 95.2287C70.0151 94.7613 70.2174 94.2757 70.3321 93.8065H68.5076ZM68.1936 94.5149L66.6464 93.8787C66.6553 93.8647 66.672 93.8418 66.6975 93.8149C66.7232 93.7877 66.751 93.7637 66.7777 93.7445L67.6761 95.0618L68.5745 96.3791C69.0504 96.0364 69.442 95.6179 69.7409 95.1511L68.1936 94.5149ZM67.6761 95.0618L66.6924 93.8087C66.7123 93.7931 66.7324 93.7802 66.75 93.7708C66.7673 93.7616 66.7759 93.7591 66.772 93.7604L66.9993 95.4223L67.2266 97.0842C67.726 96.9191 68.2129 96.6657 68.6597 96.315L67.6761 95.0618ZM66.9993 95.4223L66.7489 93.7682C66.7523 93.767 66.7499 93.7682 66.7394 93.7699C66.7286 93.7717 66.7069 93.7743 66.673 93.7743L66.2396 95.5466L65.8063 97.3188C66.2695 97.3188 66.7554 97.2457 67.2498 97.0764L66.9993 95.4223ZM66.2396 95.5466L66.673 93.7743H62.7704L62.337 95.5466L61.9037 97.3188H65.8063L66.2396 95.5466ZM62.337 95.5466L62.7704 93.7743C62.6808 93.7743 62.658 93.7612 62.6701 93.7661C62.6756 93.7684 62.6846 93.7729 62.6942 93.7801C62.7038 93.7872 62.7095 93.7936 62.7116 93.7962L61.1151 95.0494L59.5186 96.3026C60.079 97.0165 60.9436 97.3188 61.9037 97.3188L62.337 95.5466ZM61.1151 95.0494L62.7116 93.7962C62.717 93.8032 62.724 93.8142 62.73 93.8285C62.7359 93.8427 62.7386 93.8548 62.7395 93.8616C62.7416 93.8759 62.734 93.8491 62.7566 93.7568H60.9321H59.1077C58.8831 94.6751 58.9578 95.5882 59.5186 96.3026L61.1151 95.0494ZM60.9321 93.7568H62.7566L62.9632 92.9116H61.1388H59.3143L59.1077 93.7568H60.9321ZM61.1388 92.9116L60.7054 94.6838H63.2133L63.6467 92.9116L64.08 91.1393H61.5721L61.1388 92.9116ZM63.6467 92.9116H61.8222L61.7007 93.4087H63.5251H65.3496L65.4711 92.9116H63.6467ZM63.5251 93.4087L63.0918 95.181H65.6636L66.097 93.4087L66.5303 91.6365H63.9585L63.5251 93.4087ZM66.097 93.4087H67.9214L68.1372 92.5263H66.3128H64.4883L64.2725 93.4087H66.097ZM66.3128 92.5263L66.7461 90.754H63.4449L63.0116 92.5263L62.5782 94.2985H65.8794L66.3128 92.5263ZM63.0116 92.5263L63.4449 90.754C63.3231 90.754 63.2866 90.7382 63.2992 90.7427C63.3066 90.7453 63.3248 90.7529 63.3483 90.7689C63.3721 90.7851 63.3962 90.8064 63.4174 90.8325L61.8353 92.1037L60.2533 93.3749C60.8225 94.0731 61.7112 94.2985 62.5782 94.2985L63.0116 92.5263ZM61.8353 92.1037L63.4459 90.8688C63.4662 90.8956 63.4812 90.924 63.4913 90.951C63.5012 90.9776 63.5042 90.9972 63.5051 91.0049C63.5065 91.0183 63.4997 90.9791 63.5287 90.8608H61.7042H59.8798C59.6738 91.7029 59.6817 92.6198 60.2248 93.3386L61.8353 92.1037ZM61.7042 90.8608H63.5287L63.8387 89.593H62.0142H60.1897L59.8798 90.8608H61.7042ZM62.0142 89.593H63.8387C63.8612 89.5007 63.8819 89.4738 63.8729 89.4881C63.8686 89.495 63.8601 89.507 63.8471 89.5213C63.8342 89.5356 63.8218 89.5466 63.813 89.5535L62.8293 88.3003L61.8456 87.0472C60.9355 87.7615 60.4143 88.6747 60.1897 89.593H62.0142ZM62.8293 88.3003L63.813 89.5535C63.8096 89.5561 63.8008 89.5625 63.7877 89.5697C63.7745 89.5769 63.7634 89.5814 63.7568 89.5836C63.7423 89.5885 63.7714 89.5754 63.861 89.5754L64.2944 87.8032L64.7277 86.0309C63.7676 86.0309 62.7552 86.3332 61.8456 87.0472L62.8293 88.3003ZM64.2944 87.8032L63.861 89.5754H67.5717L68.005 87.8032L68.4384 86.0309H64.7277L64.2944 87.8032ZM68.005 87.8032L67.5717 89.5754C67.6057 89.5754 67.6261 89.5781 67.636 89.5798C67.6456 89.5815 67.6475 89.5828 67.6446 89.5816L68.704 87.9275L69.7634 86.2733C69.3517 86.1041 68.9015 86.0309 68.4384 86.0309L68.005 87.8032ZM68.704 87.9275L67.664 89.5894C67.6671 89.5906 67.6598 89.5881 67.6471 89.5789C67.634 89.5695 67.6202 89.5567 67.6079 89.5411L69.2044 88.2879L70.8009 87.0347C70.5256 86.684 70.1626 86.4306 69.744 86.2655L68.704 87.9275ZM69.2044 88.2879L67.6618 89.6052C67.6446 89.586 67.6284 89.562 67.616 89.5349C67.6037 89.5079 67.5983 89.485 67.5962 89.471L69.4546 88.8348L71.313 88.1986C71.2423 87.7319 71.0553 87.3134 70.747 86.9706L69.2044 88.2879ZM69.4546 88.8348L67.6055 89.5253C67.6046 89.5209 67.6041 89.5169 67.6039 89.5138C67.6037 89.5107 67.6038 89.5091 67.6038 89.5093C67.6038 89.5095 67.6033 89.5199 67.5976 89.5433H69.4221H71.2465C71.3616 89.0725 71.3905 88.5987 71.3037 88.1443L69.4546 88.8348ZM69.4221 89.5433H67.5976L67.394 90.376H69.2185H71.0429L71.2465 89.5433H69.4221ZM69.2185 90.376L69.6518 88.6038H67.1439L66.7106 90.376L66.2772 92.1483H68.7851L69.2185 90.376ZM66.7106 90.376H68.535L68.6414 89.941H66.8169H64.9925L64.8861 90.376H66.7106ZM66.8169 89.941L67.2503 88.1687H64.8703L64.437 89.941L64.0037 91.7132H66.3836L66.8169 89.941ZM64.437 89.941H62.6125L62.4089 90.7737H64.2334H66.0578L66.2615 89.941H64.437ZM64.2334 90.7737L63.8 92.546H67.1013L67.5346 90.7737L67.9679 89.0015H64.6667L64.2334 90.7737ZM67.5346 90.7737L67.1013 92.546C67.2337 92.546 67.2892 92.5612 67.2959 92.5633C67.298 92.5639 67.2873 92.5608 67.2689 92.5502C67.25 92.5394 67.2265 92.5228 67.2027 92.4989L68.7004 91.1342L70.1981 89.7695C69.6098 89.18 68.7677 89.0015 67.9679 89.0015L67.5346 90.7737ZM68.7004 91.1342L67.2382 92.5331C67.1926 92.4908 67.1543 92.4402 67.1259 92.3847C67.0977 92.3298 67.0842 92.2797 67.0783 92.2429C67.067 92.1737 67.0842 92.1662 67.06 92.2653H68.8845H70.7089C70.9161 91.4182 70.9004 90.4191 70.1626 89.7353L68.7004 91.1342ZM68.8845 92.2653H67.06L66.6832 93.8065H68.5076H70.3321L70.7089 92.2653H68.8845ZM76.4768 95.0494L75.5134 93.7805L75.4931 93.7961L75.473 93.8122L76.4768 95.0494ZM70.4102 95.4223L71.4696 93.7682V93.7682L70.4102 95.4223ZM69.9098 95.0618L71.4805 93.7769L71.4791 93.7753L69.9098 95.0618ZM69.6596 94.5149L67.8047 95.1731L67.8074 95.1894L67.8105 95.2055L69.6596 94.5149ZM71.0485 88.8348L69.5371 88.1443L69.5187 88.1712L69.5012 88.1986L71.0485 88.8348ZM71.5661 88.2879L72.5063 89.5745L72.5085 89.5728L71.5661 88.2879ZM72.2428 87.9275L71.9923 86.2733V86.2733L72.2428 87.9275ZM78.255 88.3003L76.6462 89.5375L76.6584 89.5536L76.6711 89.5693L78.255 88.3003ZM77.3769 92.1534L78.3605 93.4066L78.3605 93.4066L77.3769 92.1534ZM72.5137 92.576L72.947 90.8037H71.1225L70.6892 92.576H72.5137ZM72.31 93.4087H70.4856L70.0522 95.181H71.8767L72.31 93.4087ZM74.8819 93.4087L74.4486 95.181H76.273L76.7064 93.4087H74.8819ZM74.9944 92.9489L75.4277 91.1766H73.6032L73.1699 92.9489H74.9944ZM77.5023 92.9489H79.3267L79.7601 91.1766H77.9356L77.5023 92.9489ZM75.642 90.8235L75.2087 92.5957H77.0331L77.4665 90.8235H75.642ZM75.8578 89.941H77.6822L78.1156 88.1687H76.2911L75.8578 89.941ZM73.158 89.941L73.5913 88.1687H71.7668L71.3335 89.941H73.158ZM72.9422 90.8235H71.1177L70.6844 92.5957H72.5088L72.9422 90.8235ZM77.3047 93.7568H75.4803C75.4589 93.8442 75.4399 93.8661 75.4517 93.8477C75.4572 93.839 75.4668 93.8259 75.4803 93.8113C75.4938 93.7967 75.5059 93.7863 75.5134 93.7805L76.4768 95.0494L77.4402 96.3183C78.3655 95.6068 78.9014 94.6884 79.1292 93.7568H77.3047ZM76.4768 95.0494L75.473 93.8122C75.4804 93.8063 75.4935 93.7969 75.5108 93.7873C75.5282 93.7777 75.5432 93.7715 75.553 93.7682C75.5736 93.7611 75.5479 93.7743 75.4579 93.7743L75.0245 95.5466L74.5912 97.3188C75.5503 97.3188 76.5696 97.0164 77.4806 96.2866L76.4768 95.0494ZM75.0245 95.5466L75.4579 93.7743H71.5553L71.122 95.5466L70.6886 97.3188H74.5912L75.0245 95.5466ZM71.122 95.5466L71.5553 93.7743C71.4734 93.7743 71.4552 93.7622 71.4696 93.7682L70.4102 95.4223L69.3508 97.0764C69.7683 97.248 70.2246 97.3188 70.6886 97.3188L71.122 95.5466ZM70.4102 95.4223L71.4696 93.7682C71.4682 93.7676 71.4681 93.7674 71.4691 93.768C71.4701 93.7685 71.4717 93.7695 71.4735 93.7708C71.4754 93.7722 71.4771 93.7736 71.4785 93.7749C71.4791 93.7755 71.4796 93.776 71.48 93.7764C71.4804 93.7768 71.4805 93.777 71.4805 93.7769L69.9098 95.0618L68.339 96.3467C68.6069 96.666 68.9482 96.9109 69.3508 97.0764L70.4102 95.4223ZM69.9098 95.0618L71.4791 93.7753C71.4909 93.7892 71.4993 93.8033 71.5046 93.8149C71.5097 93.8262 71.5099 93.8307 71.5087 93.8244L69.6596 94.5149L67.8105 95.2055C67.8912 95.628 68.0624 96.0183 68.3404 96.3484L69.9098 95.0618ZM69.6596 94.5149L71.5145 93.8567C71.5208 93.8944 71.5095 93.8878 71.5294 93.8065H69.7049H67.8804C67.7706 94.2555 67.7291 94.7212 67.8047 95.1731L69.6596 94.5149ZM69.7049 93.8065H71.5294L72.5718 89.5433H70.7473H68.9229L67.8804 93.8065H69.7049ZM70.7473 89.5433H72.5718C72.5798 89.5102 72.5876 89.4898 72.5918 89.4797C72.596 89.47 72.5978 89.4679 72.5958 89.471L71.0485 88.8348L69.5012 88.1986C69.2193 88.6387 69.0329 89.0933 68.9229 89.5433H70.7473ZM71.0485 88.8348L72.5599 89.5253C72.5642 89.5191 72.5618 89.5236 72.5511 89.5349C72.5401 89.5464 72.5248 89.5605 72.5063 89.5745L71.5661 88.2879L70.6259 87.0013C70.1865 87.3314 69.8244 87.7217 69.5371 88.1443L71.0485 88.8348ZM71.5661 88.2879L72.5085 89.5728C72.5085 89.5728 72.5083 89.573 72.5077 89.5733C72.5072 89.5737 72.5064 89.5743 72.5054 89.5749C72.5034 89.5762 72.501 89.5776 72.4985 89.5789C72.496 89.5802 72.494 89.5812 72.4927 89.5817C72.4914 89.5823 72.4915 89.5822 72.4933 89.5816L72.2428 87.9275L71.9923 86.2733C71.5087 86.4389 71.0477 86.6837 70.6237 87.003L71.5661 88.2879ZM72.2428 87.9275L72.4933 89.5816C72.476 89.5875 72.5 89.5754 72.582 89.5754L73.0153 87.8032L73.4487 86.0309C72.9847 86.0309 72.4937 86.1017 71.9923 86.2733L72.2428 87.9275ZM73.0153 87.8032L72.582 89.5754H76.6125L77.0459 87.8032L77.4792 86.0309H73.4487L73.0153 87.8032ZM77.0459 87.8032L76.6125 89.5754C76.7025 89.5754 76.7218 89.5887 76.7046 89.5816C76.6965 89.5782 76.6845 89.572 76.6718 89.5624C76.6592 89.5528 76.6507 89.5435 76.6462 89.5375L78.255 88.3003L79.8638 87.0631C79.3098 86.3333 78.4383 86.0309 77.4792 86.0309L77.0459 87.8032ZM78.255 88.3003L76.6711 89.5693C76.6664 89.5635 76.6594 89.553 76.653 89.5385C76.6467 89.5238 76.6435 89.5108 76.6422 89.5021C76.6394 89.4837 76.6477 89.5055 76.6263 89.593H78.4508H80.2752C80.503 88.6613 80.4163 87.743 79.8389 87.0314L78.255 88.3003ZM78.4508 89.593H76.6263L76.3042 90.9105H78.1286H79.9531L80.2752 89.593H78.4508ZM78.1286 90.9105H76.3042C76.2764 91.024 76.252 91.0579 76.263 91.0397C76.2691 91.0296 76.2831 91.0086 76.3072 90.9813C76.3315 90.9536 76.3608 90.9257 76.3932 90.9002L77.3769 92.1534L78.3605 93.4066C79.2737 92.6898 79.7438 91.7662 79.9531 90.9105H78.1286ZM77.3769 92.1534L76.3932 90.9002C76.432 90.8698 76.4715 90.8448 76.5082 90.8258C76.5443 90.8071 76.5705 90.7978 76.5824 90.7942C76.6033 90.7877 76.5625 90.8037 76.4401 90.8037L76.0068 92.576L75.5735 94.3482C76.4368 94.3482 77.4464 94.1241 78.3605 93.4066L77.3769 92.1534ZM76.0068 92.576L76.4401 90.8037H72.947L72.5137 92.576L72.0803 94.3482H75.5735L76.0068 92.576ZM72.5137 92.576H70.6892L70.4856 93.4087H72.31H74.1345L74.3381 92.576H72.5137ZM72.31 93.4087L71.8767 95.181H74.4486L74.8819 93.4087L75.3153 91.6365H72.7434L72.31 93.4087ZM74.8819 93.4087H76.7064L76.8188 92.9489H74.9944H73.1699L73.0575 93.4087H74.8819ZM74.9944 92.9489L74.561 94.7211H77.0689L77.5023 92.9489L77.9356 91.1766H75.4277L74.9944 92.9489ZM77.5023 92.9489H75.6778L75.4803 93.7568H77.3047H79.1292L79.3267 92.9489H77.5023ZM75.642 90.8235H77.4665L77.6822 89.941H75.8578H74.0333L73.8175 90.8235H75.642ZM75.8578 89.941L76.2911 88.1687H73.5913L73.158 89.941L72.7246 91.7132H75.4244L75.8578 89.941ZM73.158 89.941H71.3335L71.1177 90.8235H72.9422H74.7666L74.9824 89.941H73.158ZM72.9422 90.8235L72.5088 92.5957H75.2087L75.642 90.8235L76.0753 89.0512H73.3755L72.9422 90.8235Z" fill="white" mask="url(#path-11-outside-2_91_2431)"/>
</svg>
