<svg width="119" height="112" viewBox="0 0 119 112" fill="none" xmlns="http://www.w3.org/2000/svg">
<path d="M36.1157 7.04122L20.9181 45.4693C20.8308 45.6901 20.6371 45.8461 20.4039 45.8909C-0.737439 49.9493 -19.1545 115.203 62.2143 108.201C134.02 102.023 119.325 52.2671 100.01 43.582C99.8561 43.513 99.7358 43.3928 99.6673 43.2391L81.6162 2.74595C81.4102 2.28386 80.7863 2.2075 80.4749 2.60628L57.2236 32.3871C56.9508 32.7365 56.4199 32.7298 56.156 32.3735L37.2783 6.88865C36.9651 6.46581 36.3092 6.55188 36.1157 7.04122Z" fill="#01FD5C" stroke="#1B1B1B" stroke-width="4.69496"/>
<circle cx="47.2701" cy="70.1378" r="11.7374" fill="white" stroke="black" stroke-width="4.69496"/>
<circle cx="70.7452" cy="70.1378" r="11.7374" fill="white" stroke="black" stroke-width="4.69496"/>
<circle cx="77.6198" cy="68.2902" r="3.85657" fill="black"/>
<circle cx="59.1749" cy="89.4191" r="3.85657" fill="black"/>
<circle cx="53.4738" cy="68.2902" r="3.85657" fill="black"/>
</svg>
