<svg width="37" height="37" viewBox="0 0 37 37" fill="none" xmlns="http://www.w3.org/2000/svg">
<path d="M21.6985 36.3087C20.8897 36.3087 20.3063 36.0198 19.9481 35.4421C19.5899 34.8644 19.2837 34.1423 19.0295 33.2757L15.39 20.9186L2.87695 17.2444C2.04505 16.9902 1.35759 16.6898 0.814544 16.3432C0.271503 15.985 -1.79224e-05 15.4073 -1.79224e-05 14.6101C-1.79224e-05 13.9862 0.248395 13.4489 0.74522 12.9983C1.24205 12.5477 1.85441 12.1837 2.58232 11.9064L32.3918 0.485242C32.7962 0.335039 33.1717 0.219498 33.5184 0.138619C33.8765 0.0461868 34.2 -2.95155e-05 34.4889 -2.95155e-05C35.055 -2.95155e-05 35.4999 0.161728 35.8234 0.485242C36.1469 0.808756 36.3087 1.25359 36.3087 1.81974C36.3087 2.12014 36.2624 2.44366 36.17 2.79028C36.0891 3.1369 35.9736 3.51241 35.8234 3.9168L24.4715 33.5703C24.148 34.4022 23.7609 35.0666 23.3103 35.5634C22.8597 36.0602 22.3225 36.3087 21.6985 36.3087ZM16.1699 18.2843L28.0937 6.36049C28.5674 5.88677 29.1278 5.38417 29.7748 4.85268C30.4219 4.32119 31.0342 3.82437 31.6119 3.36221C30.9649 3.66261 30.3063 3.97457 29.6362 4.29809C28.9776 4.61005 28.3017 4.8989 27.6084 5.16464L4.17678 14.0382C4.04969 14.0844 3.96303 14.1364 3.91681 14.1942C3.8706 14.2404 3.84749 14.2924 3.84749 14.3501C3.84749 14.4079 3.8706 14.4599 3.91681 14.5061C3.97458 14.5523 4.07279 14.5928 4.21144 14.6274L16.1699 18.2843ZM21.9758 32.4958C22.0336 32.4958 22.0856 32.4669 22.1318 32.4092C22.178 32.3514 22.2242 32.2589 22.2705 32.1319L31.144 8.70019C31.4097 7.99539 31.7044 7.30792 32.0279 6.63779C32.3514 5.96765 32.6634 5.30329 32.9638 4.64471C32.5016 5.23397 31.999 5.85789 31.456 6.51647C30.9245 7.17505 30.4219 7.7412 29.9481 8.21492L18.0243 20.1387L21.6812 32.0972C21.7274 32.2358 21.7679 32.334 21.8025 32.3918C21.8487 32.4611 21.9065 32.4958 21.9758 32.4958Z" fill="black"/>
</svg>
