<svg width="27" height="38" viewBox="0 0 27 38" fill="none" xmlns="http://www.w3.org/2000/svg">
<path d="M-4.99859e-05 13.5601C-4.99859e-05 11.6932 0.350704 9.94504 1.05221 8.31573C1.75372 6.67511 2.72112 5.23249 3.95442 3.98788C5.19903 2.74326 6.636 1.7702 8.26531 1.0687C9.89462 0.355872 11.6371 -0.000539266 13.4927 -0.000539266C15.3483 -0.000539266 17.0907 0.355872 18.72 1.0687C20.3494 1.7702 21.7807 2.74326 23.014 3.98788C24.2586 5.23249 25.2316 6.67511 25.9331 8.31573C26.646 9.94504 26.9967 11.6932 26.9854 13.5601C26.9741 15.5401 26.5611 17.4014 25.7464 19.1439C24.9431 20.875 23.8512 22.3572 22.4709 23.5905V36.4723C22.4709 36.9701 22.3521 37.3322 22.1144 37.5585C21.8882 37.7848 21.594 37.8979 21.2319 37.8979C20.949 37.8979 20.6888 37.8244 20.4512 37.6773C20.2136 37.5302 19.976 37.3378 19.7384 37.1002L14.2225 31.6183C14.0754 31.4712 13.9453 31.3693 13.8321 31.3128C13.719 31.2562 13.6115 31.2279 13.5096 31.2279C13.4078 31.2279 13.3003 31.2562 13.1872 31.3128C13.074 31.3693 12.9439 31.4712 12.7968 31.6183L7.28093 37.1002C7.05464 37.3265 6.82269 37.5132 6.58508 37.6603C6.34747 37.8187 6.08158 37.8979 5.7874 37.8979C5.43664 37.8979 5.14246 37.7848 4.90485 37.5585C4.67856 37.3322 4.56541 36.9701 4.56541 36.4723L4.54844 23.6414C3.15674 22.4081 2.0479 20.9203 1.22193 19.1778C0.407278 17.424 -4.99859e-05 15.5515 -4.99859e-05 13.5601ZM2.76638 13.5601C2.76638 15.0649 3.03793 16.4736 3.58104 17.7861C4.13546 19.0873 4.8992 20.2357 5.87226 21.2314C6.84532 22.2158 7.98244 22.9908 9.28362 23.5566C10.5961 24.111 12.0048 24.3882 13.5096 24.3882C15.0145 24.3995 16.4175 24.128 17.7187 23.5735C19.0312 23.0078 20.174 22.2271 21.147 21.2314C22.1314 20.2357 22.8952 19.0873 23.4383 17.7861C23.9927 16.4736 24.2642 15.0649 24.2529 13.5601C24.2529 12.0552 23.9757 10.6466 23.4213 9.33405C22.8782 8.02155 22.1144 6.86746 21.1301 5.87177C20.157 4.87608 19.0199 4.10102 17.7187 3.54661C16.4175 2.98087 15.0145 2.69801 13.5096 2.69801C12.0048 2.69801 10.5961 2.98087 9.28362 3.54661C7.98244 4.10102 6.84532 4.87608 5.87226 5.87177C4.8992 6.86746 4.13546 8.02155 3.58104 9.33405C3.03793 10.6466 2.76638 12.0552 2.76638 13.5601Z" fill="white"/>
</svg>
